<?xml version="1.0" encoding="utf-8"?>
<!-- Generator: Adobe Illustrator 21.1.0, SVG Export Plug-In . SVG Version: 6.00 Build 0)  -->
<svg version="1.1" id="Слой_1" xmlns="http://www.w3.org/2000/svg" xmlns:xlink="http://www.w3.org/1999/xlink" x="0px" y="0px"
	 viewBox="0 0 173 173" style="enable-background:new 0 0 173 173;" xml:space="preserve">
<g id="Слой_x0020_1">
	<g id="_1477790800">
		<path d="M86.499,0C38.63,0,0,38.627,0,86.499C0,134.394,38.605,173,86.499,173C134.395,173,173,134.395,173,86.499
			C173,38.626,134.369,0,86.499,0z M86.499,167.021c-44.602,0-80.521-35.92-80.521-80.522c0-44.601,35.92-80.522,80.521-80.522
			c44.602,0,80.523,35.92,80.523,80.522S131.102,167.021,86.499,167.021z"/>
		<path d="M128.031,61.652c-1.6-1.616-3.948-1.555-5.541,0.006l-47.319,47.319l-24.66-24.66c-1.603-1.603-3.95-1.585-5.555,0.007
			c-1.617,1.6-1.557,3.947,0.006,5.541L72.397,117.3c0.855,0.855,1.549,1.19,2.773,1.19c1.199,0,1.935-0.35,2.775-1.19
			l50.093-50.091C129.641,65.606,129.622,63.258,128.031,61.652z"/>
	</g>
</g>
</svg>
