<?xml version="1.0" encoding="UTF-8"?>
<!DOCTYPE svg PUBLIC "-//W3C//DTD SVG 1.0//EN" "http://www.w3.org/TR/2001/REC-SVG-20010904/DTD/svg10.dtd">
<!-- Creator: CorelDRAW X7 -->
<svg xmlns="http://www.w3.org/2000/svg" xml:space="preserve" width="140px" height="147px" version="1.0" style="shape-rendering:geometricPrecision; text-rendering:geometricPrecision; image-rendering:optimizeQuality; fill-rule:evenodd; clip-rule:evenodd"
viewBox="0 0 1085272 1140121"
 xmlns:xlink="http://www.w3.org/1999/xlink">
 <defs>
  <style type="text/css">
   <![CDATA[
    .fil1 {fill:black}
    .fil0 {fill:#DDDDDD}
    .fil3 {fill:#FAD385}
    .fil2 {fill:white}
    .fil4 {fill:black;fill-rule:nonzero}
   ]]>
  </style>
 </defs>
 <g id="Слой_x0020_1">
  <metadata id="CorelCorpID_0Corel-Layer"/>
  <g id="_1903633136">
   <rect class="fil0" x="486110" y="118725" width="210228" height="56012"/>
   <circle class="fil1" cx="591224" cy="646073" r="494048"/>
   <circle class="fil2" cx="591224" cy="646073" r="463013"/>
   <circle class="fil1" cx="591224" cy="646073" r="403325"/>
   <path class="fil0" d="M405084 323664c-178064,102804 -239072,330493 -136268,508549 102804,178065 330493,239072 508548,136268l-372280 -644817z"/>
   <path class="fil3" d="M777364 968481c178065,-102804 239073,-330493 136269,-508548 -102804,-178065 -330493,-239073 -508549,-136269l372280 644817z"/>
   <g>
    <circle class="fil1" cx="227964" cy="809509" r="227964"/>
    <circle class="fil2" cx="227964" cy="809509" r="196791"/>
   </g>
   <rect class="fil1" x="406754" y="3" width="368933" height="126392" rx="38686" ry="38686"/>
   <g>
    <rect class="fil1" x="470584" y="118725" width="31045" height="56012"/>
    <rect class="fil1" x="680811" y="118725" width="31045" height="56012"/>
   </g>
   <path class="fil0" d="M457467 31036l267505 0c10825,0 19679,8872 19679,19679l0 24958c0,10807 -8872,19679 -19679,19679l-267505 0c-10806,0 -19679,-8854 -19679,-19679l0 -24958c0,-10825 8854,-19679 19679,-19679z"/>
   <rect class="fil1" transform="matrix(0.750284 -0.433176 0.994834 1.7231 378513 316445)" width="44784" height="393856"/>
   <circle class="fil1" cx="591224" cy="646073" r="64528"/>
   <circle class="fil2" cx="591224" cy="646073" r="37827"/>
   <path class="fil4" d="M924559 435717c4518,-2631 11668,1292 15957,8689 4272,7415 4079,15554 -440,18176l-79999 46186c-4519,2622 -11668,-1283 -15958,-8689 -4280,-7415 -4079,-15554 440,-18176l80000 -46186z"/>
   <path class="fil4" d="M985081 630564c5224,-9 9459,6948 9468,15509 0,8561 -4244,15508 -9459,15518l-92383 0c-5224,9 -9468,-6948 -9468,-15509 0,-8552 4235,-15509 9468,-15518l92374 0z"/>
   <path class="fil4" d="M940067 829573c4537,2603 4721,10751 449,18157 -4289,7416 -11430,11311 -15957,8708l-80000 -46187c-4528,-2603 -4720,-10751 -449,-18157 4280,-7415 11421,-11311 15958,-8717l79999 46196z"/>
   <path class="fil4" d="M774725 297230c2603,-4537 10751,-4720 18157,-449 7415,4289 11311,11430 8708,15958l-46187 79999c-2603,4528 -10752,4720 -18158,449 -7415,-4280 -11310,-11420 -8716,-15958l46196 -79999z"/>
   <path class="fil4" d="M575716 252216c-9,-5224 6947,-9459 15508,-9468 8561,0 15509,4244 15518,9459l0 92383c9,5224 -6948,9468 -15508,9468 -8552,0 -15509,-4234 -15518,-9468l0 -92374z"/>
   <path class="fil4" d="M160641 858592c-12219,0 -24052,-6407 -26187,-22896l-31815 0c3685,32786 29487,46562 57424,46562 29294,0 55875,-14546 55875,-43455 0,-12997 -7956,-27745 -21925,-33373 9890,-5619 19597,-17259 19597,-32007 0,-25609 -26581,-36663 -51411,-36663 -28332,0 -54711,12410 -57818,43262l31622 0c2135,-14940 12612,-19596 24638,-19596 10476,0 20760,5435 20760,15710 0,12420 -11054,18433 -29486,18433l-8341 0 0 26388 9312 0c18039,0 30266,5628 30266,18038 0,12998 -8543,19597 -22511,19597zm132501 23666c39386,0 60146,-28130 60146,-73134 0,-44821 -20760,-72364 -60146,-72364 -39569,0 -60330,27543 -60330,72364 0,45004 20761,73134 60330,73134zm0 -23666c-16489,0 -27543,-15325 -27543,-49468 0,-33950 11054,-48698 27543,-48698 16297,0 27360,14748 27360,48698 0,34143 -11063,49468 -27360,49468z"/>
  </g>
 </g>
</svg>
