<?xml version="1.0" encoding="utf-8"?>
<!-- Generator: Adobe Illustrator 21.1.0, SVG Export Plug-In . SVG Version: 6.00 Build 0)  -->
<svg version="1.1" id="Слой_1" xmlns="http://www.w3.org/2000/svg" xmlns:xlink="http://www.w3.org/1999/xlink" x="0px" y="0px"
	 viewBox="0 0 99 124" style="enable-background:new 0 0 99 124;" xml:space="preserve">
<style type="text/css">
	.st0{fill:#DDDDDD;}
	.st1{fill:#FAD385;}
</style>
<g id="Слой_x0020_1">
	<polygon class="st0" points="4.125,4.251 84.561,4.251 84.561,29.729 67.902,14.563 68.053,40.547 84.561,109.437 4.125,109.437 	
		"/>
	<polygon class="st1" points="14.438,14.563 66,14.563 68.053,40.547 94.875,42.803 94.875,119.749 14.438,119.749 	"/>
	<g id="_1277669920">
		<g>
			<path d="M80.437,51.687H28.875c-1.138,0-2.062,0.922-2.062,2.062c0,1.14,0.924,2.063,2.062,2.063h51.562
				c1.139,0,2.062-0.923,2.062-2.063C82.499,52.609,81.576,51.687,80.437,51.687z"/>
			<path d="M28.875,39.312H49.5c1.138,0,2.062-0.922,2.062-2.062c0-1.14-0.924-2.062-2.062-2.062H28.875
				c-1.138,0-2.062,0.922-2.062,2.062C26.812,38.391,27.736,39.312,28.875,39.312z"/>
			<path d="M80.437,68.187H28.875c-1.138,0-2.062,0.923-2.062,2.063c0,1.141,0.924,2.062,2.062,2.062h51.562
				c1.139,0,2.062-0.922,2.062-2.062C82.499,69.11,81.576,68.187,80.437,68.187z"/>
			<path d="M80.437,84.688H28.875c-1.138,0-2.062,0.922-2.062,2.062c0,1.14,0.924,2.062,2.062,2.062h51.562
				c1.139,0,2.062-0.922,2.062-2.062C82.499,85.609,81.576,84.688,80.437,84.688z"/>
			<path d="M80.437,101.187H28.875c-1.138,0-2.062,0.922-2.062,2.062c0,1.141,0.924,2.062,2.062,2.062h51.562
				c1.139,0,2.062-0.922,2.062-2.062C82.499,102.109,81.576,101.187,80.437,101.187z"/>
			<path d="M88.687,30.208V0.125H0v113.437h10.313v10.313H99V40.521L88.687,30.208z M70.124,17.479l18.563,18.562l3.271,3.271
				H70.124V17.479z M4.126,109.438V4.251h80.437v21.833L68.917,10.438H10.313v99H4.126z M14.437,119.749v-6.187v-99H66v28.876
				h28.875v76.311H14.437z"/>
		</g>
	</g>
</g>
</svg>
