<?xml version="1.0" encoding="utf-8"?>
<!-- Generator: Adobe Illustrator 21.1.0, SVG Export Plug-In . SVG Version: 6.00 Build 0)  -->
<svg version="1.1" id="Слой_1" xmlns="http://www.w3.org/2000/svg" xmlns:xlink="http://www.w3.org/1999/xlink" x="0px" y="0px"
	 viewBox="0 0 134 134" style="enable-background:new 0 0 134 134;" xml:space="preserve">
<style type="text/css">
	.st0{fill:#2B2A29;}
	.st1{fill:#FAD385;}
	.st2{fill:#DDDDDD;}
	.st3{fill:#FEFEFE;}
</style>
<g id="Слой_x0020_1">
	<g id="_1277677216">
		<path class="st0" d="M60.793,134C27.4,134,0.329,106.929,0.329,73.536S27.4,13.072,60.793,13.072s60.464,27.071,60.464,60.464
			S94.186,134,60.793,134z"/>
		<path class="st1" d="M60.793,130.011c31.191,0,56.475-25.284,56.475-56.475c0-31.191-25.284-56.475-56.475-56.475
			c-31.191,0-56.475,25.284-56.475,56.475C4.318,104.728,29.602,130.011,60.793,130.011z"/>
		<path class="st2" d="M4.848,81.277l39.546-26.151l3.272,0.935l28.987,43.714v3.195l-35.012,23.709
			C22.214,119.677,7.733,102.326,4.848,81.277z"/>
		<path d="M132.077,56.868c-1.377-2.078-3.463-3.509-5.889-4.052c1.564-2.993,1.501-6.726-0.494-9.736
			c-1.417-2.142-3.555-3.525-5.884-4.049c0.415-0.792,0.721-1.647,0.906-2.548c0.508-2.507,0.011-5.061-1.401-7.193
			c-1.377-2.079-3.463-3.51-5.889-4.054c1.564-2.992,1.502-6.726-0.492-9.737c-2.914-4.4-8.867-5.61-13.268-2.695l-9.531,6.313
			l-4.008,2.652l-6.306,4.177L78.58,22.6c-0.519-1.395-1.113-2.764-1.772-4.103l-2.765-4.827c-1.772-2.691-3.833-5.193-6.14-7.429
			L63.962,2.42c-2.888-2.799-7.417-3.22-10.769-0.998c-3.965,2.626-5.055,7.989-2.429,11.956c0.104,0.157,0.204,0.316,0.305,0.472
			l1.974,3.825c2.003,4.853,2.484,10.277,1.286,15.444l-5.032,21.743c-0.79-0.845-1.818-1.427-2.975-1.662
			c-1.475-0.3-2.977-0.008-4.229,0.822L1.523,80.888c0.049,0.432,0.105,0.864,0.165,1.294c0.144,1.046,0.317,2.086,0.515,3.118
			l25.214-16.647l0.984-0.648l2.369,3.535c0.398,0.594,1.051,0.915,1.715,0.915c0.396,0,0.795-0.114,1.147-0.351
			c0.947-0.635,1.202-1.917,0.565-2.864l-2.352-3.509l12.528-8.268c0.333-0.223,0.734-0.3,1.126-0.219
			c0.392,0.08,0.733,0.309,0.954,0.643l27.813,41.998c0.22,0.332,0.299,0.733,0.218,1.125l0,0c-0.08,0.393-0.309,0.733-0.644,0.954
			h0.002l-12.26,8.119L38.83,76.151c-0.634-0.946-1.917-1.199-2.863-0.563c-0.947,0.634-1.199,1.915-0.565,2.863l22.738,33.911
			l-17.499,11.59H40.64l-4.048,2.679c1.134,0.557,2.29,1.08,3.465,1.568c0.339,0.141,0.681,0.278,1.024,0.412l30.064-19.91
			l0.005-0.004l4.971-3.291h0.001c1.253-0.83,2.109-2.098,2.409-3.572c0.299-1.475,0.008-2.977-0.822-4.23l-0.185-0.279l2.712-1.795
			c1.934-1.282,4.26-1.785,6.551-1.416c3.317,0.533,6.685-0.197,9.485-2.051l20.215-13.387l0,0l6.557-4.342l6.338-4.197
			c2.131-1.411,3.587-3.569,4.096-6.075C133.985,61.556,133.487,59.002,132.077,56.868z M86.127,21.768L86.127,21.768z
			 M129.431,63.239c-0.29,1.427-1.118,2.655-2.331,3.457l-7.245,4.797c-0.001,0.001-0.004,0.004-0.006,0.005L93.991,88.623
			c-1.933,1.28-4.26,1.783-6.551,1.415c-3.316-0.532-6.684,0.197-9.485,2.052l-2.711,1.795l-22.78-34.398l5.889-25.437
			c1.516-6.551,0.717-13.454-2.172-19.467c-0.026-0.064-0.054-0.124-0.086-0.184c-0.555-1.137-1.185-2.239-1.89-3.303
			c-1.369-2.066-0.8-4.864,1.269-6.234c1.748-1.158,4.11-0.939,5.614,0.52l3.944,3.824c4.263,4.135,7.612,9.264,9.677,14.832
			l2.146,5.783c0.005,0.012,0.008,0.021,0.013,0.032c0.005,0.012,0.011,0.026,0.015,0.039c0.015,0.037,0.029,0.068,0.045,0.097
			c0.042,0.087,0.088,0.173,0.143,0.254c0.63,0.951,1.911,1.211,2.86,0.582l22.015-14.578c2.503-1.659,5.89-0.971,7.546,1.533
			c1.659,2.503,0.971,5.89-1.531,7.548l-1.912,1.266c0,0-0.002,0-0.002,0.001l-4.263,2.823c-0.006,0.005-0.011,0.008-0.015,0.012
			c-0.025,0.018-0.048,0.033-0.067,0.049c-0.882,0.647-1.11,1.879-0.498,2.8c0.629,0.951,1.911,1.211,2.861,0.581l4.267-2.826
			c1.21-0.801,2.662-1.084,4.088-0.794c1.425,0.29,2.653,1.117,3.455,2.331c0.803,1.212,1.087,2.665,0.798,4.09
			c-0.29,1.427-1.118,2.653-2.331,3.456l-6.176,4.091c-0.949,0.629-1.21,1.91-0.581,2.859c0.397,0.601,1.054,0.926,1.722,0.926
			c0.391,0,0.788-0.112,1.138-0.344l0.956-0.633l3.308-2.191c2.505-1.658,5.889-0.971,7.546,1.534
			c1.659,2.504,0.972,5.889-1.533,7.549l-3.084,2.043c-0.018,0.009-0.033,0.022-0.049,0.033l-3.043,2.014
			c-0.951,0.629-1.211,1.91-0.581,2.86c0.397,0.6,1.053,0.924,1.722,0.924c0.391,0,0.787-0.11,1.138-0.342l0.955-0.633
			c0,0,0-0.002,0.001-0.002l3.308-2.189c1.212-0.803,2.665-1.087,4.091-0.796c1.425,0.289,2.653,1.117,3.456,2.329
			c0.802,1.212,1.085,2.666,0.795,4.091V63.239z"/>
		<path class="st3" d="M129.43,63.24c-0.29,1.427-1.118,2.655-2.331,3.457l-7.245,4.797c-0.001,0.001-0.004,0.003-0.006,0.005
			L93.989,88.624c-1.933,1.28-4.26,1.783-6.551,1.415c-3.316-0.533-6.684,0.197-9.485,2.052l-2.711,1.795l-22.78-34.398
			l5.889-25.437c1.516-6.551,0.717-13.454-2.172-19.467c-0.026-0.064-0.054-0.124-0.086-0.184c-0.555-1.137-1.185-2.239-1.89-3.303
			c-1.369-2.066-0.8-4.864,1.269-6.234c1.748-1.158,4.11-0.939,5.614,0.519l3.944,3.824c4.263,4.135,7.612,9.264,9.677,14.832
			l2.146,5.783c0.005,0.012,0.008,0.021,0.013,0.032c0.005,0.012,0.011,0.026,0.015,0.039c0.015,0.037,0.029,0.068,0.045,0.097
			c0.042,0.087,0.088,0.173,0.143,0.254c0.63,0.951,1.911,1.211,2.86,0.582l22.015-14.578c2.503-1.659,5.89-0.971,7.546,1.533
			c1.659,2.503,0.971,5.89-1.531,7.548l-1.912,1.266c0,0-0.002,0-0.002,0.001l-4.263,2.822c-0.006,0.005-0.011,0.008-0.015,0.012
			c-0.025,0.018-0.048,0.033-0.067,0.049c-0.882,0.647-1.11,1.879-0.498,2.8c0.629,0.951,1.911,1.211,2.861,0.581l4.267-2.826
			c1.21-0.801,2.662-1.084,4.088-0.794c1.425,0.29,2.653,1.117,3.455,2.331c0.803,1.212,1.087,2.665,0.798,4.09
			c-0.29,1.427-1.118,2.653-2.331,3.456l-6.176,4.091c-0.949,0.629-1.21,1.91-0.581,2.859c0.397,0.601,1.054,0.926,1.722,0.926
			c0.391,0,0.788-0.112,1.138-0.344l0.957-0.633l3.308-2.191c2.504-1.657,5.889-0.971,7.546,1.534
			c1.659,2.505,0.972,5.889-1.533,7.549l-3.084,2.043c-0.018,0.009-0.033,0.022-0.049,0.033l-3.043,2.014
			c-0.951,0.629-1.211,1.91-0.581,2.86c0.397,0.6,1.053,0.924,1.722,0.924c0.391,0,0.787-0.11,1.138-0.342l0.955-0.633
			c0,0,0-0.002,0.001-0.002l3.308-2.189c1.212-0.803,2.665-1.087,4.091-0.796c1.425,0.289,2.653,1.117,3.456,2.329
			c0.802,1.212,1.085,2.666,0.795,4.091V63.24z"/>
	</g>
</g>
</svg>
