<?xml version="1.0" encoding="utf-8"?>
<!-- Generator: Adobe Illustrator 21.1.0, SVG Export Plug-In . SVG Version: 6.00 Build 0)  -->
<svg version="1.1" id="Слой_1" xmlns="http://www.w3.org/2000/svg" xmlns:xlink="http://www.w3.org/1999/xlink" x="0px" y="0px"
	 viewBox="0 0 116 100" style="enable-background:new 0 0 116 100;" xml:space="preserve">
<style type="text/css">
	.st0{fill:#1F1F1F;}
</style>
<g id="Слой_x0020_1">
	<g id="_1277691072">
		<path class="st0" d="M115.634,9.675l-2.789-6.693c-0.741-1.776-2.462-2.924-4.385-2.924c-0.629,0-1.242,0.124-1.825,0.367
			l-2.114,0.881c-1.675,0.697-2.751,2.247-2.905,3.966L50.42,26.612l-3.526-8.461c1.57-1.297,2.186-3.516,1.363-5.492l-0.881-2.113
			c-1.018-2.441-3.802-3.561-6.212-2.557L8.213,21.723c-1.172,0.487-2.082,1.402-2.566,2.575c-0.886,2.152-0.005,3.603,0.891,5.749
			c0.807,1.94,2.777,3.11,4.858,2.899l11.589,27.804c-1.57,1.297-2.186,3.517-1.363,5.493l0.88,2.112
			c1.017,2.441,3.804,3.559,6.213,2.557l32.951-13.735c1.172-0.488,2.082-1.403,2.565-2.575c0.886-2.152,0.006-3.601-0.888-5.749
			c-0.808-1.941-2.78-3.109-4.86-2.9l-3.528-8.46l11.515-4.798l9.824-4.094l0.04-0.018l0.04-0.018l7.197-2.999l0.04-0.017
			l10.077-4.2l12.527-5.219c1.312,1.024,3.123,1.317,4.751,0.637l2.112-0.881C115.494,14.879,116.642,12.093,115.634,9.675z
			 M75.027,25.447l-0.04,0.017l-8.306,3.462l-13.033,5.433c-0.713-1.712-1.208-2.9-1.921-4.609l50.696-21.131l1.921,4.609
			l-11.019,4.593l-11.019,4.594L75.027,25.447z M9.671,28.741l-0.88-2.113c-0.288-0.688,0.035-1.482,0.728-1.77
			C44.785,10.159,42.593,11.02,42.988,11.02c0.549,0,1.039,0.326,1.249,0.833l0.882,2.112c0.287,0.689-0.04,1.483-0.729,1.769
			c-0.15,0.063-32.498,13.545-32.951,13.734C10.743,29.759,9.957,29.426,9.671,28.741z M60.205,50.161l0.881,2.112
			c0.288,0.69-0.038,1.481-0.728,1.769C25.081,68.745,27.283,67.88,26.886,67.88c-0.547,0-1.037-0.327-1.248-0.834l-0.881-2.112
			c-0.287-0.689,0.04-1.482,0.728-1.769c0.073-0.031,0.222-0.092,0.295-0.123l32.362-13.489
			C59.085,49.058,59.914,49.459,60.205,50.161z M55.266,47.072L26.04,59.254L14.609,31.828l29.227-12.181L55.266,47.072z
			 M111.77,12.75l-2.113,0.882c-0.697,0.29-1.484-0.047-1.77-0.729c-2.902-6.969-2.811-6.719-2.866-6.945
			c-0.125-0.61,0.189-1.259,0.805-1.515c2.328-0.97,2.286-0.986,2.633-0.986c0.546,0,1.038,0.328,1.249,0.833l2.788,6.692
			C112.786,11.67,112.459,12.463,111.77,12.75z"/>
		<path class="st0" d="M72.64,83.7h-1.616c0.193-0.737,0.155-0.991,0.155-3.299c0-2.509-2.042-4.553-4.553-4.553H12.652
			c-2.512,0-4.553,2.041-4.553,4.553c0,2.349-0.039,2.566,0.155,3.298L6.636,83.7C2.977,83.7,0,86.677,0,90.337v7.906
			c0,0.938,0.76,1.699,1.699,1.699H23.42h12.255h0.044h7.84h0.044h7.445h26.531c0.94,0,1.7-0.761,1.7-1.699v-7.906
			C79.276,86.677,76.3,83.7,72.64,83.7z M35.718,96.544h-0.044H23.42H3.397v-6.207c0-1.787,1.454-3.24,3.24-3.24
			c1.671,0,64.161,0,66.004,0c1.787,0,3.239,1.452,3.239,3.24v6.207H51.046h-7.445h-0.044H35.718z M67.782,82.544
			c0,0.637-0.518,1.156-1.156,1.156H12.652c-0.637,0-1.156-0.519-1.156-1.156v-2.143c0-0.637,0.519-1.155,1.156-1.155h53.973
			c0.638,0,1.156,0.518,1.156,1.155V82.544z"/>
	</g>
</g>
</svg>
