<?xml version="1.0" encoding="utf-8"?>
<!-- Generator: Adobe Illustrator 21.1.0, SVG Export Plug-In . SVG Version: 6.00 Build 0)  -->
<svg version="1.1" id="Слой_1" xmlns="http://www.w3.org/2000/svg" xmlns:xlink="http://www.w3.org/1999/xlink" x="0px" y="0px"
	 viewBox="0 0 2133 2478" style="enable-background:new 0 0 2133 2478;" xml:space="preserve">
<style type="text/css">
	.st0{fill:#1F1F1F;}
	.st1{fill:#FFFFFF;}
	.st2{fill:#FAD385;}
</style>
<g id="Слой_x0020_1">
	<g id="_1630022416">
		<polygon class="st0" points="0,2477.719 2133,2477.719 2133,0.281 0,0.281 		"/>
		<path class="st1" d="M537.154,1977.241c0,17.269,5.786,28.204,17.084,28.204c11.202,0,16.802-10.935,16.802-28.204
			c0-17.068-5.6-27.838-16.802-27.838C543.04,1949.403,537.154,1959.989,537.154,1977.241z M573.044,1952.937
			c5.5,5.869,8.483,14.101,8.483,24.305c0,10.035-2.883,18.251-8.582,24.504c-4.787,5.416-11.836,8.216-18.706,8.216
			c-6.866,0-14.185-2.8-18.984-8.216c-5.05-5.786-7.949-13.201-8.316-22.604h-11.469v24.487l8.133,2.266v3.166h-25.3v-3.166
			l8.132-2.266v-52.409l-8.132-2.266v-3.166h25.3v3.166l-8.133,2.266v23.322h11.569c0.45-8.953,3.166-16.186,8.132-21.605
			c5.066-5.432,12.103-8.049,19.068-8.049C561.108,1944.887,567.974,1947.504,573.044,1952.937L573.044,1952.937z"/>
		<path class="st1" d="M618.5,1950.32h-8.503v26.838c8.953,0.984,21.051-2.166,21.051-14.551
			C631.048,1954.74,624.732,1950.32,618.5,1950.32z M619.933,2005.895v3.166h-27.104v-3.166l8.132-2.266v-52.409l-8.132-2.266
			v-3.166h27.387c10.833,0,19.868,5.249,19.868,16.819c0,13.018-12.102,19.251-23.771,19.251c-2.167,0-4.232-0.1-6.316-0.45v22.221
			L619.933,2005.895L619.933,2005.895z"/>
		<polygon class="st1" points="697.241,1954.39 697.241,1951.219 689.105,1948.953 689.105,1945.787 714.427,1945.787 
			714.427,1948.953 706.29,1951.219 706.29,2003.629 714.427,2005.895 714.427,2009.061 689.105,2009.061 689.105,2005.895 
			697.241,2003.629 697.241,1962.239 667.155,2001.745 667.155,2003.629 675.286,2005.895 675.286,2009.061 649.986,2009.061 
			649.986,2005.895 658.118,2003.629 658.118,1951.219 649.986,1948.953 649.986,1945.787 675.286,1945.787 675.286,1948.953 
			667.155,1951.219 667.155,1993.509 		"/>
		<path class="st1" d="M764.997,2004.545v-54.225H744.58c0,29.004-2.167,45.172-9.936,54.225H764.997z M728.228,2004.545
			c7.949-8.953,10.932-23.505,10.932-53.326l-9.948-2.266v-3.166h52.97v3.166l-8.132,2.266v53.326h9.032v19.868h-3.616
			l-5.416-15.352h-42.939l-4.516,15.352h-3.62v-19.868H728.228z"/>
		<polygon class="st1" points="842.057,1954.39 842.057,1951.219 833.924,1948.953 833.924,1945.787 859.241,1945.787 
			859.241,1948.953 851.108,1951.219 851.108,2003.629 859.241,2005.895 859.241,2009.061 833.924,2009.061 833.924,2005.895 
			842.057,2003.629 842.057,1962.239 811.969,2001.745 811.969,2003.629 820.106,2005.895 820.106,2009.061 794.801,2009.061 
			794.801,2005.895 802.938,2003.629 802.938,1951.219 794.801,1948.953 794.801,1945.787 820.106,1945.787 820.106,1948.953 
			811.969,1951.219 811.969,1993.509 		"/>
		<path class="st1" d="M910.817,1979.507c-5.788,2.533-11.386,3.433-16.003,3.433c-11.835,0-19.238-7.149-19.238-16.901l-0.1-14.819
			l-8.132-2.266v-3.166h24.484v3.166l-7.215,2.266v14.102c0,5.42,0.983,12.369,12.369,12.369c3.616,0,8.765-0.799,13.836-2.167
			v-24.304l-7.237-2.266v-3.166h24.504v3.166l-8.136,2.266v52.409l8.136,2.266v3.166H900.88v-3.166l9.936-2.266V1979.507z"/>
		<polygon class="st1" points="971.973,1978.607 958.771,1978.607 958.771,2004.545 983.172,2004.545 988.592,1994.592 
			993.108,1994.592 991.125,2009.061 941.603,2009.061 941.603,2005.895 949.735,2003.629 949.735,1951.219 941.603,1948.953 
			941.603,1945.787 989.775,1945.787 991.308,1959.356 986.792,1959.356 982.272,1950.32 958.771,1950.32 958.771,1974.075 
			972.057,1974.075 974.223,1966.039 977.389,1966.039 977.389,1986.644 974.223,1986.644 		"/>
		<path class="st1" d="M1003.926,1977.791c0-20.069,15.269-32.904,31.538-32.904c6.599,0,13.752,1.717,16.367,3.166v13.552h-4.516
			l-4.519-10.836c-3.167-0.916-6.599-1.366-8.682-1.366c-10.937,0-20.872,9.137-20.872,27.488c0,15.985,10.835,28.553,21.771,28.553
			c3.532,0,5.149-0.45,7.782-1.35l4.519-11.752h4.516v13.552c-4.882,3.166-14.918,4.066-17.717,4.066
			C1017.945,2009.961,1003.926,2000.112,1003.926,1977.791L1003.926,1977.791z"/>
		<polygon class="st1" points="1096.153,1976.974 1113.589,2003.629 1121.725,2005.895 1121.725,2009.061 1106.823,2009.061 
			1087.301,1979.24 1080.702,1979.24 1080.702,2003.629 1088.834,2005.895 1088.834,2009.061 1063.534,2009.061 1063.534,2005.895 
			1071.666,2003.629 1071.666,1951.219 1063.534,1948.953 1063.534,1945.787 1088.834,1945.787 1088.834,1948.953 
			1080.702,1951.219 1080.702,1974.708 1091.455,1974.708 1104.369,1951.219 1098.054,1948.953 1098.054,1945.787 
			1118.472,1945.787 1118.472,1948.953 1110.339,1951.219 		"/>
		<polygon class="st1" points="1178.912,1954.39 1178.912,1951.219 1170.779,1948.953 1170.779,1945.787 1196.097,1945.787 
			1196.097,1948.953 1187.965,1951.219 1187.965,2003.629 1196.097,2005.895 1196.097,2009.061 1170.779,2009.061 
			1170.779,2005.895 1178.912,2003.629 1178.912,1962.239 1148.825,2001.745 1148.825,2003.629 1156.961,2005.895 
			1156.961,2009.061 1131.657,2009.061 1131.657,2005.895 1139.793,2003.629 1139.793,1951.219 1131.657,1948.953 
			1131.657,1945.787 1156.961,1945.787 1156.961,1948.953 1148.825,1951.219 1148.825,1993.509 		"/>
		<path class="st1" d="M1250.288,1925.104l7.67,2.083c-1.887,7.398-8.586,11.835-15.269,11.835c-6.769,0-13.018-3.886-15.085-11.835
			c5.966-2.266,7.049-2.35,7.499-2.083v6.866c2.25,2.082,4.7,2.532,7.586,2.532c2.9,0,5.066-0.549,7.599-2.449V1925.104
			L1250.288,1925.104z M1256.87,1954.39v-3.171l-8.132-2.266v-3.166h25.321v3.166l-8.136,2.266v52.409l8.136,2.266v3.166h-25.321
			v-3.166l8.132-2.266v-41.39l-30.087,39.506v1.884l8.136,2.266v3.166h-25.305v-3.166l8.137-2.266v-52.409l-8.136-2.266v-3.166
			h25.305v3.166l-8.137,2.266v42.29L1256.87,1954.39z"/>
		<polygon class="st1" points="1376.985,2004.545 1376.985,2024.413 1373.203,2024.413 1367.769,2009.061 1312.828,2009.061 
			1312.828,2005.895 1320.965,2002.729 1320.965,1951.219 1312.828,1948.953 1312.828,1945.787 1338.133,1945.787 
			1338.133,1948.953 1329.996,1951.219 1329.996,2004.545 1359.1,2004.545 1359.184,1951.219 1351.051,1948.953 1351.051,1945.787 
			1376.352,1945.787 1376.352,1948.953 1368.219,1951.219 1368.219,2004.545 		"/>
		<polygon class="st1" points="1420.257,1978.607 1407.055,1978.607 1407.055,2004.545 1431.46,2004.545 1436.875,1994.592 
			1441.396,1994.592 1439.408,2009.061 1389.887,2009.061 1389.887,2005.895 1398.023,2003.629 1398.023,1951.219 
			1389.887,1948.953 1389.887,1945.787 1438.058,1945.787 1439.591,1959.356 1435.076,1959.356 1430.56,1950.32 1407.055,1950.32 
			1407.055,1974.075 1420.34,1974.075 1422.507,1966.039 1425.678,1966.039 1425.678,1986.644 1422.507,1986.644 		"/>
		<polygon class="st1" points="1498.749,1973.724 1498.749,1951.219 1490.618,1948.953 1490.618,1945.787 1515.201,1945.787 
			1515.201,1948.953 1507.069,1951.219 1507.069,2003.629 1515.201,2005.895 1515.201,2009.061 1490.618,2009.061 
			1490.618,2005.895 1498.749,2003.629 1498.749,1978.241 1468.662,1978.241 1468.662,2003.629 1476.798,2005.895 
			1476.798,2009.061 1452.211,2009.061 1452.211,2005.895 1460.347,2003.629 1460.347,1951.219 1452.211,1948.953 
			1452.211,1945.787 1476.798,1945.787 1476.798,1948.953 1468.662,1951.219 1468.662,1973.724 		"/>
		<polygon class="st1" points="1533.256,1950.32 1528.72,1959.256 1524.203,1959.256 1525.653,1945.787 1577.074,1945.787 
			1578.428,1959.256 1573.908,1959.256 1569.392,1950.32 1556.107,1950.32 1556.107,2003.629 1564.243,2005.895 1564.243,2009.061 
			1538.938,2009.061 1538.938,2005.895 1547.07,2003.629 1547.07,1950.32 		"/>
		<path class="st1" d="M1613.114,1950.32h-8.503v26.838c8.953,0.984,21.055-2.166,21.055-14.551
			C1625.666,1954.74,1619.347,1950.32,1613.114,1950.32z M1614.548,2005.895v3.166h-27.104v-3.166l8.136-2.266v-52.409l-8.136-2.266
			v-3.166h27.388c10.835,0,19.868,5.249,19.868,16.819c0,13.018-12.102,19.251-23.767,19.251c-2.167,0-4.237-0.1-6.32-0.45v22.221
			L1614.548,2005.895L1614.548,2005.895z"/>
		<path class="st1" d="M778.149,1718.494c0,22.472-14.901,35.17-37.618,40.79c25.883,5.132,46.405,19.784,46.405,43.739
			c0,33.219-28.571,51.055-60.824,51.055c-23.705,0-35.19-2.45-54.475-11.003v-36.636h12.202l12.219,31.27
			c9.032,3.166,15.151,4.15,27.367,4.15c19.789,0,38.356-13.435,38.356-38.836c0-25.422-20.285-35.19-41.789-35.923H707.29v-11.97
			h7.586c22.467,0,37.852-14.164,37.852-36.635c0-16.369-14.902-28.104-28.337-28.104c-9.515,0-12.448,0-18.068,3.183
			l-12.702,29.804h-12.215v-36.653c13.686-4.633,27.6-8.552,45.189-8.552C760.798,1678.171,778.149,1695.043,778.149,1718.494
			L778.149,1718.494z"/>
		<polygon class="st1" points="944.27,1756.117 944.27,1695.277 922.281,1689.174 922.281,1680.625 988.725,1680.625 
			988.725,1689.174 966.737,1695.277 966.737,1836.975 988.725,1843.075 988.725,1851.627 922.281,1851.627 922.281,1843.075 
			944.27,1836.975 944.27,1768.315 862.912,1768.315 862.912,1836.975 884.896,1843.075 884.896,1851.627 818.456,1851.627 
			818.456,1843.075 840.44,1836.975 840.44,1695.277 818.456,1689.174 818.456,1680.625 884.896,1680.625 884.896,1689.174 
			862.912,1695.277 862.912,1756.117 		"/>
		<path class="st1" d="M1052.498,1789.087h52.037l-26.633-71.326L1052.498,1789.087z M1108.939,1801.302h-60.59l-12.702,35.673
			l21.984,6.099v8.552h-53.255v-8.552l17.102-6.099l57.408-160.02h9.765l60.84,160.02l17.107,6.099v8.552h-64.994v-8.552
			l20.771-6.099L1108.939,1801.302L1108.939,1801.302z"/>
		<polygon class="st1" points="1184.666,1692.839 1172.463,1717.027 1160.244,1717.027 1164.144,1680.625 1303.159,1680.625 
			1306.829,1717.027 1294.61,1717.027 1282.391,1692.839 1246.489,1692.839 1246.489,1836.975 1268.473,1843.075 1268.473,1851.627 
			1200.067,1851.627 1200.067,1843.075 1222.051,1836.975 1222.051,1692.839 		"/>
		<path class="st1" d="M1407.472,1765.399h-29.071v74.009h28.588c20.522,0,38.356-10.985,38.356-36.385
			C1445.345,1778.585,1427.76,1765.399,1407.472,1765.399L1407.472,1765.399z M1400.39,1689.174l-21.989,6.103v57.903h33.474
			c42.018,0,58.636,26.138,58.636,49.843c0,33.219-31.036,48.604-63.523,48.604h-75.976v-8.552l21.988-6.099v-141.698l-21.988-6.103
			v-8.549h69.377V1689.174L1400.39,1689.174z"/>
		<path class="st2" d="M1079.494,1049.541c-0.946,0.467-1.938,0.849-3.725,1.62c0-7.349,0-13.86,0-20.372
			c0-70.451,0.041-140.907-0.104-211.363c-0.008-4.12,1.454-6.569,4.916-8.732c20.837-13.035,43.326-22.521,67.155-29.445
			c17.823-5.178,35.928-8.987,54.371-11.024c14.569-1.607,29.28-2.029,43.927-3.033c2.579-0.18,3.616,0.771,3.408,3.179
			c-0.096,1.058-0.005,2.129-0.005,3.196c0.005,76.317,0.005,152.63,0,228.943c0,6.082-0.012,6.115-6.294,6.19
			c-21.305,0.262-42.498,2.045-63.411,5.765c-24.288,4.321-48.118,10.487-70.602,20.497
			C1099.066,1039.441,1089.371,1044.662,1079.494,1049.541L1079.494,1049.541z M1059.093,819.539
			c-0.475,3.532-0.096,7.165-0.096,10.752c0,71.251,0,142.507,0,213.754c0,2.182,0,4.361,0,7.628
			c-4.441-2.475-7.944-4.486-11.515-6.408c-23.459-12.606-48.475-21.422-74.697-27.024c-12.781-2.734-25.737-5.008-38.744-6.441
			c-14.985-1.65-30.104-2.217-45.176-3.075c-2.942-0.171-3.853-1.145-3.749-3.866c0.183-5.053,0.025-57.611,0.028-59.369
			c0.026-57.932,0.026-115.866,0.008-173.798c0-2.466-0.42-4.89,3.688-4.511c20.296,1.882,40.748,2.757,60.861,5.736
			c15.344,2.266,30.37,6.77,45.326,10.953c21.105,5.903,40.494,15.481,59.069,26.592
			C1057.609,812.561,1059.681,815.185,1059.093,819.539L1059.093,819.539z M1301.976,780.949h-18.709
			c-0.021,44.968-0.155,216.307-0.155,273.699c-59.266,0-117.768,0-176.272,0c50.042-23.897,103.505-31.195,158.909-30
			c0-44.284-0.054-237.771-0.054-272.653c-0.321-0.179-0.554-0.422-0.792-0.433c-30.736-1.02-61.327,0.666-91.377,6.861
			c-16.967,3.499-33.686,8.42-50.158,13.707c-18.63,5.978-36.12,14.485-52.164,25.429c-2.741,1.871-4.615,2.062-7.532,0.092
			c-5.882-3.979-12.01-7.695-18.347-10.983c-31.283-16.239-64.948-25.841-99.964-31.095c-24.222-3.637-48.696-4.807-73.235-4.091
			c-1.066,0.033-2.133,0.237-3.542,0.4c0,1.678,0,3.12,0,4.561c0,70.052-0.008,255.781,0.026,263.772
			c0.004,1.399,0.191,2.795,0.312,4.445c55.621-1.221,109.025,6.169,159.034,29.971c-58.349,0-116.698,0-175.578,0
			c0-16.423,0.142-208.047,0.133-273.712h-21.496c-0.005,69.452,0.333,271.095,0.333,296.795c2.146,0,3.95,0,5.758,0
			c62.156,0.005,124.318,0.029,186.474-0.058c3.154-0.008,5.004,0.837,6.795,3.37c17.536,24.7,54.313,24.766,72.181,0.133
			c1.891-2.612,3.865-3.52,7.173-3.512c62.441,0.099,124.877,0.074,187.317,0.079c1.599,0,3.195,0,4.783,0
			C1301.83,1012.592,1302.026,822.205,1301.976,780.949L1301.976,780.949z"/>
		<path class="st2" d="M1039.421,842.627c-1,0-2.004-0.296-2.874-0.9c-48.289-33.832-131.371-36.803-132.2-36.828
			c-2.678-0.079-4.786-2.217-4.695-4.77c0.087-2.55,2.691-4.567,5.008-4.463c3.524,0.105,86.906,3.062,137.644,38.615
			c2.162,1.518,2.625,4.408,1.038,6.462C1042.383,841.977,1040.917,842.627,1039.421,842.627L1039.421,842.627z"/>
		<path class="st2" d="M1093.576,842.627c-1.496,0-2.966-0.651-3.921-1.884c-1.587-2.054-1.129-4.944,1.037-6.462
			c50.743-35.553,134.125-38.51,137.65-38.615c2.357-0.274,4.916,1.913,5.007,4.463c0.087,2.553-2.016,4.691-4.695,4.77
			c-0.833,0.025-83.911,2.996-132.208,36.828C1095.58,842.331,1094.575,842.627,1093.576,842.627L1093.576,842.627z"/>
		<path class="st2" d="M1039.421,876.78c-1,0-2.004-0.295-2.874-0.9c-48.289-33.836-131.371-36.802-132.2-36.827
			c-2.678-0.084-4.786-2.217-4.695-4.766c0.087-2.55,2.691-4.491,5.008-4.466c3.524,0.104,86.906,3.062,137.644,38.615
			c2.162,1.516,2.625,4.408,1.038,6.462C1042.383,876.125,1040.917,876.78,1039.421,876.78L1039.421,876.78z"/>
		<path class="st2" d="M1093.576,876.78c-1.496,0-2.966-0.654-3.921-1.882c-1.587-2.054-1.129-4.946,1.037-6.462
			c50.743-35.553,134.125-38.511,137.65-38.615c2.357-0.196,4.916,1.908,5.007,4.466c0.087,2.55-2.016,4.682-4.695,4.766
			c-0.833,0.025-83.911,2.991-132.208,36.827C1095.58,876.484,1094.575,876.78,1093.576,876.78L1093.576,876.78z"/>
		<path class="st2" d="M1039.421,910.929c-1,0-2.004-0.292-2.874-0.896c-48.289-33.832-131.371-36.802-132.2-36.828
			c-2.683-0.083-4.786-2.215-4.695-4.765c0.087-2.558,2.691-4.621,5.008-4.471c3.524,0.109,86.906,3.07,137.644,38.62
			c2.162,1.516,2.625,4.404,1.038,6.461C1042.383,910.279,1040.917,910.929,1039.421,910.929L1039.421,910.929z"/>
		<path class="st2" d="M1093.576,910.929c-1.496,0-2.966-0.651-3.921-1.88c-1.587-2.057-1.129-4.944,1.037-6.461
			c50.743-35.549,134.125-38.511,137.65-38.62c2.357-0.32,4.916,1.913,5.007,4.471c0.087,2.55-2.012,4.682-4.695,4.765
			c-0.833,0.026-83.911,2.996-132.208,36.828C1095.58,910.638,1094.575,910.929,1093.576,910.929L1093.576,910.929z"/>
		<path class="st2" d="M1039.421,945.081c-1,0-2.004-0.292-2.874-0.895c-48.289-33.832-131.371-36.803-132.2-36.832
			c-2.683-0.079-4.786-2.213-4.695-4.763c0.087-2.55,2.691-4.541,5.008-4.47c3.524,0.109,86.906,3.07,137.644,38.62
			c2.162,1.516,2.625,4.402,1.038,6.461C1042.383,944.432,1040.917,945.082,1039.421,945.081L1039.421,945.081z"/>
		<path class="st2" d="M1093.576,945.081c-1.496,0-2.966-0.65-3.921-1.879c-1.587-2.058-1.129-4.944,1.037-6.461
			c50.743-35.549,134.125-38.511,137.65-38.62c2.357-0.241,4.916,1.912,5.007,4.47c0.087,2.55-2.012,4.683-4.695,4.763
			c-0.833,0.028-83.911,2.999-132.208,36.832C1095.58,944.79,1094.575,945.081,1093.576,945.081L1093.576,945.081z"/>
		<path class="st2" d="M1039.421,979.235c-1,0-2.004-0.296-2.874-0.896c-48.289-33.827-131.371-36.802-132.2-36.832
			c-2.683-0.079-4.786-2.212-4.695-4.761c0.087-2.558,2.691-4.666,5.008-4.47c3.524,0.109,86.906,3.07,137.644,38.618
			c2.162,1.516,2.625,4.404,1.038,6.457C1042.383,978.585,1040.917,979.235,1039.421,979.235L1039.421,979.235z"/>
		<path class="st2" d="M1093.576,979.235c-1.496,0-2.966-0.65-3.921-1.884c-1.587-2.054-1.129-4.941,1.037-6.457
			c50.743-35.548,134.125-38.51,137.65-38.618c2.357-0.376,4.916,1.908,5.007,4.47c0.087,2.55-2.012,4.682-4.695,4.762
			c-0.833,0.029-83.911,3.004-132.208,36.832C1095.58,978.938,1094.575,979.235,1093.576,979.235L1093.576,979.235z"/>
		<path class="st2" d="M1039.421,1013.392c-1,0-2.004-0.292-2.874-0.9c-48.289-33.827-131.371-36.799-132.2-36.827
			c-2.678-0.079-4.786-2.217-4.695-4.763c0.087-2.553,2.691-4.59,5.008-4.465c3.524,0.104,86.906,3.062,137.644,38.61
			c2.162,1.521,2.625,4.412,1.038,6.462C1042.383,1012.742,1040.917,1013.392,1039.421,1013.392L1039.421,1013.392z"/>
		<path class="st2" d="M1093.576,1013.392c-1.496,0-2.966-0.65-3.921-1.882c-1.587-2.05-1.129-4.941,1.037-6.462
			c50.743-35.548,134.125-38.506,137.65-38.61c2.357-0.3,4.916,1.907,5.007,4.465c0.087,2.546-2.016,4.683-4.695,4.763
			c-0.833,0.028-83.911,3-132.208,36.827C1095.58,1013.1,1094.575,1013.391,1093.576,1013.392L1093.576,1013.392z"/>
		<path class="st2" d="M1112.896,1411.5c-10.169-7.398-19.838-14.427-29.508-21.458c-0.75,0.142-1.495,0.282-2.241,0.42
			c2.137,5.274,2.863,12.073,6.645,15.564c19.513,18.022,11.278,34.19-9.373,45.297c-6.262,3.362-11.915,7.941-19.872,2.325
			c-9.574-6.762-21.534-10.849-24.296-24.189c-1.866-9.002,3.916-14.751,8.965-21.183c3.84-4.891,5.844-11.22,8.666-16.911
			c-0.855-0.325-1.712-0.653-2.571-0.983c-9.707,6.932-19.413,13.864-29.57,21.117c-6.141-4.944-8.62-11.843-7.116-19.896
			c1.597-8.512,8.941-9.237,15.485-9.254c11.853-0.028,15.477-7.336,16.443-20.425c8.461,6.682,15.044,11.881,21.793,17.213
			c6.749-4.966,13.74-10.102,23.393-17.201c-1.505,16.819,6.665,19.838,18.347,20.98
			C1122.933,1384.371,1125.099,1396.786,1112.896,1411.5L1112.896,1411.5z"/>
		<path class="st2" d="M499.493,820.344c-1.803,12.539-4.132,23.837-4.923,35.235c-1.551,22.356-2.037,44.782-3.441,67.148
			c-0.376,5.936-2.483,11.769-3.817,17.756c7.812,5.495,16.647,3.799,23.129-4.7c7.662-10.04,8.758-22.013,9.228-33.824
			c0.688-17.135,0.446-34.307,0.384-51.462c-0.008-2.146-0.829-4.637-2.108-6.366C512.479,836.736,506.701,829.567,499.493,820.344
			L499.493,820.344z"/>
		<path class="st2" d="M1633.516,820.589c1.803,12.531,4.128,23.825,4.92,35.219c1.554,22.343,2.037,44.756,3.441,67.107
			c0.376,5.936,2.479,11.769,3.812,17.752c-7.807,5.49-16.639,3.795-23.118-4.695c-7.652-10.04-8.748-22.005-9.223-33.807
			c-0.687-17.127-0.442-34.287-0.384-51.434c0.008-2.146,0.829-4.636,2.108-6.365
			C1620.534,836.973,1626.312,829.809,1633.516,820.589L1633.516,820.589z"/>
		<path class="st2" d="M443.452,1173.75c15.265,5.674,30.712-0.404,35.953-16.427c3.229-9.861,4.737-20.575,5.111-30.974
			c0.85-23.704,0.649-47.455,0.517-71.184c-0.018-2.891-2.25-5.77-3.042-7.652c-9.989,5.74-18.322,10.527-27.55,15.83
			c0,18.597,0.354,38.631-0.137,58.646c-0.275,11.006-1.287,22.104-3.271,32.928C449.863,1161.319,446.155,1167.272,443.452,1173.75
			L443.452,1173.75z"/>
		<path class="st2" d="M1689.553,1173.812c-15.256,5.666-30.699-0.407-35.937-16.418c-3.224-9.856-4.737-20.567-5.111-30.961
			c-0.846-23.693-0.646-47.426-0.513-71.143c0.016-2.891,2.25-5.77,3.033-7.649c9.986,5.737,18.318,10.523,27.538,15.823
			c0,18.584-0.351,38.61,0.142,58.611c0.27,11.003,1.282,22.093,3.265,32.911
			C1683.141,1161.385,1686.848,1167.335,1689.553,1173.812L1689.553,1173.812z"/>
		<path class="st2" d="M493.294,1046.92c-2.345,37.11,3.57,73.625-5.549,109.508c8.69,4.849,16.685,2.841,23.118-5.928
			c7.098-9.669,8.47-21.055,8.757-32.286c0.746-29.212,0.675-58.446,0.888-87.665c0.004-0.379-0.529-0.763-1.208-1.676
			C513.704,1039.292,505.88,1046.503,493.294,1046.92L493.294,1046.92z"/>
		<path class="st2" d="M1639.711,1047.045c2.345,37.094-3.571,73.588,5.544,109.449c-8.682,4.85-16.677,2.838-23.105-5.92
			c-7.095-9.669-8.461-21.046-8.753-32.273c-0.742-29.196-0.671-58.412-0.887-87.621c0-0.379,0.529-0.762,1.208-1.67
			C1619.309,1039.421,1627.133,1046.628,1639.711,1047.045L1639.711,1047.045z"/>
		<path class="st2" d="M480.009,943.816c-6.569,4.799-10.861,8.94-15.993,11.36c-4.221,1.996-5.061,4.316-5.012,8.386
			c0.183,15.823,0.587,31.666-0.087,47.46c-0.559,12.981-3.558,25.559-12.303,36.024c15.332,8.69,32.329-0.555,36.291-12.586
			c3.095-9.402,5.445-19.347,6.057-29.175c1.05-16.83,1.104-33.791,0.133-50.617C488.866,950.714,482.888,947.077,480.009,943.816z"
			/>
		<path class="st2" d="M1653.008,943.994c6.571,4.796,10.861,8.937,15.985,11.357c4.225,1.991,5.063,4.312,5.012,8.382
			c-0.183,15.815-0.587,31.65,0.087,47.434c0.555,12.974,3.558,25.547,12.295,36.003c-15.323,8.687-32.312-0.554-36.27-12.577
			c-3.092-9.399-5.445-19.334-6.057-29.162c-1.046-16.819-1.101-33.771-0.125-50.585
			C1644.159,950.889,1650.134,947.257,1653.008,943.994L1653.008,943.994z"/>
		<path class="st2" d="M518.427,936.462c-10.498,13.631-11.219,14.061-25.262,15.344c-1.625,28.408,2.828,57.27-5.653,85.245
			c8.373,5.137,16.239,3.449,22.759-4.781c7.491-9.461,8.819-20.847,9.274-32.078c0.775-19.185,0.546-38.411,0.6-57.62
			C520.148,940.754,519.153,938.929,518.427,936.462L518.427,936.462z"/>
		<path class="st2" d="M1614.589,936.65c10.495,13.618,11.215,14.048,25.25,15.331c1.62,28.396-2.825,57.245,5.65,85.2
			c-8.37,5.137-16.232,3.449-22.747-4.779c-7.486-9.452-8.816-20.834-9.269-32.061c-0.775-19.177-0.546-38.39-0.596-57.591
			C1612.869,940.933,1613.869,939.115,1614.589,936.65z"/>
		<path class="st2" d="M512.074,1238.019c-3.954-7.736-7.623-14.914-11.293-22.091c13.872,13.501,28.624,1.487,44.397,3.208
			c-1.571,0.704-2.645,1.108-3.641,1.65c-1.167,0.638-2.325,1.312-3.383,2.104c-7.582,5.661-12.685,12.801-13.248,22.442
			c-0.455,7.832,3.207,12.877,10.411,14.777c9.645,2.545,18.251-0.201,21.105-5.429c-6.345-1.775-12.998-3.637-20.527-5.74
			c17.635-6.683,21.83-24.225,33.565-35.457c13.54,0.87,27.596,3.87,41.728-1.663c7.553,5.407,7.652,6.721,0.683,16.027
			c5.549,1.113,8.624-0.492,12.169-6.358c4.175-6.886,4.241-15.143-0.755-19.805c-9.544-8.911-20.501-8.77-33.903-2.504
			c6.704-10.657,12.14-19.78,18.068-28.579c4.916-7.303,10.59-14.189,4.42-23.75c-6.07-0.538-9.744,3.341-13.572,8.598
			c-8.232,11.311-16.76,22.542-26.338,32.736c-8.473,9.02-12.14,9.094-22.205,2.362c-7.202-4.819-13.89-10.589-20.03-16.697
			c-6.8-6.761-14.59-9.661-23.88-8.328c-2.665,0.384-5.683,1.996-7.491,3.97c-7.199,7.861-2.929,24.733,6.915,29.387
			c-0.333-4.407-1.004-8.953-0.92-13.485c0.079-4.466,0.929-8.924,2.158-13.577c-0.646,10.006,5.811,14.998,13.265,19.047
			c8.32,4.519,16.86,8.653,25.083,14.347c-6.644-0.9-13.277-2.457-19.926-2.52c-8.041-0.079-16.789-0.638-23.983,2.146
			c-11.861,4.578-13.336,15.535-4.763,24.992C500.626,1234.729,505.488,1239.294,512.074,1238.019L512.074,1238.019z"/>
		<path class="st2" d="M1620.938,1238.048c3.954-7.736,7.62-14.91,11.286-22.084c-13.86,13.494-28.608,1.483-44.368,3.204
			c1.567,0.704,2.642,1.109,3.637,1.65c1.167,0.633,2.32,1.313,3.383,2.104c7.578,5.658,12.677,12.794,13.239,22.429
			c0.453,7.828-3.207,12.87-10.406,14.769c-9.641,2.541-18.244-0.2-21.094-5.424c6.342-1.775,12.99-3.633,20.514-5.74
			c-17.626-6.675-21.818-24.209-33.544-35.436c-13.536,0.87-27.584,3.87-41.707-1.663c-7.553,5.404-7.645,6.716-0.687,16.018
			c-5.541,1.113-8.611-0.491-12.161-6.349c-4.17-6.886-4.232-15.139,0.758-19.797c9.536-8.911,20.489-8.769,33.883-2.504
			c-6.699-10.653-12.132-19.769-18.056-28.566c-4.915-7.299-10.586-14.182-4.42-23.738c6.066-0.534,9.74,3.344,13.565,8.594
			c8.227,11.307,16.751,22.531,26.325,32.724c8.469,9.012,12.132,9.091,22.192,2.358c7.199-4.82,13.885-10.586,20.018-16.69
			c6.795-6.757,14.582-9.652,23.871-8.323c2.667,0.384,5.674,1.996,7.487,3.97c7.194,7.853,2.924,24.721-6.912,29.37
			c0.329-4.404,1.005-8.949,0.921-13.478c-0.084-4.465-0.933-8.919-2.162-13.569c0.646,10.004-5.808,14.989-13.252,19.035
			c-8.319,4.516-16.852,8.644-25.071,14.339c6.637-0.895,13.269-2.453,19.914-2.52c8.036-0.074,16.781-0.633,23.971,2.146
			c11.852,4.578,13.322,15.531,4.757,24.98C1632.382,1234.757,1627.525,1239.319,1620.938,1238.048L1620.938,1238.048z"/>
		<path class="st2" d="M825.98,1197.718c-13.027-5.887-24.354-6.732-33.953,2.957c-5.188,5.237-4.575,11.795-1.605,17.944
			c2.579,5.337,5.9,10.202,14.165,9.365c-5.912-6.453-9.628-12.519-2.904-16.522c9.307,0.991,17.176,3.761,24.038,2.174
			c16.794-3.883,26.605,2.863,34.203,16.919c4.258,7.881,9.274,15.977,19.927,17.864c-6.97,1.925-13.944,3.849-20.784,5.737
			c2.074,5.198,10.781,8.132,20.766,5.645c7.291-1.821,11.736-8.153,10.79-15.581c-1.541-12.148-8.744-20.309-18.767-26.783
			c7.115,0.954,14.297,1.554,21.325,2.949c8.382,1.671,15.944,1.834,21.872-6.152c-3.849,7.578-7.703,15.151-11.41,22.434
			c5.498,1.574,14.09-3.242,18.668-11.998c3.932-7.512,2.616-13.852-4.166-19.097c-8.053-6.236-17.143-6.536-26.704-4.646
			c-6.762,1.338-13.615,2.217-20.701,2.604c13.54-11.036,37.14-10.957,39.503-35.566c0,9.915,0,19.835,0,29.533
			c7.711-3.296,12.593-16.23,9.261-25.496c-2.77-7.695-10.848-11.136-20.964-7.753c-4.603,1.545-8.719,4.949-12.656,8.023
			c-7.52,5.879-14.739,12.14-22.117,18.205c-6.424,5.287-12.773,3.675-17.959-1.441c-6.637-6.549-12.698-13.723-18.635-20.934
			c-3.899-4.737-7.566-9.778-10.553-15.119c-3.199-5.716-7.504-8.539-13.681-8.214c-4.041,8.448-1.462,15.339,3.774,22.508
			L825.98,1197.718L825.98,1197.718z"/>
		<path class="st2" d="M1330.075,1146.9c4.033,8.319,1.458,15.106-3.774,22.167c-6.708,9.053-12.257,18.938-19.26,29.97
			c13.018-5.795,24.338-6.624,33.936,2.916c5.183,5.154,4.57,11.615,1.6,17.669c-2.574,5.253-5.895,10.044-14.156,9.219
			c5.907-6.353,9.627-12.328,2.903-16.265c-9.302,0.971-17.168,3.7-24.025,2.137c-16.781-3.824-26.592,2.82-34.183,16.66
			c-4.262,7.761-9.274,15.731-19.917,17.589c6.965,1.895,13.935,3.791,20.771,5.653c-2.074,5.116-10.772,8.008-20.75,5.554
			c-7.291-1.792-11.732-8.024-10.79-15.34c1.545-11.96,8.74-20,18.759-26.375c-7.111,0.941-14.294,1.529-21.313,2.907
			c-8.377,1.641-15.935,1.8-21.864-6.057c3.854,7.458,7.703,14.914,11.406,22.088c-5.495,1.546-14.08-3.191-18.658-11.814
			c-3.929-7.4-2.617-13.64,4.162-18.81c8.048-6.137,17.139-6.432,26.691-4.57c6.762,1.316,13.61,2.179,20.688,2.562
			c-13.527-10.865-37.115-10.79-39.477-35.019c0,9.765,0,19.53,0,29.079c-7.711-3.242-12.585-15.981-9.257-25.105
			c2.767-7.573,10.844-10.965,20.951-7.632c4.604,1.521,8.716,4.87,12.649,7.899c7.519,5.786,14.735,11.952,22.109,17.926
			c6.42,5.208,12.768,3.621,17.951-1.416c6.632-6.454,12.689-13.516,18.622-20.618c3.896-4.667,7.561-9.628,10.548-14.885
			C1319.594,1149.363,1323.897,1146.579,1330.075,1146.9L1330.075,1146.9z"/>
		<path class="st2" d="M553.494,1007.897c-12.491,14.76-12.491,14.76-26.359,18.681c-2.449,31.698,3.321,63.798-4.607,95.426
			c7.248,4.707,14.164,3.641,20.563-3.471c7.965-8.852,9.877-20.018,10.273-30.978c0.938-25.839,0.733-51.717,0.946-77.58
			C554.318,1009.334,553.818,1008.688,553.494,1007.897L553.494,1007.897z"/>
		<path class="st2" d="M1579.528,1008.043c12.482,14.751,12.482,14.751,26.346,18.668c2.446,31.686-3.324,63.765,4.603,95.38
			c-7.248,4.704-14.16,3.637-20.555-3.471c-7.961-8.849-9.874-20.005-10.269-30.961c-0.933-25.826-0.729-51.692-0.946-77.538
			C1578.703,1009.481,1579.203,1008.835,1579.528,1008.043L1579.528,1008.043z"/>
		<path class="st2" d="M555.443,1088.068c8.852,5.207,18.788,3.42,23.542-6.554c4.433-9.29,7.628-19.842,8.295-30.032
			c1.429-21.83,0.875-43.781,1.096-65.686c0.004-0.674-0.409-1.353-0.675-2.199c-9.91,13.318-11.373,14.238-26.696,16.738
			C558.921,1029.502,563.992,1059.256,555.443,1088.068z"/>
		<path class="st2" d="M1577.558,1088.172c-8.845,5.208-18.781,3.417-23.53-6.549c-4.428-9.282-7.624-19.83-8.29-30.016
			c-1.425-21.817-0.875-43.76-1.092-65.653c-0.008-0.674,0.404-1.353,0.676-2.199c9.902,13.314,11.36,14.235,26.675,16.73
			C1574.084,1029.635,1569.013,1059.372,1577.558,1088.172z"/>
		<path class="st2" d="M591.588,1053.315c7.156,3.687,16.231,1.754,21.516-8.044c3.912-7.245,7.154-15.693,7.553-23.755
			c1.042-20.9,0.351-41.888,0.351-61.998c-10.34,14.561-11.682,15.543-25.305,18.292
			C594.345,1002.697,592.991,1027.514,591.588,1053.315z"/>
		<path class="st2" d="M1541.414,1053.44c-7.153,3.682-16.222,1.754-21.506-8.044c-3.908-7.241-7.148-15.681-7.548-23.739
			c-1.042-20.892-0.349-41.868-0.349-61.965c10.335,14.552,11.677,15.535,25.295,18.281
			C1538.66,1002.847,1540.01,1027.652,1541.414,1053.44z"/>
		<path class="st2" d="M552.726,930.18c-7.731,4.4-16.135,9.175-25.058,14.248c-1.233,21.876-2.574,45.644-3.992,70.714
			c5.971,3.733,15.614,2.253,20.759-6.912c4.128-7.349,7.408-16.018,7.924-24.288C553.522,965.458,552.726,946.856,552.726,930.18
			L552.726,930.18z"/>
		<path class="st2" d="M1580.291,930.367c7.731,4.395,16.127,9.17,25.046,14.24c1.233,21.867,2.574,45.622,3.987,70.677
			c-5.966,3.733-15.602,2.253-20.751-6.907c-4.12-7.345-7.398-16.006-7.919-24.276
			C1579.495,965.628,1580.291,947.036,1580.291,930.367L1580.291,930.367z"/>
		<path class="st2" d="M526.993,851.422c-1.512,27.154,2.609,53.67-5.528,79.27c7.903,5.453,17.664,4.474,22.342-4.59
			c4.812-9.328,6.62-20.164,9.678-30.358c0.296-0.984,0.184-2.096,0.176-3.15c-0.076-9.203,3.099-20.451-1.155-27.047
			C548.073,858.675,536.471,856.287,526.993,851.422L526.993,851.422z"/>
		<path class="st2" d="M1606.011,851.654c1.513,27.138-2.603,53.637,5.524,79.225c-7.895,5.449-17.655,4.47-22.325-4.591
			c-4.812-9.319-6.62-20.15-9.678-30.34c-0.292-0.979-0.183-2.096-0.171-3.146c0.071-9.198-3.099-20.438,1.15-27.034
			C1584.943,858.899,1596.538,856.516,1606.011,851.654z"/>
		<path class="st2" d="M585.243,918.377c-5.279,9.448-13.673,12.489-23.467,12.311c-1.525,20.064-3.024,39.802-4.613,60.69
			c5.129,3.425,13.399,3.446,18.398-3.591c4.849-6.832,8.982-15.159,10.165-23.296c2.125-14.643,1.816-29.633,2.525-44.476
			C587.247,919.469,586.246,918.923,585.243,918.377L585.243,918.377z"/>
		<path class="st2" d="M1547.775,918.573c5.274,9.444,13.668,12.481,23.454,12.303c1.524,20.054,3.021,39.785,4.608,60.657
			c-5.12,3.42-13.39,3.445-18.385-3.586c-4.845-6.828-8.979-15.157-10.157-23.284c-2.129-14.635-1.821-29.616-2.528-44.456
			C1545.771,919.665,1546.77,919.115,1547.775,918.573L1547.775,918.573z"/>
		<path class="st2" d="M561.729,868.144c-1.625,17.935-3.225,35.578-4.867,53.729c7.258,3.578,14.59,2.324,20.543-4.962
			c9.312-11.39,9.923-25.137,9.994-38.893c0.008-1.116-1.483-2.899-2.637-3.258C576.96,872.335,569.062,870.215,561.729,868.144z"/>
		<path class="st2" d="M1571.275,868.364c1.62,17.923,3.216,35.561,4.862,53.7c-7.253,3.579-14.581,2.325-20.53-4.957
			c-9.307-11.385-9.92-25.125-9.991-38.872c-0.008-1.117,1.483-2.9,2.637-3.258C1556.049,872.555,1563.943,870.431,1571.275,868.364
			z"/>
		<path class="st2" d="M922.665,1144.822c-1.9,0.224-3.196-1.3-3.342-4.483c-0.17-3.705,1.355-5.262,3.271-5.6
			c1.053-0.187,2.12-0.071,3.183-0.071c74.225,0,148.452,0,222.677,0.005c19.759,0,39.519-0.005,59.279,0.025
			c1.317,0.005,2.678-0.013,3.937,0.55c1.408,0.628,2.207,2.561,1.986,5.233c-0.208,2.537-0.974,4.262-2.607,4.282
			C1209.985,1144.776,923.459,1144.725,922.665,1144.822L922.665,1144.822z"/>
		<path class="st2" d="M1102.823,1290.166c15.956-9.307,32.645-16.781,51.634-18.16
			C1136.764,1276.979,1119.592,1283.041,1102.823,1290.166z M975.722,1271.589c19.18-0.778,50.601,14.577,61.179,22.043
			C1017.282,1284.374,997.024,1276.788,975.722,1271.589z M1203.324,1254.562c-3.611-0.05-7.249-0.008-10.827-0.425
			c-15.377-1.795-30.704-1.291-45.947,1.03c-26.921,4.099-50.521,15.502-71.656,31.558c-2.887,2.191-5.524,4.611-8.295,6.911
			c-10.739-8.814-22.121-16.972-34.92-23.667c-22.53-11.794-46.834-16.843-72.226-16.914c-10.027-0.025-20.084,1.475-30.165,1.5
			c-4.029,0.008-3.916,1.875-2.492,4.512c5.279,9.769,11.253,19.067,20.235,26.167c8.26,6.532,17.485,10.086,28.499,8.348
			c2.929-0.462,5.304-3.028,8.59-2.062c-2.886,10.057,1.008,19.952,10.64,25.28c5.546,3.062,9.253,6.744,11.049,12.852
			c1.829,6.241,10.54,10.215,17.689,9.415c-3.428,4.595-6.853,9.195-10.019,14.006c-2.579,3.921-6.141,7.627-6.704,13.148
			c1.055-0.446,1.704-0.521,2.009-0.875c10.202-11.706,23.805-18.472,38.148-24.1c5.823-2.287,11.868-3.808,17.989-4.832
			c21.65,3.549,40.885,10.985,56.616,26.22c1.233,1.192,2.104,3.133,4.717,2.854c0.44-2.204-0.776-3.875-1.884-5.503
			c-4.358-6.412-8.598-12.915-13.211-19.156c-0.521-0.704-1.112-1.333-1.637-2.029c9.269,1.208,18.035-4.158,19.018-13.29
			c0.305-2.815,1.5-4.066,3.987-5.22c12.077-5.595,19.41-13.935,16.619-27.795c-0.067-0.329,0.099-0.705,0.221-1.463
			c12.948,3.729,16.931,3.875,24.071,1.109c16.227-6.287,25.616-18.823,32.991-33.204
			C1208.053,1255.77,1206.637,1254.608,1203.324,1254.562L1203.324,1254.562z"/>
		<path class="st2" d="M1086.039,580.706c-3.796-0.308-7.54-0.684-11.29-0.896c-2.783-0.154-4.125-1.149-3.037-4.104
			c0.412-1.112,0.674-2.278,1.042-3.407c1.096-3.362-0.259-5.262-3.092-7.354c-4.254-3.137-6.599,0.341-9.482,1.854
			c-3.366,1.767-0.946,3.987-0.112,6.024c2.25,5.478,1.574,6.595-4.245,7.024c-14.264,1.053-13.803,0.837-20.118-12.453
			c-3.041-6.398-1.166-9.119,4.191-12.086c7.949-4.404,15.598-9.343,23.339-14.118c2.2-1.358,4.003-1.692,6.461-0.109
			c8.637,5.57,17.468,10.831,26.221,16.214c2.733,1.679,3.695,3.542,1.979,6.845c-1.988,3.837-3.286,8.044-4.72,12.153
			C1091.95,579.806,1089.826,581.614,1086.039,580.706L1086.039,580.706z"/>
		<path class="st2" d="M1093.734,585.113c-2.434,1.796-4.595,1.717-7.603,1.337c-13.181-1.65-26.45-1.774-39.653,0.097
			c-2.32,0.328-4.341,1.37-6.599-0.687c-11.873-10.833-23.667-21.71-30.791-36.512c-4.041-8.399-6.282-17.022-2.641-26.254
			c3.036-7.682,8.519-11.164,16.885-10.165c14.085,1.145,25.892,7.982,36.535,16.585c5.079,4.108,8.328,4.095,13.044,0.071
			c8.374-7.136,18.213-11.832,28.537-15.535c14.398-5.165,29.887,5.554,27.3,19.293c-1.633,8.695-4.112,17.219-9.649,24.601
			C1111.601,567.933,1103.894,577.627,1093.734,585.113L1093.734,585.113z M1209.886,572.349c2.841-3.362,5.753-7.082,3.903-11.81
			c-0.887-2.258-0.895-4.062-0.295-6.253c1.783-6.554-1.613-15.148-7.241-18.785c-4.299-2.775-9.952-2.4-12.923,0.983
			c-1.195,1.358-1.974,3.07-1.266,4.9c0.529,1.363,1.475,2.554,3.212,2.545c1.95-0.012,3.407-0.636,4.016-2.753
			c0.478-1.663,1.091-0.997,1.787,0.028c1.95,2.871,2.321,6.029,1.829,9.336c-0.859,5.757-4.208,10.136-8.115,14.131
			c-6.661,6.803-14.552,11.936-22.463,17.043c8.224-10.085,14.286-21.022,14.576-31.153c0.013-21.664-13.226-37.769-30.253-40.678
			c-5.524-0.945-6.316-0.061-4.924,5.524c1,4.008,2.853,7.787,2.879,12.061c0.012,1.879,1.516,3.046,2.965,4.216
			c9.695,7.824,11.095,15.253,5.737,26.559c-6.69,14.119-18.156,23.692-30.195,32.84c-3.375,2.566-6.445,3.229-10.699,1.75
			c-4.061-1.412-4.465-2.241-1.512-5.333c4.095-4.282,8.148-8.689,11.598-13.488c10.899-15.185,19.006-31.045,15.368-50.975
			c-3.416-18.71-21.321-32.95-40.227-30.854c-3.471,0.387-6.844,1.033-10.144,1.862c0.841-2.874,1.429-5.837,1.396-8.903
			c-0.196-17.684-14.182-31.437-32.1-31.553c-19.218-0.13-32.532,12.88-32.687,31.94c-0.025,2.978,0.438,5.799,1.109,8.527
			c-3.046-0.783-6.17-1.386-9.387-1.791c-29.724-3.745-47.104,26.793-40.393,51.946c4.312,16.164,13.798,29.166,24.588,41.461
			c1.479,1.688,4.741,3.008,3.712,5.487c-0.991,2.378-4.611,1.538-6.861,2.817c-1.595,0.912-3.021-0.6-4.295-1.409
			c-8.745-5.528-16.764-11.973-23.434-19.914c-3.549-4.219-6.799-8.686-9.299-13.685c-4.783-9.562-4.715-18.335,1.979-23.78
			c5.091-4.14,7.311-8.89,7.974-14.976c0.167-1.541,0.788-3.05,1.317-4.529c0.663-1.829,2.095-3.779,0.475-5.528
			c-1.579-1.696-3.728-0.554-5.625-0.175c-23.083,4.615-36.26,29.641-26.749,52.541c2.858,6.882,6.619,13.106,10.965,18.872
			c-7.753-5.004-15.452-10.061-21.976-16.723c-3.908-3.995-7.253-8.374-8.112-14.131c-0.491-3.308-0.125-6.466,1.829-9.336
			c0.696-1.025,1.308-1.691,1.787-0.028c0.608,2.116,2.062,2.741,4.012,2.753c1.742,0.009,2.688-1.182,3.217-2.545
			c0.708-1.829-0.071-3.542-1.267-4.9c-2.974-3.382-8.623-3.758-12.923-0.982c-5.632,3.637-9.023,12.231-7.24,18.785
			c0.596,2.191,0.587,3.995-0.295,6.253c-1.854,4.728,1.058,8.448,3.899,11.81c2.003,2.37,4.358,4.483,6.749,6.474
			c1.35,1.125,1.34,1.567-0.15,2.388c-1.442,0.791-2.671,2.266-2.417,3.786c0.504,3.034-1.225,4.845-2.682,7.037
			c-2.238,3.366-1.834,9.794,0.658,14.264c5.716-9.536,14.956-10.161,24.855-10.236c-1.963,4.028-2.329,7.657-0.45,11.461
			c0.804,1.633,1.179,1.262,2.111,0.262c6.812-7.294,18.447-5.337,22.755,3.379c0.041,0.717,0.295,1.467,0.796,2.258
			c0.628,2.825,0.079,5.633-1.496,8.224c-0.875,1.442-1.508,1.17-2.578,0.038c-3.092-3.258-7.678-3.253-10.861-0.167
			c-2.546,2.47-2.653,7.54,0.008,10.281c3.128,3.225,7.194,2.813,10.906,1.75c6.066-1.742,10.178-6.174,12.174-11.606
			c1.895,1.97,3.723,3.995,5.337,6.169c2.983,4.008,5.266,4.524,9.698,2.009c15.073-8.545,31.9-11.449,48.81-13.161
			c17.13-1.732,34.252-1.362,51.358,1.851c12.927,2.428,25.504,5.524,37.019,11.876c3.466,1.908,5.445,1.088,7.607-1.358
			c2.103-2.374,4.199-4.753,6.286-7.14c2.037,5.315,6.103,9.645,12.077,11.36c3.708,1.063,7.779,1.475,10.907-1.75
			c2.662-2.741,2.554-7.811,0.008-10.281c-3.182-3.087-7.774-3.092-10.861,0.167c-1.07,1.132-1.704,1.404-2.579-0.038
			c-1.778-2.92-2.536-6.116-1.386-9.302c0.087-0.171,0.125-0.334,0.183-0.492c3.954-9.419,16.239-11.585,23.255-4.066
			c0.933,1,1.308,1.371,2.116-0.262c1.875-3.804,1.513-7.433-0.45-11.461c9.899,0.076,19.139,0.7,24.855,10.236
			c2.487-4.47,2.891-10.899,0.654-14.264c-1.455-2.192-3.187-4.003-2.679-7.037c0.255-1.52-0.974-2.995-2.416-3.786
			c-1.491-0.821-1.503-1.262-0.153-2.388C1205.532,576.831,1207.886,574.718,1209.886,572.349L1209.886,572.349z"/>
		<path class="st2" d="M1503.015,741.563c-0.638,5.945-0.991,11.907-1.345,17.88c-0.6,10.474-1.183,20.372-3.458,29.667
			c-1.117,4.562-1.3,8.844-1.434,12.277c-0.079,1.658-0.104,3.329-0.379,4.97c-1.113,6.965-2.091,13.943-3.062,20.921
			c-1.271,9.061-2.604,17.606-4.112,26.183c-1.749-4.428-3.549-8.844-5.337-13.256c-3.929-9.686-7.499-19.81-9.107-30.058
			c-5.307-33.824-9.502-67.831-27.37-96.544c2.841-5.353,5.116-9.643,7.486-14.11c-10.564-0.938-19.317-1.745-28.079-2.484
			c-13.027-1.096-26.055-2.757-39.098-2.995c-8.336-0.15-16.906,2.021-21.072,10.444c-4.053,8.207,0.059,15.285,4.796,21.917
			c1.541,2.154,3.158,4.27,4.933,6.233c6.436,7.103,12.952,14.139,19.438,21.196c-16.672-11.398-31.624-24.067-34.457-45.621
			c-14.131,1.616-24.967,9.523-27.945,20.346c-2.767,10.028,1.599,17.552,8.92,25.255c0.425-3.462,0.383-5.824,1.042-7.974
			c2.207-7.204,9.64-10.691,15.71-7.095c8.511,5.045,16.743,10.548,23.042,14.551c-10.269,2.045-22.671,4.521-35.062,6.986
			c10.932,9.236,20.705-1.366,31.604-3.503c-1.974,3.428-3.55,6.166-5.47,9.506c8.845-3.941,16.614-7.398,24.372-10.856
			c7.436,6.003,7.694,14.306,5.752,22.221c-2.307,9.378-5.299,18.859-9.744,27.408c-8.886,17.081-19.222,33.424-28.449,50.343
			c-4.766,8.744-9.574,17.742-12.374,27.195c-5.732,19.36-3.774,39.244-0.77,58.824c3.791,24.697,8.585,49.247,12.602,73.909
			c1.559,9.578,2.183,19.297,3.379,30.3c5.383-18.818,7.945-20.888,23.663-17.564c-7.453,6.215-14.106,11.56-17.252,19.809
			c-1.121,2.933-6.316,4.567-9.877,6.345c-10.357,5.175-16.88,13.511-21.038,23.905c-1.767,4.404-3.7,8.761-5.096,13.277
			c-5.953,19.268-15.81,34.531-41.28,36.59c6.044,5.641,9.561,11.223,14.469,12.931c6.532,2.276,14.143,1.529,22.05,2.137
			c3.146,11.302,10.149,21.135,23.205,25.705c0.737-7.341,0.134-14.448,2.296-20.614c10.032-28.566,30.803-46.455,57.987-57.482
			c-1.33,2.975-2.604,5.986-3.954,8.953c-0.325-0.216-0.654-0.433-0.979-0.65c-7.482,4.923-15.227,9.519-22.305,14.947
			c-2.533,1.942-4.175,5.729-4.991,8.974c-2.563,10.157-3.87,20.655-6.92,30.645c-3.24,10.615-9.107,19.602-21.938,20.53
			c0.7,6.599,5.903,11.045,12.214,12.89c-26.116,44.843-55.887,87.824-88.494,127.755c-2.87,3.517-5.983,6.907-8.911,10.398
			c-19.23,0.283-38.315,2.355-56.703,9.658c-13.111,5.208-20.255,13.819-21.934,28.741c-1.653,14.668-5.983,29.216-10.624,43.327
			c-2.174,6.603-4.811,13.081-7.611,19.693c-11.161,10.235-22.818,20.596-35.269,31.241c-23.347,19.955-48.21,38.785-71.923,56.266
			c-20.613-14.907-41.094-30.691-62.402-48.109c-14.052-11.49-27.93-23.713-41.669-36.232c-1.712-4.025-3.412-8.008-4.733-12.052
			c-5.815-17.785-12.282-35.594-15.489-53.917c-2.812-16.047-5.92-25.074-21.992-28.954c-18.947-4.574-38.453-8.727-57.828-9.473
			c-1.991-2.383-4.199-4.695-6.157-7.087c-23.226-28.346-44.469-57.12-63.137-85.52c-9.673-14.714-19.001-29.958-28.187-45.86
			c6.22-1.882,11.324-6.294,12.015-12.827c-12.835-0.928-18.701-9.918-21.941-20.534c-3.054-9.999-4.362-20.505-6.925-30.666
			c-0.824-3.245-2.466-7.036-4.994-8.974c-7.083-5.432-14.831-10.032-22.313-14.96c-0.292,0.191-0.579,0.384-0.87,0.575
			c-1.3-2.854-2.471-5.879-3.758-8.758c27.045,11.045,47.704,28.917,57.707,57.388c2.167,6.169,1.559,13.281,2.3,20.626
			c13.056-4.57,20.067-14.411,23.212-25.717c7.907-0.613,15.527,0.137,22.06-2.138c4.916-1.709,8.437-7.299,14.482-12.939
			c-25.488-2.058-35.35-17.331-41.306-36.612c-1.396-4.516-3.334-8.877-5.096-13.281c-4.161-10.403-10.69-18.744-21.051-23.917
			c-3.565-1.783-8.761-3.416-9.882-6.349c-3.145-8.253-9.802-13.603-17.259-19.818c15.726-3.332,18.289-1.258,23.675,17.568
			c1.196-11.003,1.821-20.734,3.379-30.312c4.021-24.68,8.811-49.238,12.611-73.948c3.008-19.593,4.961-39.489-0.775-58.857
			c-2.805-9.462-7.612-18.464-12.377-27.212c-9.232-16.927-19.573-33.278-28.462-50.367c-4.45-8.553-7.449-18.04-9.748-27.426
			c-1.938-7.898-1.671-16.181,5.711-22.18c7.724,3.441,15.465,6.887,24.271,10.811c-1.925-3.341-3.496-6.078-5.474-9.515
			c10.902,2.141,20.684,12.748,31.62,3.512c-12.398-2.475-24.809-4.949-35.083-6.996c6.304-4.003,14.539-9.511,23.055-14.556
			c6.073-3.599,13.514-0.112,15.718,7.1c0.662,2.149,0.616,4.508,1.046,7.974c7.319-7.708,11.685-15.231,8.923-25.267
			c-2.983-10.828-13.823-18.739-27.962-20.355c-2.808,21.367-17.531,34.012-34.033,45.334c6.395-6.96,12.819-13.893,19.16-20.896
			c1.779-1.966,3.395-4.082,4.932-6.236c4.746-6.637,8.862-13.719,4.804-21.926c-4.17-8.432-12.745-10.602-21.084-10.452
			c-13.056,0.237-26.084,1.9-39.119,2.996c-8.765,0.742-17.522,1.549-28.092,2.482c2.371,4.47,4.646,8.766,7.487,14.119
			c-17.877,28.728-22.073,62.756-27.383,96.593c-1.608,10.256-5.178,20.384-9.112,30.074c-1.721,4.245-3.445,8.494-5.132,12.752
			c-0.312-1.82-0.579-3.649-0.895-5.47c-1.275-7.273-2.546-14.551-3.566-21.862c-0.717-5.17-1.333-10.357-1.946-15.54
			c-0.9-7.57-1.8-15.135-2.995-22.63c-1.262-7.828-1.788-15.848-2.342-24.342c-0.57-8.803-1.175-17.897-2.641-27.208
			c-1.254-7.89-1.275-16.376-1.3-25.363c-0.008-3.494-0.021-6.982-0.092-10.469c-0.5-22.155-0.475-44.797-0.453-66.702v-3.958
			c11.428,5.162,23.233,10.478,35.653,14.915c19.634,7.019,38.248,12.415,56.894,16.501c19.968,4.375,39.978,8.595,60.061,12.482
			c9.969,1.932,19.965,3.273,29.642,4.578l3.982,0.533c16.36,2.23,32.728,4.395,49.13,6.324c6.449,0.758,12.911,1.409,19.364,2.055
			c7.995,0.803,15.973,1.599,23.884,2.624c6.67,0.862,13.377,1.317,20.08,1.767c8.712,0.579,16.926,1.133,24.763,2.641
			c6.632,1.279,13.102,1.401,18.814,1.496c2.4,0.046,4.803,0.087,7.199,0.229l18.95,1.183c19.123,1.225,38.895,2.487,58.604,2.896
			c25.429,0.554,50.562-0.684,74.005-2.063l10.536-0.608c12.685-0.704,25.788-1.432,38.785-2.72
			c9.707-0.959,19.444-1.826,29.166-2.696c14.607-1.304,29.2-2.607,43.76-4.216c19.818-2.195,37.685-4.224,55.709-6.92
			c31.212-4.658,57.008-9.069,81.2-13.88c35.357-7.032,63.61-14.885,88.902-24.7c9.657-3.741,18.993-7.97,28.037-12.103l0.071,44.01
			C1505.245,697.058,1505.415,719.317,1503.015,741.563L1503.015,741.563z M1420.074,715.818c-2.396,0-4.816-0.063-7.195-0.338
			c-6.398-0.725-12.927-3.258-17.867,3.974c-0.992,1.455-5.587,1.392-8.178,0.725c-4.242-1.104-8.191-3.27-13.123-5.353
			c17.402-9.778,35.419-1.612,53.299,0.666C1424.698,715.609,1422.387,715.818,1420.074,715.818L1420.074,715.818z
			 M1430.401,1330.63c-8.099-0.791-16.189-1.725-24.296-2.354c-29.212-2.254-58.425-5.653-87.657-6.395
			c2.433-3.105,4.875-6.195,7.27-9.333C1361.221,1312.657,1396.194,1317.715,1430.401,1330.63z M726.899,1328.276
			c-8.112,0.628-16.202,1.562-24.296,2.354c34.315-12.956,69.401-18.005,105.017-18.085c2.391,3.116,4.878,6.215,7.316,9.323
			C785.573,1322.589,756.24,1326.013,726.899,1328.276z M706.132,715.189c17.889-2.279,35.919-10.452,53.329-0.663
			c-4.933,2.078-8.89,4.249-13.135,5.35c-2.583,0.674-7.182,0.737-8.178-0.722c-4.941-7.235-11.474-4.704-17.877-3.974
			c-2.378,0.27-4.799,0.338-7.199,0.333C710.756,715.513,708.444,715.306,706.132,715.189L706.132,715.189z M683.039,612.264
			c2.454-0.272,4.9-0.746,7.357-0.847c26.363-1.083,49.685,7.724,71.464,21.806c0.175,0.112,0.325,0.259,0.504,0.374
			c-11.494-2.374-23.017-4.653-34.466-7.165c-15.589-3.413-31.282-8.008-47.646-13.656
			C681.211,612.597,682.131,612.367,683.039,612.264L683.039,612.264z M796.367,631.952c0-4.587,13.252,5.383,23.159,11.677
			c-0.241-0.033-0.487-0.058-0.729-0.091l-4.02-0.55c-6.403-0.854-12.369-1.854-18.427-2.825
			C796.359,637.425,796.35,634.689,796.367,631.952z M865.007,608.056c11.703,20.359,32.612,30.907,48.68,46.608
			C894.961,641.791,870.66,634.864,865.007,608.056L865.007,608.056z M1267.993,602.756c-5.653,26.808-29.954,33.736-48.683,46.61
			C1235.386,633.664,1256.295,623.115,1267.993,602.756z M1339.469,631.952c0.013,2.55,0.005,5.099,0.013,7.644
			c-7.207,1.213-14.76,2.434-22.589,3.654C1326.738,636.942,1339.469,627.453,1339.469,631.952L1339.469,631.952z M1373.972,633.222
			c21.78-14.081,45.106-22.889,71.464-21.806c2.457,0.1,4.903,0.575,7.357,0.847c0.516,0.058,1.033,0.17,1.554,0.282
			c-20.939,7.429-44.385,13.728-73.139,19.452c-2.457,0.487-5.028,0.962-7.528,1.441
			C1373.786,633.372,1373.873,633.289,1373.972,633.222L1373.972,633.222z M829.562,585.225c-1.9-14.51-1.321-26.358,6.84-36.922
			C834.261,559.871,832.116,571.44,829.562,585.225L829.562,585.225z M1303.437,579.926c-2.553-13.785-4.694-25.354-6.84-36.924
			C1304.762,553.568,1305.337,565.417,1303.437,579.926z M1673.988,892.524c-2.479-20.385-3.52-40.965-6.665-61.237
			c-1.862-11.993-6.591-23.555-10.078-35.482c7.141,5.711,13.781,13.023,23.467,9.206c-4.695-6.303-9.94-11.677-13.181-18.039
			c-7.54-14.785-13.872-30.17-21.147-45.093c-7.191-14.743-19.055-24.57-34.89-29.483c-14.586-4.524-25.305,0.975-28.604,14.315
			c-4.254,17.218,2.953,30.632,18.065,32.94c3.712,0.567,7.652-0.321,11.486-0.537c0.133,0.346,0.262,0.691,0.396,1.037
			c-3.237,1.496-6.47,2.996-9.911,4.587c0.013-0.02-0.208,0.204-0.224,0.446c-0.325,4.986-0.6,9.978-0.941,14.96
			c-1.65,23.667-14.806,40.456-37.974,46.234c-11.557,2.883-23.667,3.841-35.591,5.02c-0.046,0.005-0.079,0.013-0.12,0.016
			c0.912-6.507,1.812-13.014,2.853-19.497c0.488-3.003,0.659-6.036,0.784-9.065c0.091-2.192,0.183-4.262,0.466-5.44
			c3.041-12.374,3.733-24.359,4.407-35.945c0.305-5.396,0.613-10.785,1.192-16.156c2.637-24.254,2.429-48.571,2.25-72.088
			l-0.071-62.774c0-5.544,0-14.826-8.686-20.675c-8.745-5.9-17.486-2.321-23.238,0.016l-3.334,1.454
			c-4.312,1.904-8.602,3.866-12.898,5.824c-9.411,4.303-18.314,8.366-27.499,11.923c-2.017,0.784-4.199,1.48-6.262,2.238
			c-23.583-10.566-47.447-14.286-72.696-8.936c3.608-5.583,9.149-8.27,26.899-12.507c9.87-2.354,19.894-2.907,30.038-1.645
			c10.164,1.262,20.146,3.27,30.037,6.187c-6.457-6.97-14.518-11.124-23.279-14.206c-17.577-6.179-35.516-5.274-53.542-2.983
			c-0.73,1.091-2.345,1.562-2.716,0.709c-0.613-1.388,1.316-0.984,2.032-1.529c10.261-7.903,22.251-11.69,34.57-14.877
			c10.119-2.616,20.397-1.604,31.503-1.841c-5.758-4.325-11.978-4.158-17.702-4.783c-42.084-4.608-81.595,13.277-105.262,52.696
			c-9.798,20.034-16.656,30.453-21.476,35.807c-4.849,0.755-9.636,1.508-14.769,2.274c-17.406,2.596-34.936,4.595-54.396,6.745
			c-1.345,0.15-2.704,0.246-4.049,0.391c28.774-10.843,50.929-29.59,61.736-59.353c8.27-22.767,15.215-46.46,8.553-71.255
			c-7.52-27.975-41.336-44.326-67.394-31.869c-6.774,3.24-12.132,10.128-17.127,16.171c-3.057,3.7-1.729,5.766,3.583,9.903
			c8.849-12.661,23.047-16.014,31.866-8.42c-6.711,1.013-13.847,2.088-20.651,3.113c4.874,7.489,8.32,14.459,13.315,20.051
			c7.423,8.315,15.743,15.876,24.054,23.354c12.29,11.057,16.43,34.107,8.186,48.398c-0.629,1.091-1.999,1.754-4.953,4.228
			c4.64-14.164,4.623-26.454-4.046-35.794c-6.215-6.704-15.21-10.836-24.441-15.393c7.794,19.163-12.786,28.199-13.186,43.955
			c-3.862-1.017-7.478-1.971-11.581-3.046c-1.604,19.169-15.197,28.325-27.821,38.26c-8.869,6.978-16.384,14.769-22.137,23.584
			c-2.138,0.201-4.278,0.379-6.416,0.592c-12.26,1.213-24.988,1.925-37.281,2.609l-10.681,0.603
			c-22.705,1.342-47.047,2.487-71.202,2.021c-18.955-0.4-38.34-1.641-57.099-2.841l-19.11-1.195
			c-2.858-0.171-5.753-0.226-8.644-0.28c-4.708-0.079-9.162-0.158-12.819-0.862c-3.354-0.649-6.632-1-9.923-1.408
			c-4.616-5.983-10.607-11.444-18.34-17.522c-12.618-9.936-26.212-19.093-27.817-38.261c-4.104,1.078-7.72,2.029-11.581,3.044
			c-0.4-15.756-20.984-24.791-13.185-43.955c-9.236,4.557-18.226,8.69-24.446,15.393c-8.666,9.34-8.682,21.63-4.041,35.795
			c-2.953-2.475-4.321-3.138-4.954-4.229c-8.244-14.289-4.104-37.336,8.191-48.396c8.307-7.479,16.623-15.039,24.051-23.355
			c4.991-5.59,8.435-12.56,13.318-20.051c-6.807-1.025-13.943-2.1-20.659-3.108c8.827-7.599,23.021-4.245,31.874,8.415
			c5.307-4.137,6.637-6.203,3.578-9.902c-4.999-6.045-10.352-12.931-17.127-16.173c-26.058-12.456-59.874,3.895-67.393,31.869
			c-6.658,24.797,0.282,48.488,8.552,71.257c8.57,23.616,24.247,40.352,44.726,51.679c-1.808-0.196-3.628-0.367-5.436-0.58
			c-15.902-1.871-31.77-3.979-47.639-6.128c-4.836-5.249-11.777-15.71-21.771-36.136c-23.667-39.419-63.173-57.304-105.259-52.696
			c-5.719,0.625-11.947,0.458-17.701,4.783c11.102,0.237,21.379-0.775,31.503,1.841c12.319,3.187,24.309,6.975,34.569,14.877
			c0.717,0.546,2.642,0.142,2.034,1.529c-0.374,0.854-1.987,0.383-2.716-0.709c-18.03-2.291-35.965-3.196-53.538,2.983
			c-8.765,3.082-16.831,7.237-23.283,14.206c9.89-2.917,19.871-4.924,30.037-6.187c10.141-1.262,20.163-0.709,30.033,1.645
			c17.755,4.237,23.296,6.924,26.904,12.507c-25.621-5.429-49.822-1.587-73.742,9.343c-0.5-0.178-0.967-0.3-1.47-0.478
			c-11.327-4.038-22.188-8.949-33.67-14.149c-5.782-2.612-11.565-5.223-17.41-7.723c-4.411-1.884-13.551-5.824-22.467,0.074
			c-8.869,5.862-8.857,15.474-8.849,20.102v23.638c-0.02,22.1-0.041,44.955,0.458,67.522c0.079,3.245,0.079,6.503,0.087,9.765
			c0.025,9.928,0.059,20.188,1.734,30.753c1.221,7.72,1.741,15.635,2.291,24.013c0.58,8.932,1.183,18.164,2.696,27.604
			c1.124,7.016,1.958,14.106,2.799,21.196c0.651,5.437,1.287,10.874,2.05,16.268c0.046,0.326,0.112,0.646,0.158,0.971
			c-0.096-0.012-0.171-0.028-0.262-0.037c-11.936-1.18-24.047-2.137-35.612-5.02c-23.184-5.783-36.349-22.58-37.989-46.26
			c-0.346-4.987-0.621-9.978-0.951-14.968c-0.012-0.242-0.233-0.471-0.221-0.45c-3.441-1.592-6.678-3.087-9.919-4.587
			c0.132-0.346,0.266-0.692,0.399-1.042c3.833,0.221,7.779,1.108,11.49,0.537c15.118-2.307,22.33-15.726,18.072-32.957
			c-3.299-13.344-14.027-18.843-28.62-14.319c-15.84,4.911-27.713,14.747-34.908,29.499c-7.278,14.93-13.615,30.32-21.158,45.113
			c-3.242,6.37-8.491,11.744-13.19,18.052c9.694,3.817,16.339-3.495,23.484-9.211c-3.496,11.932-8.219,23.5-10.081,35.498
			c-3.15,20.285-4.196,40.873-6.67,61.27c-2.371,19.456-6.32,38.507-20.252,53.817c13.514,9.649,42.293,0.158,45.651-24.275
			c2.296-16.664,3.083-33.649,3.026-50.484c-0.067-19.8,3.178-38.731,10.123-57.224c0.896-2.388,0.341-5.521-0.191-8.183
			c-3.891-19.513-2.937-38.635,3.733-57.087c-0.779,12.961-2.65,25.783-2.071,38.498c0.951,20.822,10.778,37.886,27.325,50.768
			c25.354,19.738,54.466,28.899,85.304,32.936c0.125,0.834,0.292,1.663,0.412,2.5l0.534,3.858c0.087,0.65,0.2,1.32,0.292,1.97
			c-5.791-0.753-11.553-1.508-17.435-2.274c-0.737,6.299-1.246,12.015-2.104,17.677c-0.821,5.407-1.999,10.752-3.123,16.647
			c11.677,5.302,20.975,0.537,26.52-12.881c0.979,3.753,1.884,7.519,2.796,11.281c-6.891,7.511-13.648,13.193-23.922,11.769
			c-1.724,15.622-3.379,30.653-5.103,46.321c6.845,4.458,16.13,3.359,21.229-5.516c4.466-7.79,7.428-16.864,8.949-25.725
			c1.086-6.336,0.758-12.923,0.5-20.125c0.946,4.033,1.895,8.064,2.907,12.081c5.587,22.097,11.886,43.997,18.564,65.465
			c2.874,16.572,5.882,33.252,8.84,50.367c0.775,0.108,3.487,0.478,8.095,1.113c-4.633,3.186-7.779,5.945-11.415,7.745
			c-11.961,5.912-19.365,15.38-23.63,27.629c-2.078,5.966-4.616,11.777-6.703,17.743c-5.849,16.73-17.086,27.024-35.403,28.853
			c3.72,12.418,15.222,19.293,32.924,13.519c3.32,13.102,10.765,22.833,25.125,28.153c-3.85-18.917,3.891-33.445,14.377-46.742
			c7.637-9.669,16.644-17.577,26.829-23.826c0.958,2.15,1.833,4.404,2.8,6.549c-4.829,3.125-9.598,6.312-14.019,9.928
			c-2.546,2.083-2.971,6.919-3.929,10.611c-2.762,10.632-4.666,21.522-8.12,31.92c-3.066,9.211-9.519,15.756-20.342,16.081
			c1.904,14.81,24.25,19.139,34.437,7.387c5.22-6.032,10.144-13.381,12.077-20.909c3.161-12.303,5.637-24.771,8.031-37.265
			c0.821,1.758,1.605,3.566,2.434,5.312c-0.475,5.337-0.967,10.678-1.129,16.023c-0.359,11.735-0.138,23.692,1.836,35.215
			c1.142,6.657,6.274,12.648,10.141,19.952c8.448-6.216,12.727-13.26,14.756-20.614c1.183,2.104,2.363,4.254,3.542,6.386
			c-2.35,3.438-4.616,6.844-6.678,10.315c-1.004,1.675-0.087,4.249,0.341,6.357c3.184,15.657,5.549,31.492,10.119,46.872
			c2.184,7.362,7.637,14.485,13.381,20.573c5.475,5.795,12.969,5.795,18.66,3.257c-4.991-17.231-9.91-33.999-14.672-50.809
			c2.724,4.491,5.394,9.14,8.157,13.54c1.813,5.04,3.804,10.027,6.282,14.835c3.153,6.099,8.165,12.019,13.968,16.618
			c0.217,0.171,0.504,0.259,0.73,0.422c8.091,11.797,16.598,23.629,25.429,35.441c-15.43-1.875-31.003-2.162-46.747-0.6
			c-36.723,3.644-72.442,18.026-111.657,8.836c3.995,16.914,11.206,30.074,23.775,39.665c0.453,0.346,0.92,0.641,1.375,0.974
			c-12.857,3.217-25.692,6.533-38.506,9.991c-35.966,9.715-72.465,16.052-109.924,15.306c-1.813-0.038-3.637,0.57-5.458,0.879
			c-0.47,0.946-0.936,1.892-1.408,2.838c5.032,3.779,9.894,10.436,15.143,10.76c12.799,0.791,25.834-0.9,38.674-2.441
			c14.106-1.688,28.1-4.325,42.147-6.553c0.193,1.095,0.379,2.191,0.572,3.287c-26.996,4.9-53.996,9.798-81.988,14.877
			c6.078,9.244,11.614,18.864,18.297,27.599c20.613,26.951,47.155,41.148,82.129,39.806c35.21-1.35,67.61-13.877,101.159-22.004
			c30.195-7.312,60.462-15.457,91.19-19.156c31.782-3.829,63.094-2.116,94.26,4.415c0.033,0.029,0.058,0.063,0.092,0.092
			c22.383,21.747,45.638,42.514,69.134,61.728c23.834,19.476,46.672,36.986,69.815,53.525c4.704,3.357,9.744,5.032,14.777,5.032
			c5.178,0,10.36-1.766,15.172-5.299c25.862-19.018,53.4-39.673,79.417-61.911c19.764-16.893,37.732-33.158,54.55-49.26
			c9.898-2.095,19.763-4.328,29.669-6.353c33.599-6.856,67.402-4.745,100.385,2.175c35.853,7.52,70.951,18.592,106.424,27.988
			c21.372,5.657,42.869,9.723,65.278,9.24c26.2-0.57,47.646-10.807,64.586-29.832c10.391-11.67,18.64-25.247,27.391-37.344
			c-28.679-5.191-55.366-10.02-82.049-14.852c0.354-1.062,0.712-2.128,1.066-3.195c2.37,0.329,4.741,0.687,7.12,0.971
			c23.263,2.775,46.526,5.508,69.785,8.32c11.098,1.338,13.135-6.548,15.988-13.164c-25.041-2.538-49.4-3.225-73.009-7.807
			c-27.767-5.391-55.249-12.316-82.678-19.376c0.587-0.425,1.187-0.809,1.77-1.254c12.568-9.59,19.78-22.75,23.772-39.665
			c-39.215,9.19-74.935-5.191-111.653-8.836c-15.606-1.551-31.045-1.259-46.351,0.57c8.656-11.624,17.08-23.451,25.283-35.444
			c0.203-0.146,0.458-0.225,0.653-0.379c5.804-4.596,10.808-10.511,13.961-16.611c2.449-4.748,4.42-9.669,6.215-14.647
			c2.775-4.395,5.383-8.883,8.104-13.307c-4.728,16.669-9.607,33.295-14.556,50.376c5.694,2.537,13.181,2.537,18.655-3.253
			c5.742-6.083,11.19-13.206,13.374-20.56c4.565-15.377,6.932-31.2,10.115-46.851c0.429-2.104,1.337-4.679,0.341-6.35
			c-2.029-3.412-4.245-6.757-6.553-10.131c1.178-2.129,2.279-4.333,3.446-6.474c2.037,7.319,6.307,14.322,14.718,20.513
			c3.866-7.298,8.995-13.289,10.136-19.942c1.974-11.515,2.192-23.464,1.833-35.195c-0.153-5.182-0.636-10.352-1.091-15.527
			c0.854-1.787,1.63-3.629,2.471-5.419c2.37,12.359,4.829,24.695,7.953,36.868c1.933,7.528,6.853,14.869,12.073,20.898
			c10.178,11.748,32.512,7.42,34.416-7.383c-10.815-0.325-17.267-6.865-20.329-16.072c-3.454-10.39-5.354-21.275-8.112-31.902
			c-0.962-3.688-1.383-8.524-3.932-10.604c-4.366-3.573-9.082-6.732-13.857-9.823c0.971-2.162,1.808-4.408,2.77-6.574
			c10.128,6.236,19.09,14.114,26.684,23.742c10.485,13.289,18.222,27.808,14.373,46.717c14.355-5.315,21.796-15.047,25.112-28.141
			c17.694,5.775,29.191-1.099,32.907-13.51c-18.305-1.826-29.537-12.12-35.381-28.838c-2.088-5.965-4.625-11.772-6.704-17.734
			c-4.262-12.24-11.66-21.705-23.612-27.617c-3.637-1.796-6.787-4.557-11.411-7.736c4.6-0.633,7.316-1.009,8.09-1.112
			c2.759-15.939,5.583-31.508,8.287-46.959c4.725-14.932,9.303-30.275,13.71-46.41c3.062-11.21,5.694-22.413,8.194-33.59
			c-0.25,6.849-0.513,13.165,0.529,19.227c1.521,8.857,4.478,17.926,8.944,25.712c5.096,8.87,14.378,9.966,21.218,5.511
			c-1.724-15.66-3.382-30.683-5.103-46.297c-10.274,1.425-17.031-4.262-23.925-11.777c0.849-3.921,1.754-7.857,2.57-11.761
			c5.508,13.836,14.919,18.752,26.75,13.373c-1.124-5.886-2.307-11.235-3.125-16.634c-0.862-5.661-1.37-11.373-2.103-17.668
			c-5.979,0.778-11.836,1.545-17.718,2.312c0.546-2.762,1.183-5.641,1.712-8.379c30.783-4.045,59.841-13.193,85.154-32.903
			c16.539-12.878,26.363-29.933,27.307-50.743c0.58-12.706-1.282-25.521-2.065-38.477c6.661,18.442,7.624,37.552,3.728,57.057
			c-0.529,2.663-1.088,5.791-0.191,8.178c6.945,18.481,10.182,37.403,10.115,57.195c-0.058,16.827,0.73,33.799,3.029,50.455
			c3.357,24.421,32.12,33.908,45.626,24.263C1680.304,931.008,1676.35,911.969,1673.988,892.524L1673.988,892.524z"/>
		<path class="st2" d="M678.924,1184.865c-1.366,0.05-3.133-0.346-4.041,0.211c-7.857,4.842-16.473,7.083-26.701,5.592
			c-5.198,14.63-10.207,29.178-15.606,43.63c-1.716,4.595-4.104,9.094-6.861,13.336c-4.15,6.386-10.52,10.49-19.693,10.677
			c0.905,13.602,23.897,16.96,33.02,10.057c7.207-5.449,14.144-12.456,17.397-19.904c7.212-16.523,12.011-33.762,17.847-50.697
			c1.513-4.391,3.22-8.736,4.842-13.102L678.924,1184.865L678.924,1184.865z"/>
		<path class="st2" d="M680.519,1184.665c-3.179,13.377-7.403,26.821-11.032,40.111c-4.32,15.827-9.332,31.523-14.189,47.763
			c6.432,3.22,16.176,2.294,21.646-5.354c5.846-8.16,10.24-17.397,12.974-26.633c3.853-13.027,5.786-26.454,8.135-39.764
			c0.959-5.429-6.624-27.167-10.64-35.299C685.455,1168.276,680.519,1184.665,680.519,1184.665L680.519,1184.665z"/>
		<path class="st2" d="M714.956,1200.112c-5.628-0.229-9.982-0.404-14.953-0.604c-2.224,15.339-4.944,31.528-6.794,47.792
			c-1.267,11.106-0.146,22.197,7.282,32.008c5.008,6.615,9.015,6.666,14.202,0.122c8.37-10.561,8.849-22.626,7.541-34.583
			c-1.559-14.289-4.27-28.496-6.536-42.734C715.526,1201.042,714.922,1200.021,714.956,1200.112L714.956,1200.112z"/>
		<path class="st2" d="M1454.081,1184.865c1.366,0.05,3.128-0.346,4.036,0.211c7.858,4.842,16.473,7.083,26.701,5.592
			c5.2,14.63,10.207,29.178,15.606,43.63c1.721,4.595,4.104,9.094,6.861,13.336c4.153,6.386,10.523,10.49,19.693,10.677
			c-0.905,13.602-23.892,16.96-33.02,10.057c-7.207-5.449-14.144-12.456-17.397-19.904c-7.212-16.523-12.011-33.762-17.847-50.697
			c-1.513-4.391-3.22-8.736-4.841-13.102L1454.081,1184.865L1454.081,1184.865z"/>
		<path class="st2" d="M1452.481,1184.665c3.179,13.377,7.408,26.821,11.036,40.111c4.321,15.827,9.333,31.523,14.19,47.763
			c-6.436,3.22-16.181,2.294-21.651-5.354c-5.841-8.16-10.24-17.397-12.972-26.633c-3.854-13.027-5.788-26.454-8.137-39.764
			c-0.954-5.429,6.624-27.167,10.64-35.299C1447.545,1168.276,1452.481,1184.665,1452.481,1184.665L1452.481,1184.665z"/>
		<path class="st2" d="M1418.046,1200.112c5.628-0.229,9.981-0.404,14.955-0.604c2.221,15.339,4.946,31.528,6.795,47.792
			c1.262,11.106,0.142,22.197-7.281,32.008c-5.012,6.615-9.02,6.666-14.203,0.122c-8.369-10.561-8.849-22.626-7.544-34.583
			c1.558-14.289,4.27-28.496,6.536-42.734C1417.474,1201.042,1418.079,1200.021,1418.046,1200.112z"/>
		<path class="st2" d="M1182.282,1154.149h-231.56c-0.479,0-0.875,0.392-0.875,0.871v5.399c0,0.478,0.396,0.874,0.875,0.874h231.56
			c0.478,0,0.87-0.396,0.87-0.874v-5.399C1183.153,1154.541,1182.761,1154.149,1182.282,1154.149L1182.282,1154.149z"/>
		<path class="st2" d="M1156.62,1211.306H976.868c-2.169,0-3.928-1.72-3.928-3.84c0,0-1.304-9.361-1.304-14.969
			c0-5.607,1.304-14.968,1.304-14.968c0-2.124,1.758-3.845,3.928-3.845h179.752c2.169,0,3.928,1.721,3.928,3.845
			c0,0,0.817,11.227,0.817,14.968c0,3.741-0.817,14.969-0.817,14.969C1160.548,1209.586,1158.789,1211.306,1156.62,1211.306z"/>
	</g>
</g>
</svg>
