<?xml version="1.0" encoding="utf-8"?>
<!-- Generator: Adobe Illustrator 21.1.0, SVG Export Plug-In . SVG Version: 6.00 Build 0)  -->
<svg version="1.1" id="Слой_1" xmlns="http://www.w3.org/2000/svg" xmlns:xlink="http://www.w3.org/1999/xlink" x="0px" y="0px"
	 viewBox="0 0 113 147" style="enable-background:new 0 0 113 147;" xml:space="preserve">
<style type="text/css">
	.st0{fill:#DDDDDD;}
	.st1{fill:#FFFFFF;}
	.st2{fill:#FAD385;}
	.st3{fill:#2B2A29;}
</style>
<g id="Слой_x0020_1">
	<g id="_1277683424">
		<path d="M56.5,0h-7.35c-0.65,0-1.273,0.259-1.733,0.718L44.25,3.886l-3.168-3.168C40.622,0.259,40,0,39.35,0H29.55
			c-1.352,0-2.45,1.097-2.45,2.45V19.6c0,0.771,0.364,1.496,0.98,1.959l8.819,6.615v10.593c-18.546,8.975-36.75,33.08-36.75,63.997
			C0.15,130.877,20.689,147,56.5,147s56.35-16.123,56.35-44.235c0-30.917-18.204-55.022-36.75-63.997V28.175l8.819-6.615
			c0.617-0.463,0.98-1.188,0.98-1.959V2.45C85.9,1.097,84.803,0,83.45,0H73.65C73,0,72.378,0.259,71.918,0.718L68.75,3.886
			l-3.168-3.168C65.123,0.259,64.5,0,63.85,0H56.5z"/>
		<path class="st0" d="M40.899,41.276l-2.257,1.093C16.768,52.955,4.149,79.202,4.149,102.765c0,30.51,25.499,40.235,52.351,40.235
			s52.351-9.725,52.351-40.235c0-23.563-12.619-49.811-34.493-60.397l-2.257-1.093H40.899z"/>
		<polygon class="st1" points="40.899,30.176 40.899,37.276 72.101,37.276 72.101,30.176 		"/>
		<polygon class="st0" points="49.793,3.999 44.25,9.542 38.707,3.999 31.099,3.999 31.099,18.826 40.899,26.176 72.101,26.176 
			81.901,18.826 81.901,3.999 74.293,3.999 68.75,9.542 63.207,3.999 		"/>
		<path d="M56.5,61.245c10.493-0.005,20.769,5.171,26.855,14.659c9.497,14.806,5.192,34.507-9.613,44.004
			c-5.254,3.37-11.249,5.049-17.242,5.041c-5.993,0.008-11.988-1.671-17.242-5.041c-14.805-9.497-19.11-29.198-9.613-44.004
			C35.731,66.416,46.007,61.24,56.5,61.245z"/>
		<path class="st2" d="M56.5,65.244c-9.509,0-18.339,4.792-23.489,12.818c-8.268,12.891-4.483,30.211,8.406,38.479
			c4.505,2.89,9.732,4.408,15.083,4.408c5.35,0,10.578-1.518,15.083-4.408c12.889-8.268,16.674-25.589,8.406-38.479
			C74.839,70.036,66.009,65.244,56.5,65.244z"/>
		<path class="st3" d="M43.11,93.044h3.298V78.356h11.699c2.022,0,3.561,0.087,4.617,0.263c1.525,0.265,2.799,0.748,3.826,1.452
			c1.026,0.704,1.84,1.687,2.441,2.947c0.6,1.26,0.901,2.653,0.901,4.178c0,2.639-0.821,4.873-2.463,6.706
			c-1.642,1.832-4.632,2.748-8.972,2.748h-8.003v2.726h17.019v3.519H50.454v6.244h-4.046v-6.244H43.11v-3.519h3.298V96.65H43.11
			V93.044z M50.454,92.956h8.048c2.609,0,4.47-0.491,5.584-1.474c1.114-0.983,1.671-2.367,1.671-4.155c0-1.29-0.33-2.382-0.99-3.276
			c-0.659-0.894-1.517-1.488-2.572-1.781c-0.704-0.205-1.964-0.308-3.782-0.308h-7.959V92.956z"/>
	</g>
</g>
</svg>
