<?xml version="1.0" encoding="UTF-8"?>
<!DOCTYPE svg PUBLIC "-//W3C//DTD SVG 1.0//EN" "http://www.w3.org/TR/2001/REC-SVG-20010904/DTD/svg10.dtd">
<!-- Creator: CorelDRAW X7 -->
<svg xmlns="http://www.w3.org/2000/svg" xml:space="preserve" width="331px" height="276px" version="1.0" style="shape-rendering:geometricPrecision; text-rendering:geometricPrecision; image-rendering:optimizeQuality; fill-rule:evenodd; clip-rule:evenodd"
viewBox="0 0 13747431 11467049"
 xmlns:xlink="http://www.w3.org/1999/xlink">
 <defs>
  <style type="text/css">
   <![CDATA[
    .fil0 {fill:black}
   ]]>
  </style>
 </defs>
 <g id="Слой_x0020_1">
  <metadata id="CorelCorpID_0Corel-Layer"/>
  <path class="fil0" d="M2551792 10762710l3360371 -1185214c361995,-127673 553136,-527296 425463,-889290l-1744096 -4944520 235352 -82872 480776 1362943 1768658 -5023757 6669115 2347927 -3210446 9119122 -4620204 -1626592 -3281970 1157507 -83019 -235254zm7054737 -2227869c-259866,-91518 -544539,44899 -636008,304814 -91518,259866 44949,544490 304814,635958 259817,91518 544490,-44948 635959,-304814 91517,-259816 -44900,-544489 -304765,-635958zm82872 -235353c389749,137203 594498,564434 457245,954184 -137203,389749 -564434,594497 -954183,457294 -389798,-137252 -594498,-564434 -457295,-954183 137253,-389798 564434,-594547 954233,-457295zm-1508498 -6298179l3453363 1215817 -102030 289881 -3453363 -1215818 102030 -289880zm-2307547 4358373l2927540 1032635 -83019 235303 -2843539 -1002963 698591 1980530c135533,384247 6730,799442 -290666,1045308l4071048 1433239 3010855 -8552083 -6102126 -2148337 -1792925 5092580 358015 1014900 46226 -131112zm242181 -686654c1591320,561290 3182592,1122580 4773961,1683870 -27656,78451 -55313,156902 -83019,235353 -1591370,-561290 -3182641,-1122580 -4773962,-1683870 27706,-78500 55363,-156902 83020,-235353zm242230 -686654c1591271,561290 3182592,1122580 4773912,1683919 -27656,78402 -55313,156853 -82970,235304 -1591370,-561290 -3182690,-1122580 -4773962,-1683870 27657,-78500 55314,-156902 83020,-235353zm242181 -686654c1591320,561290 3182592,1122580 4773962,1683919 -27657,78402 -55363,156852 -83020,235303 -1591321,-561290 -3182641,-1122580 -4773962,-1683870 27706,-78500 55363,-156902 83020,-235352zm242181 -686655c1591320,561290 3182641,1122580 4773962,1683919 -27657,78402 -55314,156853 -83020,235304 -1591321,-561290 -3182641,-1122580 -4773913,-1683870 27657,-78500 55314,-156902 82971,-235353zm242181 -686654l4773962 1683919 -83020 235304 -4773913 -1683870 82971 -235353zm-4440853 6307120l2286866 -806615 111168 315179 -2286867 806664 -111167 -315228zm139021 -3167904l10807 14639 -31046 -1425 15277 46373 29032 -13313c-2456,24415 -21368,27166 10513,52661l-9186 24120 -10660 -12134c-39299,6190 -81300,46324 -78500,86999 2702,38218 44064,73391 70984,99181 44064,42198 43671,47110 10611,98592 -10022,15572 -63960,82872 -80465,81644 -16997,-17783 8400,-148011 -82528,-118487l-5404 15032 -5305 1375 -19896 -45341 18864 -4372c540,-4618 -13313,-32618 -16064,-38906l-14688 10218 -245 -16260 -40871 13558 7073 15425 -17193 4519 16850 32815 14639 -6632 7073 61110 -3635 1916 -12625 -12183c-25986,8892 -45194,38071 -31635,64500 11003,21369 43523,49370 48043,67202 -19650,9726 -63861,3880 -80416,-10316 -58507,-50205 41264,-106157 -35222,-152383 -3783,-2260 -74325,-24709 -75012,-24611 -56002,8106 -26724,84984 -99083,123743 -93139,50008 41264,105862 40674,119421 -9726,16014 -50450,-3046 -49173,32716 590,15425 26822,50057 40331,43671l-12527 -25446c5551,393 59932,-25102 69560,-29327l-2505 -5551c4126,18520 -25594,43671 -934,70739 22548,24660 69167,16505 66023,-5699l-18372 2604c-37040,-30801 37481,-104782 -33650,-137695 -84543,-39201 16358,-113476 22695,-113378 23285,19895 -11790,84936 44359,124873 36008,25643 86360,8155 127427,4421l-22449 33454c-91273,39643 -47356,120697 -5158,125119 19109,-19454 1670,-29327 52710,-41166 16603,-3832 57720,-12380 71426,-2162 -54577,7221 -57426,8253 -95743,47110 -58801,59735 -60422,15867 -92647,26920 10561,26478 70148,39987 98296,28934 34338,-13411 41559,-65187 72360,-78500 -4175,12870 -22155,22744 -24758,42689 -1474,11347 6582,55018 24365,43229 6730,-12330 -16260,-67791 62879,-82283 11446,-2112 19551,983 29720,-835 18667,-3193 14295,-12772 28000,-11299 8941,983 40577,15720 48977,20878 33109,20239 60275,56100 70738,93630 16752,59882 -54871,68823 -68233,78599 197,28737 58900,17783 70837,22204 -4225,16161 -25053,33797 -40773,39446 -31145,11151 -37776,-7909 -54577,-7761 -13116,17979 -2701,46422 14099,59341 26969,20632 39889,8794 57573,14295 6485,48535 -74668,84936 -112543,66170 -80072,-39643 -20042,-84100 -24807,-126052 -8351,-72801 -116031,-80219 -170510,-109300 -11249,-5994 -53643,-37138 -57180,-37285l-2309 14786c-96283,-24660 -93925,-58556 -118044,-78549l-10267 22548c-14246,-737 -112248,-65827 -131210,-78599 -17538,-11789 -119224,-100360 -120207,-100606 -43916,11152 -14491,120305 19453,151007 39938,36156 81792,58703 122712,89602l-172278 -69952c-18126,42590 18029,86016 50156,107827 25102,16948 83216,35664 99623,51187 -37530,295 -121385,-28786 -140740,15425 10415,24366 41559,42148 63567,55166 12674,7467 74226,26920 75552,28001 -6681,9628 -109792,13607 -116866,47306 7664,45292 124923,43573 150221,52022l-101244 50009 2407 4666c8744,41707 106353,33159 125315,38219l-2505 -2653 -63812 65138c10414,55805 85132,30654 103455,33159l2014 2849 -24267 17046 -4127 -3438 2113 32323c3880,2800 1866,-1474 3684,5797 -7860,4077 -2407,2063 -7516,1424l-9628 24955 4568 -2014 14394 23874 -43917 23924c-3783,19748 21418,34387 37383,42148 33503,16162 41755,4028 57180,9383l13558 15965 58704 3242 1129 28296c5994,4077 18717,-1327 24169,294 8450,6239 80711,95989 89750,109399 13165,19454 30899,34928 46127,52710 31047,36303 -15719,28198 43082,47110 4716,10660 1130,14836 8597,22352 10758,10758 9873,-442 11740,15670 3341,28639 21222,18274 31636,22401 24415,25495 22646,39397 4470,62092 -27362,34141 22941,38170 31047,43229 1866,2506 4421,20338 8449,25643l33159 -442c12575,14197 -8695,13558 23874,24464 5403,1817 31881,10168 34387,11691 16751,31194 -50,17734 36941,30948 13116,4667 38857,13362 50597,4913 17636,-12674 4815,-36991 197,-54921 -9628,-36990 -26625,-14639 -37924,-38169 13362,-51973 83757,-91862 123007,-122417 39250,-30506 148599,-64058 176060,-97069l-46029 -38317 2849 -3389c19404,-6534 76584,-41706 57082,-68577 -14541,5600 -17243,29523 -49812,18372 -54233,-18569 -27706,-123792 57573,-91714 32520,12232 73146,43868 56247,83363 -15326,35861 -55461,45882 -29228,95104 -49321,26085 -72213,126249 -110726,128115 -31341,1523 -23530,-34092 -25299,-47552 -21663,12429 -33404,37187 -34337,61356 -1670,44703 27755,42296 43081,58654 -9186,29081 -27312,44310 1327,79581 8253,10169 19158,18470 30653,24464 22155,11544 25053,23776 34583,21958l-13214 -69510 7663 -1474c23580,19256 9678,37776 63812,49566 49861,10856 45440,-8056 70837,-32324 10807,1474 30604,21517 68135,22008 44015,589 50548,-19257 77075,-35566l66367 30948 7614 -2702 28541 -62043c31636,-5109 43327,10758 75356,-25397 24317,-27362 23580,-57328 29671,-65335 29818,-2112 48829,30948 90339,-8695 23186,-22204 18618,-61503 12281,-90044 32716,6288 15965,7172 32471,28639 7811,10120 27804,22892 38906,13460 -2407,-10709 -14246,-4912 -12084,-36892 785,-11691 2849,-27755 1326,-39152 -5207,-39397 -30506,-38464 -50942,-56934 541,-23531 23089,-36647 -9628,-64795 -16997,-14639 -43622,-24316 -64696,-11839 67250,60963 -66023,32668 -89357,30555 -37137,-3389 -116964,1916 -145603,-20386l147 -3635 72606 2947 -246 5748c4569,-35075 -59293,-39054 -79630,-51679 -30948,-19207 -30359,-66956 -11593,-94661 18569,-27412 70100,-47749 96872,-23334 13460,12232 17046,33207 9285,49467 -14295,29917 -32324,14590 -44408,21026 1621,31881 60471,19649 77468,19796l6730 56886c18520,-2211 148158,-30113 172622,-32667 28442,-2948 53790,-7074 81840,-11053 20829,-2948 49271,5059 72065,6926 33944,2849 45046,7123 71475,-18470 16751,-16162 53152,-33503 62338,-45391 7615,-9825 42886,-50647 42935,-56198 147,-19011 -13509,-13558 -1032,-38759 6828,-14000 9874,-17046 6534,-34337l14639 -4962 6337 -39004 -32619 -21516c-41853,-90585 -123350,-50205 -141231,-85918l29916 -98 -21909 -55903 -17291 18372 98 -23383 -61798 25102 15228 18667 -26232 -3880 25102 60619 11495 -12969c9187,14933 -35221,39888 -44064,66907 -7860,23825 -2751,63026 -17979,78549 8007,29229 -6435,23334 -1769,37039 3193,9236 18275,17783 25103,26429l20632 -8007 20190 22302c-41166,54380 -62388,44997 -125463,51384 -27460,2701 -122417,10954 -103160,-45587l37432 29032 -4470 -27657 52317 18274 -44850 -60668 5895 -4421c10119,-2702 32815,15277 53889,5256 12133,-5796 34878,-29327 25151,-42738 -8302,-1866 -33797,25397 -46471,-27411 -6828,-28492 -3095,-39594 -23088,-65531 -28197,-36499 -77813,-30703 -117308,-17488l2947 -21369c-24267,17586 -74619,49173 -102620,17341 -9038,-10218 -47552,-115687 -44260,-125659l4077 3684 40969 -45833 53988 8892 933 -6288c13607,24316 18372,64401 33846,86753 7320,10561 53693,25544 61356,26035 1572,-1522 16850,-31930 19453,-37629 26871,-57966 -50254,-98591 -39741,-132487 5649,246 48976,78206 56050,90044 25496,42935 34485,38268 80613,36401 59047,-71770 -51286,-118241 -76142,-174684 62190,34190 86212,146340 175519,100802 38710,-101981 -110086,-109841 -137792,-160341 36450,-4175 164811,145849 216636,62633 -6877,-86949 -100556,-63763 -143540,-98788 65826,6337 136073,58801 193696,2309l4716 -3783 -50500 -63075 -4077 3242c31931,-16505 65138,-12428 75258,-55903 6730,-29081 -57131,-39200 -68184,-44653 28639,-17046 71917,-48486 62535,-86950l-78304 -9186c16948,-21565 70984,-53987 61798,-93483l-639 -4814 -107385 15229c7320,-13559 34436,-38121 47159,-59244 17243,-28590 15818,-41657 23629,-69707l-884 -2407c-35566,-16211 -84346,32324 -116915,47061 4618,-23432 69510,-128656 42246,-154642 -35909,-1179 -89110,65187 -118192,86163 1523,-10021 43475,-80023 50893,-101785 9579,-28197 6140,-110037 -26920,-127181l-142116 269788c13116,-48387 57131,-144375 77518,-198706 13656,-36450 21418,-74668 9235,-113083 -8449,-26576 -48780,-75897 -77616,-80613 -3831,9874 -15769,126249 -23039,155477 -9726,39152 -28590,110087 -48583,144179l-12134 -2358 -34043 132242c-7074,1277 -4421,1277 -15277,-3832 -20289,35959 -37973,84346 -60030,124677 -17390,31783 -57475,101441 -31734,135582 18962,25200 107483,32176 69953,107188 -21517,42984 -98396,64696 -133716,31833 11839,-17439 36843,-24710 37826,-54479 589,-19158 -13559,-60914 -36156,-62338 -7073,23825 590,43966 -34485,54380 -15818,4716 -59489,-3537 -63075,-12379 15671,-12969 26576,-5109 45833,-31292 7074,-9628 23727,-34829 11740,-45194 -2800,-148 -65776,56934 -110970,2751 -48928,-58802 9284,-164811 22547,-170067 10022,-3979 15818,8940 27608,-2358 8842,-8450 1130,-13116 15720,-24169 80465,-60914 87195,19306 103160,32471 15032,-13460 9137,-37285 1081,-53693 -9678,-19748 -35861,-19109 -41756,-24316 24661,-10463 59440,25102 106305,7860 35762,-13165 53839,-75504 37334,-88472 -13558,7908 -4127,55313 -62142,58555 -16358,884 -27608,-3979 -42787,-4765 -15278,-835 -32569,4323 -46766,3734 4962,-39840 86999,-24268 92157,-25545 19256,-19895 8301,-83068 -23826,-94760 -14000,-5060 -39250,-4519 -53299,884 -11151,4323 -40233,2997 -49026,-5600 1081,-3045 59096,-26527 83020,-84002 21221,-50941 -40380,-86163 -33355,-121434 9284,-5060 67643,-3144 76780,2358 31734,18913 21860,37236 14639,66121 -7123,28246 -1965,55215 22401,73931 50401,38563 11593,49763 14442,66563 23187,6878 47847,-27214 52170,-47257 9382,-43376 -32029,-40871 -40478,-54478l1130 5108 63861 -13607 14442 12772c14688,-10758 7467,-43769 -3881,-55657 -19207,-19994 -39692,7172 -58162,1916 -16359,-18373 21614,-47847 9235,-72753 -13215,-26527 -39938,-28934 -66219,-23825 -66121,12871 -58998,-67300 -143491,-17193 -115491,68478 61994,133175 34534,194334 -9235,20779 -33306,42541 -55019,49026 -12674,-29720 8449,-69756 -8646,-96431 -20386,-31881 -56983,-24955 -84346,-7712l-20288 -44162c8793,-8008 14983,8891 8057,-21861 -4618,-20435 -1720,-17095 -13559,-7565 -7024,-5403 7811,-14000 -22105,-3438 -21418,7516 -19945,4224 -9973,15867l-14098 2308c-393,4078 10316,26184 12625,31538l13509 -5846 10267 45636c-786,1572 -76044,8155 -53791,63960 10414,26085 58900,59636 57819,78696 -23825,12036 -95694,5453 -120403,-5551 -60914,-27018 -69117,-7614 -64205,-74373 2702,-37040 7516,-96136 -11249,-128459 -15523,-26724 -89357,-30899 -114754,-14885l-245 15769 -24464 -14443 5600 -2308 -24513 -48338 24660 1326 -17733 -50156 -17145 18668 -2603 -20927 -38906 16211zm-2211 464712c12379,-1670 84641,-40822 89553,-39938l-33846 59244 38365 -11495 -34927 38758 -393 7713 132144 4765 -49763 36008 1769 -7516 138726 135631 -6386 3390 28934 -189422 4961 737c-10070,-2653 -66317,15670 -80661,-15671 62190,-8548 79826,-12428 111609,-68528l-57131 -3389 -49 -5502 37088 -16997 -75110 -35615 102178 -13558 -884 -6583c-29377,-5747 -62241,14099 -145407,-10512 -15032,-4471 -35222,12133 -51138,17193 -71476,22695 -30261,4372 -77027,55559 -9530,10414 -72359,65188 -72605,65728zm-139266 829556l-2604 835c-1228,15867 -26428,91567 -32765,112003 -21369,69019 -23875,57917 -93434,75356l-20092 -80171 -38660 29671 786 -7074 27411 35812 -5699 4765 18422 2456c11642,17537 -540,19060 27460,46962 12625,12576 24710,24120 36892,37285 23973,25741 47945,52121 72556,77174 13608,13853 21222,27264 39299,32324 16948,4814 10464,7368 14148,19305 3193,10316 10709,7320 19699,13018 12084,7664 6386,14590 17979,19797 8941,4028 16162,786 19797,14541 27166,103995 61405,-38415 106452,35860 25249,41657 37530,35075 81005,7467 21909,-13902 149828,-100360 115982,-128950l-10758 36352 -8352 -26675 -32470 53545 -3980 -2456c-4175,-9579 15131,-54233 -13558,-69903 -7024,2554 -12281,28885 -36450,34387 -11789,2652 -41509,-1818 -48387,-11888 3930,-18422 37384,-9923 26380,-44949 -6730,-21516 -24955,-33208 -29720,-62043 -9285,-55461 37580,-68332 58801,-94417l-19256 -10954c8400,-6092 87735,-9727 96675,-56542 1965,-10267 -39544,-117259 -47060,-132831l-46226 -10218 -26625 51384 -15523 -4470c5747,28099 22548,56296 24169,83952 589,10366 -22057,56247 -28639,59293 -17587,-2947 -55216,-18421 -63321,-36990 -8499,-19601 -13165,-82479 -16751,-86016 -99,294 10758,91665 11396,104830 835,16653 5306,35075 -11151,44064 -28983,15867 -20632,16064 -40969,31538 -89406,-78451 -35173,-64942 -47159,-146586 -11692,24660 -10464,117799 -29622,135238 -786,688 -45243,26969 -45292,27018 -72605,-42344 -9088,-154789 -786,-213099zm-1123956 -1609693l2104912 -742459 83019 235352 -2104911 742460 -83020 -235353zm-513394 -343671l2802569 -988570 83020 235353 -2802619 988520 -82970 -235303zm-685377 -536630l1929686 5470834 3498263 -1233846c102276,-36057 156902,-150417 120796,-252644l-1797985 -5097296c-36057,-102276 -150221,-157098 -252497,-120992l-3498263 1233944zm-318274 -152284l3733517 -1316964c232062,-81840 488980,41068 570820,273277l1797985 5097295c81841,232258 -41018,489127 -273129,570968l-3733517 1316816 -2095676 -5941392z"/>
 </g>
</svg>
