<?xml version="1.0" encoding="utf-8"?>
<!-- Generator: Adobe Illustrator 21.1.0, SVG Export Plug-In . SVG Version: 6.00 Build 0)  -->
<svg version="1.1" id="Слой_1" xmlns="http://www.w3.org/2000/svg" xmlns:xlink="http://www.w3.org/1999/xlink" x="0px" y="0px"
	 viewBox="0 0 227 284" style="enable-background:new 0 0 227 284;" xml:space="preserve">
<style type="text/css">
	.st0{fill:#1F1F1F;}
	.st1{fill:#FAD385;}
</style>
<g id="Слой_x0020_1">
	<g id="_1594967360">
		<path class="st0" d="M113.499,283.656l-6.959-5.621c-1.075-0.869-26.66-21.641-52.603-51.427C18.146,185.515,0,148.632,0,116.981
			v-3.137C0,51.26,50.915,0.344,113.501,0.344C176.085,0.344,227,51.26,227,113.844v3.137c0,31.651-18.146,68.535-53.937,109.626
			c-25.944,29.786-51.529,50.558-52.603,51.427l-6.959,5.621H113.499z M113.499,22.49L113.499,22.49
			c-50.371,0-91.353,40.982-91.353,91.353v3.137c0,53.485,68.912,118.233,91.353,137.894l0,0h0.001
			c22.441-19.662,91.353-84.409,91.353-137.894v-3.137c0-50.371-40.982-91.353-91.353-91.353H113.499z"/>
		<path class="st1" d="M113.499,14.948c54.534,0,98.895,44.361,98.895,98.895v3.137c0,51.316-57.541,111.69-93.926,143.568
			l-4.97,4.354l-4.97-4.354c-36.384-31.879-93.925-92.251-93.925-143.568v-3.137C14.603,59.309,58.965,14.948,113.499,14.948z"/>
		<g>
			<path class="st0" d="M114.842,113.015c-0.097,0.048-0.199,0.087-0.385,0.168c0-0.76,0-1.432,0-2.105
				c0-7.278,0.005-14.557-0.011-21.836c-0.001-0.426,0.15-0.678,0.508-0.901c2.152-1.347,4.476-2.328,6.937-3.043
				c1.842-0.534,3.713-0.928,5.617-1.138c1.505-0.166,3.025-0.21,4.539-0.314c0.267-0.018,0.374,0.08,0.352,0.329
				c-0.009,0.109,0,0.219,0,0.329c0,7.884,0,15.768,0,23.653c0,0.628-0.001,0.631-0.65,0.639c-2.201,0.027-4.391,0.211-6.551,0.596
				c-2.509,0.446-4.97,1.083-7.293,2.116C116.864,111.973,115.862,112.512,114.842,113.015z M112.735,89.254
				c-0.05,0.365-0.009,0.741-0.009,1.111c0,7.36,0,14.722,0,22.082c0,0.225,0,0.451,0,0.788c-0.459-0.256-0.821-0.464-1.19-0.662
				c-2.423-1.302-5.008-2.213-7.717-2.792c-1.32-0.282-2.659-0.517-4.003-0.665c-1.548-0.17-3.11-0.229-4.667-0.317
				c-0.303-0.018-0.398-0.118-0.387-0.4c0.019-0.521,0.002-5.952,0.004-6.133c0.002-5.985,0.002-11.97,0-17.954
				c0-0.255-0.042-0.505,0.381-0.466c2.098,0.195,4.211,0.285,6.288,0.592c1.584,0.235,3.137,0.7,4.682,1.133
				c2.18,0.61,4.183,1.599,6.103,2.746C112.582,88.534,112.795,88.805,112.735,89.254z M137.827,85.268h-1.934
				c-0.001,4.646-0.015,22.347-0.015,28.275c-6.123,0-12.167,0-18.21,0c5.17-2.468,10.693-3.223,16.416-3.099
				c0-4.575-0.005-24.563-0.005-28.167c-0.034-0.018-0.058-0.043-0.083-0.044c-3.175-0.106-6.335,0.068-9.439,0.708
				c-1.753,0.362-3.48,0.871-5.183,1.417c-1.924,0.617-3.732,1.496-5.389,2.626c-0.283,0.193-0.477,0.214-0.777,0.009
				c-0.608-0.411-1.241-0.794-1.896-1.134c-3.231-1.678-6.709-2.67-10.326-3.212c-2.502-0.376-5.032-0.497-7.566-0.422
				c-0.111,0.002-0.221,0.024-0.366,0.041c0,0.173,0,0.322,0,0.471c0,7.237-0.001,26.424,0.002,27.25
				c0,0.145,0.02,0.289,0.032,0.459c5.747-0.126,11.263,0.637,16.429,3.097c-6.027,0-12.056,0-18.139,0
				c0-1.696,0.015-21.494,0.014-28.277h-2.22c-0.001,7.175,0.034,28.007,0.034,30.661c0.222,0,0.408,0,0.595,0
				c6.421,0,12.843,0.004,19.264-0.006c0.326-0.001,0.517,0.086,0.702,0.348c1.812,2.552,5.611,2.559,7.457,0.014
				c0.196-0.27,0.4-0.363,0.741-0.363c6.451,0.011,12.9,0.008,19.351,0.008c0.165,0,0.33,0,0.494,0
				C137.811,109.198,137.832,89.53,137.827,85.268z"/>
			<path class="st0" d="M110.702,91.64c-0.103,0-0.206-0.031-0.296-0.093c-4.989-3.494-13.572-3.802-13.658-3.805
				c-0.276-0.008-0.494-0.229-0.485-0.493c0.009-0.263,0.278-0.471,0.518-0.46c0.363,0.011,8.978,0.316,14.219,3.989
				c0.223,0.157,0.271,0.455,0.107,0.668C111.009,91.573,110.857,91.64,110.702,91.64z"/>
			<path class="st0" d="M116.298,91.64c-0.156,0-0.307-0.067-0.406-0.195c-0.164-0.212-0.117-0.511,0.107-0.668
				c5.242-3.673,13.856-3.978,14.221-3.989c0.243-0.028,0.507,0.197,0.517,0.46c0.009,0.264-0.208,0.485-0.485,0.493
				c-0.086,0.002-8.669,0.31-13.658,3.805C116.504,91.609,116.4,91.64,116.298,91.64z"/>
			<path class="st0" d="M110.702,95.168c-0.103,0-0.206-0.031-0.296-0.093c-4.989-3.496-13.572-3.802-13.658-3.805
				c-0.276-0.008-0.494-0.229-0.485-0.492c0.009-0.264,0.278-0.465,0.518-0.462c0.363,0.012,8.978,0.317,14.219,3.99
				c0.223,0.157,0.271,0.455,0.107,0.668C111.009,95.1,110.857,95.168,110.702,95.168z"/>
			<path class="st0" d="M116.298,95.168c-0.156,0-0.307-0.068-0.406-0.195c-0.164-0.212-0.117-0.511,0.107-0.668
				c5.242-3.673,13.856-3.978,14.221-3.99c0.243-0.02,0.507,0.198,0.517,0.462c0.009,0.263-0.208,0.484-0.485,0.492
				c-0.086,0.002-8.669,0.309-13.658,3.805C116.504,95.138,116.4,95.168,116.298,95.168z"/>
			<path class="st0" d="M110.702,98.696c-0.103,0-0.206-0.031-0.296-0.093c-4.989-3.494-13.572-3.801-13.658-3.804
				c-0.277-0.009-0.494-0.229-0.485-0.493c0.009-0.264,0.278-0.477,0.518-0.461c0.363,0.011,8.978,0.317,14.219,3.99
				c0.223,0.156,0.271,0.454,0.107,0.667C111.009,98.629,110.857,98.696,110.702,98.696z"/>
			<path class="st0" d="M116.298,98.696c-0.156,0-0.307-0.067-0.406-0.195c-0.164-0.212-0.117-0.511,0.107-0.667
				c5.242-3.673,13.856-3.979,14.221-3.99c0.243-0.033,0.507,0.197,0.517,0.461c0.009,0.264-0.208,0.484-0.485,0.493
				c-0.086,0.002-8.669,0.309-13.658,3.804C116.504,98.665,116.4,98.696,116.298,98.696z"/>
			<path class="st0" d="M110.702,102.224c-0.103,0-0.206-0.031-0.296-0.093c-4.989-3.494-13.572-3.802-13.658-3.805
				c-0.277-0.008-0.494-0.229-0.485-0.492c0.009-0.263,0.278-0.47,0.518-0.462c0.363,0.012,8.978,0.317,14.219,3.99
				c0.223,0.157,0.271,0.455,0.107,0.668C111.009,102.157,110.857,102.224,110.702,102.224z"/>
			<path class="st0" d="M116.298,102.224c-0.156,0-0.307-0.067-0.406-0.195c-0.164-0.212-0.117-0.511,0.107-0.668
				c5.242-3.673,13.856-3.978,14.221-3.99c0.243-0.025,0.507,0.198,0.517,0.462c0.009,0.263-0.208,0.484-0.485,0.492
				c-0.086,0.002-8.669,0.31-13.658,3.805C116.504,102.194,116.4,102.224,116.298,102.224z"/>
			<path class="st0" d="M110.702,105.752c-0.103,0-0.206-0.031-0.296-0.092c-4.989-3.494-13.572-3.802-13.658-3.805
				c-0.277-0.008-0.494-0.229-0.485-0.492c0.009-0.264,0.278-0.482,0.518-0.462c0.363,0.012,8.978,0.317,14.219,3.99
				c0.223,0.157,0.271,0.455,0.107,0.667C111.009,105.685,110.857,105.752,110.702,105.752z"/>
			<path class="st0" d="M116.298,105.752c-0.156,0-0.307-0.067-0.406-0.195c-0.164-0.211-0.117-0.51,0.107-0.667
				c5.242-3.673,13.856-3.978,14.221-3.99c0.243-0.039,0.507,0.197,0.517,0.462c0.009,0.263-0.208,0.484-0.485,0.492
				c-0.086,0.002-8.669,0.31-13.658,3.805C116.504,105.721,116.4,105.752,116.298,105.752z"/>
			<path class="st0" d="M110.702,109.28c-0.103,0-0.206-0.029-0.296-0.092c-4.989-3.496-13.572-3.802-13.658-3.805
				c-0.276-0.008-0.494-0.229-0.485-0.492c0.009-0.264,0.278-0.474,0.518-0.461c0.363,0.011,8.978,0.316,14.219,3.989
				c0.223,0.157,0.271,0.455,0.107,0.668C111.009,109.214,110.857,109.28,110.702,109.28z"/>
			<path class="st0" d="M116.298,109.28c-0.156,0-0.307-0.066-0.406-0.193c-0.164-0.212-0.117-0.511,0.107-0.668
				c5.242-3.673,13.856-3.978,14.221-3.989c0.243-0.032,0.507,0.197,0.517,0.461c0.009,0.263-0.208,0.484-0.485,0.492
				c-0.086,0.002-8.669,0.309-13.658,3.805C116.504,109.251,116.4,109.28,116.298,109.28z"/>
			<path class="st0" d="M118.293,150.409c-1.05-0.764-2.049-1.49-3.048-2.217c-0.077,0.014-0.153,0.029-0.231,0.044
				c0.221,0.545,0.296,1.247,0.687,1.608c2.016,1.862,1.166,3.532-0.969,4.679c-0.647,0.348-1.23,0.821-2.053,0.241
				c-0.989-0.698-2.225-1.121-2.509-2.499c-0.193-0.931,0.403-1.524,0.926-2.188c0.396-0.506,0.603-1.16,0.895-1.747
				c-0.088-0.034-0.177-0.067-0.267-0.101c-1.003,0.716-2.006,1.432-3.054,2.181c-0.635-0.511-0.891-1.223-0.735-2.055
				c0.165-0.88,0.924-0.954,1.6-0.957c1.225-0.002,1.599-0.757,1.699-2.109c0.874,0.69,1.554,1.227,2.251,1.778
				c0.697-0.513,1.419-1.043,2.417-1.777c-0.156,1.738,0.688,2.049,1.895,2.167C119.33,147.606,119.554,148.888,118.293,150.409z"/>
			<path class="st0" d="M54.924,89.338c-0.186,1.295-0.427,2.462-0.508,3.639c-0.16,2.31-0.211,4.626-0.356,6.937
				c-0.039,0.613-0.256,1.216-0.394,1.834c0.807,0.567,1.72,0.393,2.39-0.486c0.79-1.037,0.904-2.273,0.953-3.494
				c0.071-1.77,0.046-3.544,0.039-5.316c-0.001-0.222-0.085-0.479-0.217-0.657C56.265,91.031,55.668,90.29,54.924,89.338z"/>
			<path class="st0" d="M172.077,89.363c0.186,1.294,0.427,2.461,0.508,3.638c0.16,2.309,0.21,4.623,0.355,6.932
				c0.039,0.614,0.256,1.216,0.394,1.834c-0.807,0.567-1.719,0.392-2.388-0.485c-0.79-1.037-0.904-2.273-0.953-3.493
				c-0.071-1.768-0.046-3.542-0.04-5.314c0.001-0.221,0.086-0.479,0.218-0.657C170.736,91.056,171.333,90.315,172.077,89.363z"/>
			<path class="st0" d="M49.134,125.848c1.577,0.586,3.173-0.042,3.715-1.698c0.334-1.018,0.49-2.126,0.527-3.199
				c0.088-2.449,0.067-4.903,0.054-7.355c-0.002-0.298-0.232-0.596-0.315-0.79c-1.031,0.593-1.892,1.088-2.846,1.635
				c0,1.922,0.037,3.991-0.014,6.059c-0.028,1.137-0.133,2.284-0.339,3.401C49.797,124.563,49.413,125.177,49.134,125.848z"/>
			<path class="st0" d="M177.866,125.853c-1.576,0.585-3.171-0.042-3.713-1.696c-0.333-1.018-0.49-2.125-0.527-3.198
				c-0.087-2.448-0.067-4.899-0.053-7.35c0.001-0.298,0.232-0.596,0.313-0.789c1.032,0.592,1.892,1.087,2.846,1.634
				c0,1.919-0.037,3.989,0.014,6.056c0.028,1.136,0.132,2.282,0.337,3.4C177.204,124.57,177.587,125.185,177.866,125.853z"/>
			<path class="st0" d="M54.283,112.744c-0.242,3.834,0.369,7.607-0.573,11.314c0.898,0.5,1.724,0.294,2.388-0.612
				c0.734-0.999,0.875-2.175,0.905-3.336c0.078-3.018,0.07-6.038,0.092-9.056c0-0.039-0.054-0.079-0.125-0.173
				C56.392,111.956,55.583,112.702,54.283,112.744z"/>
			<path class="st0" d="M172.718,112.757c0.242,3.833-0.369,7.602,0.572,11.308c-0.897,0.5-1.722,0.293-2.387-0.612
				c-0.733-0.999-0.874-2.174-0.905-3.334c-0.077-3.017-0.068-6.034-0.091-9.052c0-0.039,0.054-0.078,0.124-0.172
				C170.61,111.97,171.418,112.715,172.718,112.757z"/>
			<path class="st0" d="M52.911,102.093c-0.68,0.495-1.122,0.924-1.653,1.174c-0.435,0.205-0.523,0.446-0.518,0.866
				c0.019,1.634,0.061,3.271-0.008,4.903c-0.058,1.341-0.368,2.64-1.272,3.721c1.584,0.898,3.34-0.057,3.749-1.3
				c0.32-0.971,0.563-1.998,0.626-3.014c0.109-1.738,0.113-3.491,0.013-5.229C53.826,102.806,53.209,102.43,52.911,102.093z"/>
			<path class="st0" d="M174.091,102.111c0.678,0.495,1.122,0.924,1.652,1.174c0.437,0.205,0.523,0.445,0.518,0.866
				c-0.019,1.634-0.061,3.269,0.008,4.901c0.058,1.34,0.368,2.639,1.271,3.719c-1.583,0.898-3.339-0.057-3.747-1.299
				c-0.32-0.971-0.563-1.997-0.626-3.013c-0.107-1.737-0.113-3.488-0.013-5.225C173.177,102.824,173.794,102.449,174.091,102.111z"
				/>
			<path class="st0" d="M56.88,101.334c-1.084,1.407-1.158,1.452-2.61,1.584c-0.169,2.935,0.291,5.916-0.584,8.807
				c0.865,0.531,1.678,0.356,2.351-0.494c0.774-0.977,0.911-2.153,0.958-3.314c0.08-1.982,0.057-3.968,0.061-5.952
				C57.058,101.777,56.954,101.589,56.88,101.334z"/>
			<path class="st0" d="M170.122,101.353c1.084,1.407,1.158,1.451,2.608,1.584c0.168,2.933-0.293,5.914,0.584,8.802
				c-0.865,0.53-1.678,0.356-2.35-0.494c-0.774-0.977-0.911-2.152-0.958-3.312c-0.08-1.982-0.057-3.966-0.061-5.951
				C169.944,101.795,170.048,101.607,170.122,101.353z"/>
			<path class="st0" d="M56.224,132.487c-0.409-0.8-0.788-1.541-1.167-2.283c1.432,1.394,2.956,0.153,4.586,0.331
				c-0.162,0.073-0.273,0.114-0.375,0.17c-0.121,0.066-0.241,0.136-0.35,0.218c-0.783,0.584-1.311,1.322-1.369,2.318
				c-0.047,0.809,0.332,1.33,1.076,1.527c0.996,0.263,1.885-0.021,2.18-0.562c-0.656-0.183-1.343-0.375-2.12-0.592
				c1.822-0.69,2.255-2.503,3.467-3.663c1.399,0.09,2.85,0.4,4.311-0.172c0.78,0.559,0.79,0.695,0.071,1.656
				c0.573,0.114,0.891-0.051,1.256-0.657c0.432-0.711,0.439-1.564-0.078-2.046c-0.986-0.921-2.118-0.906-3.503-0.26
				c0.692-1.101,1.254-2.043,1.867-2.952c0.507-0.755,1.094-1.466,0.457-2.454c-0.628-0.055-1.007,0.346-1.403,0.888
				c-0.851,1.169-1.732,2.329-2.72,3.382c-0.875,0.932-1.254,0.939-2.295,0.244c-0.743-0.498-1.435-1.095-2.069-1.726
				c-0.702-0.698-1.507-0.998-2.467-0.86c-0.275,0.04-0.586,0.206-0.774,0.411c-0.743,0.812-0.302,2.555,0.715,3.035
				c-0.034-0.455-0.104-0.925-0.096-1.393c0.008-0.461,0.097-0.921,0.223-1.403c-0.066,1.035,0.6,1.55,1.371,1.968
				c0.859,0.467,1.741,0.894,2.591,1.483c-0.687-0.093-1.371-0.254-2.059-0.261c-0.831-0.008-1.734-0.066-2.477,0.222
				c-1.225,0.473-1.378,1.604-0.492,2.581C55.041,132.146,55.543,132.618,56.224,132.487z"/>
			<path class="st0" d="M170.778,132.49c0.408-0.799,0.787-1.541,1.166-2.282c-1.432,1.394-2.955,0.153-4.583,0.331
				c0.162,0.072,0.273,0.114,0.375,0.17c0.12,0.066,0.24,0.136,0.349,0.218c0.783,0.584,1.311,1.321,1.368,2.317
				c0.046,0.808-0.331,1.33-1.075,1.525c-0.997,0.262-1.885-0.021-2.18-0.56c0.656-0.184,1.343-0.375,2.12-0.593
				c-1.822-0.689-2.255-2.501-3.466-3.661c-1.398,0.09-2.849,0.4-4.308-0.171c-0.78,0.558-0.789,0.694-0.071,1.654
				c-0.572,0.116-0.889-0.051-1.256-0.656c-0.431-0.711-0.438-1.563,0.078-2.044c0.986-0.921,2.118-0.906,3.501-0.258
				c-0.692-1.101-1.254-2.043-1.866-2.952c-0.507-0.754-1.094-1.465-0.457-2.453c0.628-0.054,1.006,0.346,1.402,0.888
				c0.851,1.168,1.731,2.328,2.719,3.38c0.875,0.932,1.254,0.94,2.293,0.244c0.743-0.498,1.435-1.094,2.068-1.725
				c0.702-0.697,1.507-0.997,2.466-0.859c0.275,0.039,0.586,0.205,0.774,0.409c0.743,0.812,0.302,2.554-0.715,3.034
				c0.034-0.454,0.104-0.924,0.096-1.392c-0.008-0.461-0.097-0.921-0.223-1.402c0.066,1.033-0.6,1.548-1.37,1.967
				c-0.859,0.466-1.74,0.893-2.59,1.481c0.685-0.092,1.371-0.252,2.057-0.26c0.829-0.008,1.733-0.066,2.476,0.222
				c1.225,0.472,1.376,1.604,0.491,2.58C171.96,132.15,171.458,132.62,170.778,132.49z"/>
			<path class="st0" d="M88.653,128.323c-1.346-0.608-2.516-0.695-3.507,0.306c-0.537,0.542-0.473,1.219-0.166,1.855
				c0.267,0.551,0.61,1.054,1.463,0.967c-0.61-0.667-0.995-1.293-0.3-1.707c0.962,0.103,1.774,0.388,2.483,0.224
				c1.735-0.401,2.749,0.296,3.533,1.748c0.44,0.814,0.958,1.65,2.059,1.845c-0.72,0.199-1.44,0.398-2.147,0.593
				c0.215,0.537,1.114,0.84,2.146,0.583c0.753-0.189,1.212-0.842,1.114-1.61c-0.159-1.254-0.902-2.098-1.938-2.766
				c0.735,0.099,1.477,0.16,2.203,0.304c0.866,0.173,1.648,0.19,2.26-0.635c-0.398,0.782-0.796,1.564-1.18,2.317
				c0.569,0.163,1.456-0.335,1.929-1.24c0.407-0.775,0.27-1.431-0.431-1.973c-0.832-0.644-1.771-0.675-2.758-0.48
				c-0.698,0.138-1.406,0.229-2.139,0.269c1.399-1.14,3.837-1.131,4.081-3.674c0,1.024,0,2.049,0,3.051
				c0.797-0.34,1.301-1.676,0.957-2.634c-0.286-0.794-1.121-1.15-2.165-0.8c-0.477,0.159-0.901,0.511-1.308,0.828
				c-0.776,0.608-1.522,1.254-2.285,1.881c-0.663,0.546-1.319,0.38-1.855-0.149c-0.685-0.676-1.312-1.418-1.925-2.162
				c-0.402-0.49-0.782-1.01-1.09-1.562c-0.33-0.59-0.775-0.882-1.413-0.848c-0.418,0.873-0.151,1.584,0.389,2.325L88.653,128.323z"
				/>
			<path class="st0" d="M140.729,123.073c0.418,0.86,0.151,1.561-0.389,2.291c-0.694,0.934-1.266,1.956-1.99,3.096
				c1.345-0.598,2.515-0.684,3.506,0.301c0.536,0.533,0.472,1.201,0.165,1.826c-0.265,0.543-0.609,1.037-1.462,0.952
				c0.61-0.656,0.994-1.274,0.3-1.68c-0.961,0.1-1.774,0.382-2.482,0.221c-1.733-0.395-2.748,0.291-3.531,1.721
				c-0.441,0.801-0.958,1.624-2.057,1.817c0.718,0.196,1.439,0.392,2.145,0.584c-0.214,0.529-1.113,0.827-2.144,0.573
				c-0.753-0.185-1.212-0.828-1.114-1.584c0.159-1.235,0.902-2.066,1.937-2.725c-0.735,0.098-1.476,0.158-2.201,0.301
				c-0.866,0.17-1.647,0.186-2.259-0.625c0.399,0.77,0.796,1.541,1.179,2.282c-0.567,0.159-1.455-0.33-1.928-1.221
				c-0.406-0.764-0.27-1.409,0.431-1.943c0.831-0.634,1.77-0.664,2.757-0.472c0.698,0.136,1.406,0.225,2.138,0.264
				c-1.398-1.122-3.834-1.115-4.078-3.617c0,1.009,0,2.017,0,3.004c-0.797-0.335-1.3-1.65-0.957-2.593
				c0.286-0.782,1.121-1.133,2.165-0.789c0.475,0.158,0.9,0.504,1.306,0.816c0.777,0.598,1.523,1.235,2.284,1.852
				c0.664,0.538,1.319,0.374,1.855-0.146c0.685-0.667,1.311-1.397,1.924-2.131c0.402-0.481,0.781-0.994,1.09-1.537
				C139.646,123.328,140.091,123.04,140.729,123.073z"/>
			<path class="st0" d="M60.503,108.713c-1.291,1.525-1.291,1.525-2.724,1.93c-0.252,3.275,0.343,6.591-0.475,9.858
				c0.749,0.487,1.463,0.376,2.125-0.359c0.822-0.914,1.02-2.067,1.061-3.2c0.097-2.67,0.076-5.343,0.098-8.015
				C60.588,108.862,60.536,108.796,60.503,108.713z"/>
			<path class="st0" d="M166.499,108.728c1.289,1.524,1.289,1.524,2.723,1.929c0.252,3.273-0.344,6.588,0.475,9.853
				c-0.749,0.486-1.463,0.376-2.124-0.359c-0.822-0.914-1.021-2.067-1.062-3.198c-0.096-2.669-0.074-5.341-0.097-8.01
				C166.414,108.877,166.466,108.81,166.499,108.728z"/>
			<path class="st0" d="M60.704,116.996c0.914,0.538,1.942,0.353,2.433-0.677c0.458-0.96,0.788-2.05,0.856-3.103
				c0.148-2.256,0.091-4.523,0.113-6.786c0-0.07-0.042-0.14-0.07-0.228c-1.024,1.377-1.175,1.471-2.758,1.73
				C61.063,110.945,61.587,114.019,60.704,116.996z"/>
			<path class="st0" d="M166.296,117.007c-0.914,0.538-1.941,0.353-2.431-0.677c-0.457-0.959-0.787-2.048-0.855-3.1
				c-0.147-2.254-0.091-4.521-0.113-6.782c-0.001-0.07,0.041-0.14,0.07-0.228c1.023,1.376,1.174,1.471,2.756,1.728
				C165.938,110.959,165.414,114.031,166.296,117.007z"/>
			<path class="st0" d="M64.437,113.405c0.74,0.381,1.678,0.182,2.224-0.831c0.403-0.748,0.739-1.621,0.78-2.454
				c0.107-2.159,0.037-4.327,0.037-6.405c-1.069,1.504-1.207,1.606-2.614,1.89C64.723,108.176,64.583,110.74,64.437,113.405z"/>
			<path class="st0" d="M162.563,113.418c-0.74,0.381-1.676,0.182-2.221-0.831c-0.405-0.748-0.739-1.62-0.78-2.453
				c-0.109-2.158-0.037-4.325-0.037-6.401c1.068,1.503,1.207,1.604,2.613,1.889C162.278,108.192,162.417,110.754,162.563,113.418z"
				/>
			<path class="st0" d="M60.423,100.685c-0.799,0.454-1.667,0.947-2.588,1.471c-0.127,2.26-0.265,4.715-0.412,7.306
				c0.616,0.386,1.613,0.232,2.144-0.715c0.427-0.759,0.766-1.654,0.819-2.508C60.505,104.329,60.423,102.407,60.423,100.685z"/>
			<path class="st0" d="M166.578,100.704c0.799,0.454,1.666,0.947,2.587,1.471c0.127,2.259,0.267,4.713,0.413,7.301
				c-0.617,0.386-1.613,0.232-2.145-0.714c-0.425-0.759-0.763-1.653-0.818-2.508C166.497,104.347,166.578,102.426,166.578,100.704z"
				/>
			<path class="st0" d="M57.765,92.548c-0.156,2.805,0.269,5.545-0.571,8.19c0.816,0.563,1.825,0.461,2.308-0.474
				c0.498-0.964,0.684-2.083,1-3.137c0.031-0.101,0.019-0.216,0.018-0.326c-0.007-0.95,0.321-2.112-0.119-2.794
				C59.943,93.297,58.744,93.051,57.765,92.548z"/>
			<path class="st0" d="M169.235,92.572c0.157,2.804-0.268,5.541,0.571,8.185c-0.815,0.563-1.824,0.461-2.306-0.474
				c-0.497-0.963-0.683-2.082-0.999-3.135c-0.031-0.101-0.019-0.216-0.018-0.324c0.007-0.951-0.321-2.112,0.119-2.794
				C167.06,93.321,168.257,93.074,169.235,92.572z"/>
			<path class="st0" d="M63.783,99.465c-0.545,0.977-1.412,1.291-2.424,1.272c-0.158,2.073-0.313,4.113-0.477,6.27
				c0.53,0.354,1.384,0.355,1.901-0.372c0.501-0.705,0.927-1.565,1.05-2.407c0.219-1.512,0.188-3.061,0.261-4.594
				C63.989,99.578,63.887,99.522,63.783,99.465z"/>
			<path class="st0" d="M163.22,99.485c0.545,0.976,1.412,1.289,2.423,1.272c0.157,2.072,0.311,4.11,0.475,6.266
				c-0.529,0.354-1.383,0.356-1.899-0.37c-0.5-0.705-0.927-1.566-1.049-2.405c-0.221-1.511-0.189-3.059-0.261-4.593
				C163.012,99.598,163.116,99.542,163.22,99.485z"/>
			<path class="st0" d="M61.354,94.275c-0.169,1.853-0.334,3.676-0.503,5.551c0.749,0.37,1.507,0.241,2.122-0.512
				c0.962-1.177,1.025-2.597,1.032-4.018c0-0.116-0.153-0.3-0.273-0.336C62.926,94.708,62.111,94.49,61.354,94.275z"/>
			<path class="st0" d="M165.648,94.299c0.168,1.851,0.331,3.674,0.503,5.547c-0.75,0.369-1.507,0.241-2.121-0.512
				c-0.961-1.176-1.025-2.595-1.032-4.016c-0.001-0.116,0.153-0.3,0.273-0.336C164.074,94.732,164.89,94.512,165.648,94.299z"/>
			<path class="st0" d="M98.641,122.858c-0.196,0.024-0.33-0.133-0.344-0.462c-0.018-0.382,0.139-0.544,0.337-0.578
				c0.109-0.02,0.219-0.008,0.329-0.008c7.667,0,15.335,0,23.004,0.001c2.041,0,4.083-0.001,6.124,0.002
				c0.136,0,0.277-0.001,0.407,0.057c0.145,0.065,0.228,0.264,0.205,0.54c-0.021,0.262-0.101,0.441-0.27,0.442
				C128.323,122.853,98.723,122.849,98.641,122.858z"/>
			<path class="st0" d="M117.252,137.874c1.649-0.961,3.373-1.734,5.335-1.876C120.758,136.511,118.985,137.138,117.252,137.874z
				 M104.122,135.954c1.982-0.08,5.227,1.507,6.321,2.277C108.416,137.276,106.323,136.492,104.122,135.954z M127.635,134.195
				c-0.373-0.005-0.749,0-1.118-0.044c-1.589-0.185-3.172-0.133-4.747,0.106c-2.781,0.423-5.219,1.602-7.402,3.261
				c-0.298,0.225-0.571,0.475-0.858,0.714c-1.109-0.911-2.285-1.753-3.608-2.446c-2.326-1.218-4.838-1.74-7.461-1.747
				c-1.036-0.002-2.075,0.152-3.117,0.156c-0.416,0-0.405,0.193-0.257,0.466c0.545,1.009,1.162,1.969,2.091,2.703
				c0.853,0.675,1.806,1.042,2.945,0.862c0.302-0.047,0.547-0.313,0.887-0.214c-0.298,1.039,0.104,2.062,1.099,2.612
				c0.572,0.316,0.956,0.697,1.141,1.328c0.189,0.644,1.089,1.055,1.827,0.972c-0.354,0.474-0.708,0.95-1.035,1.448
				c-0.267,0.405-0.635,0.787-0.693,1.358c0.109-0.046,0.176-0.054,0.208-0.091c1.054-1.209,2.459-1.908,3.94-2.489
				c0.602-0.236,1.226-0.394,1.858-0.499c2.237,0.366,4.225,1.135,5.849,2.709c0.127,0.123,0.217,0.323,0.487,0.295
				c0.046-0.228-0.08-0.401-0.195-0.569c-0.449-0.663-0.888-1.334-1.365-1.98c-0.053-0.072-0.114-0.137-0.169-0.209
				c0.958,0.125,1.863-0.429,1.964-1.373c0.032-0.291,0.156-0.42,0.412-0.539c1.248-0.578,2.006-1.439,1.718-2.872
				c-0.007-0.034,0.009-0.073,0.022-0.151c1.338,0.385,1.75,0.4,2.487,0.114c1.676-0.65,2.646-1.944,3.408-3.431
				C128.123,134.32,127.977,134.2,127.635,134.195z"/>
			<path class="st0" d="M115.519,64.581c-0.393-0.032-0.78-0.071-1.167-0.093c-0.288-0.015-0.426-0.118-0.314-0.424
				c0.043-0.114,0.07-0.235,0.107-0.352c0.113-0.348-0.026-0.544-0.32-0.76c-0.439-0.324-0.681,0.035-0.979,0.191
				c-0.348,0.183-0.098,0.412-0.012,0.623c0.232,0.565,0.163,0.681-0.438,0.726c-1.475,0.109-1.426,0.086-2.079-1.287
				c-0.314-0.661-0.12-0.941,0.433-1.248c0.821-0.455,1.612-0.965,2.411-1.458c0.227-0.14,0.413-0.175,0.667-0.012
				c0.893,0.576,1.805,1.12,2.709,1.675c0.283,0.173,0.382,0.366,0.205,0.707c-0.205,0.396-0.34,0.832-0.488,1.256
				C116.129,64.488,115.91,64.674,115.519,64.581z"/>
			<path class="st0" d="M116.313,65.037c-0.251,0.185-0.474,0.177-0.785,0.138c-1.363-0.171-2.733-0.183-4.097,0.009
				c-0.24,0.034-0.448,0.142-0.682-0.071c-1.226-1.118-2.444-2.243-3.181-3.772c-0.418-0.867-0.649-1.759-0.273-2.712
				c0.314-0.794,0.88-1.154,1.744-1.05c1.456,0.118,2.676,0.825,3.775,1.713c0.525,0.425,0.86,0.424,1.347,0.007
				c0.865-0.737,1.882-1.222,2.948-1.604c1.488-0.533,3.087,0.573,2.821,1.993c-0.169,0.899-0.425,1.779-0.997,2.542
				C118.159,63.261,117.363,64.263,116.313,65.037z M128.313,63.718c0.293-0.347,0.593-0.731,0.402-1.22
				c-0.091-0.234-0.092-0.42-0.029-0.646c0.184-0.677-0.168-1.564-0.749-1.941c-0.444-0.287-1.028-0.248-1.334,0.101
				c-0.124,0.14-0.204,0.317-0.131,0.506c0.054,0.142,0.152,0.264,0.331,0.263c0.202-0.001,0.353-0.065,0.415-0.284
				c0.05-0.171,0.112-0.103,0.184,0.004c0.202,0.296,0.241,0.623,0.19,0.964c-0.09,0.595-0.435,1.048-0.839,1.46
				c-0.688,0.702-1.503,1.233-2.321,1.76c0.849-1.042,1.476-2.172,1.505-3.218c0.001-2.238-1.366-3.901-3.125-4.202
				c-0.571-0.098-0.652-0.006-0.508,0.571c0.103,0.414,0.295,0.805,0.297,1.246c0.001,0.195,0.157,0.315,0.307,0.435
				c1.002,0.808,1.146,1.576,0.592,2.744c-0.691,1.458-1.876,2.447-3.119,3.393c-0.349,0.264-0.667,0.333-1.105,0.181
				c-0.42-0.146-0.461-0.231-0.156-0.551c0.422-0.442,0.841-0.898,1.197-1.393c1.127-1.569,1.964-3.208,1.588-5.266
				c-0.353-1.934-2.203-3.404-4.156-3.188c-0.357,0.04-0.707,0.107-1.048,0.192c0.087-0.297,0.147-0.603,0.144-0.919
				c-0.02-1.827-1.464-3.248-3.316-3.26c-1.984-0.014-3.36,1.33-3.376,3.299c-0.002,0.308,0.046,0.599,0.114,0.881
				c-0.314-0.08-0.637-0.143-0.97-0.185c-3.071-0.387-4.866,2.769-4.173,5.367c0.446,1.67,1.425,3.013,2.54,4.284
				c0.153,0.175,0.49,0.31,0.383,0.566c-0.103,0.247-0.477,0.159-0.709,0.291c-0.164,0.094-0.311-0.063-0.444-0.145
				c-0.902-0.572-1.732-1.238-2.421-2.057c-0.367-0.437-0.702-0.898-0.96-1.415c-0.494-0.987-0.487-1.894,0.204-2.456
				c0.526-0.428,0.756-0.918,0.825-1.547c0.016-0.159,0.081-0.316,0.136-0.468c0.068-0.189,0.216-0.39,0.048-0.571
				c-0.163-0.176-0.385-0.058-0.58-0.018c-2.385,0.477-3.746,3.061-2.764,5.428c0.296,0.71,0.684,1.353,1.134,1.949
				c-0.801-0.517-1.596-1.039-2.271-1.727c-0.403-0.413-0.749-0.866-0.838-1.46c-0.051-0.341-0.013-0.668,0.189-0.964
				c0.072-0.106,0.136-0.175,0.185-0.004c0.063,0.219,0.212,0.283,0.414,0.284c0.179,0.001,0.277-0.121,0.333-0.263
				c0.073-0.189-0.008-0.366-0.131-0.506c-0.308-0.349-0.891-0.388-1.335-0.101c-0.582,0.376-0.932,1.264-0.748,1.941
				c0.061,0.226,0.06,0.413-0.031,0.646c-0.191,0.488,0.11,0.873,0.403,1.22c0.206,0.245,0.45,0.464,0.697,0.669
				c0.139,0.117,0.138,0.162-0.016,0.247c-0.149,0.081-0.275,0.235-0.249,0.392c0.052,0.313-0.126,0.5-0.277,0.727
				c-0.231,0.348-0.19,1.012,0.068,1.473c0.59-0.985,1.544-1.05,2.567-1.057c-0.203,0.415-0.241,0.79-0.046,1.183
				c0.083,0.169,0.122,0.131,0.218,0.027c0.703-0.754,1.905-0.551,2.35,0.349c0.005,0.074,0.031,0.151,0.083,0.234
				c0.065,0.291,0.008,0.582-0.154,0.849c-0.091,0.149-0.156,0.12-0.267,0.004c-0.32-0.336-0.793-0.336-1.122-0.017
				c-0.263,0.255-0.274,0.779,0.001,1.062c0.323,0.333,0.743,0.29,1.127,0.18c0.626-0.179,1.051-0.637,1.258-1.199
				c0.196,0.203,0.385,0.413,0.551,0.637c0.308,0.414,0.544,0.467,1.002,0.208c1.557-0.882,3.296-1.183,5.042-1.36
				c1.771-0.178,3.539-0.14,5.306,0.191c1.335,0.251,2.634,0.571,3.825,1.227c0.357,0.198,0.562,0.113,0.786-0.139
				c0.217-0.245,0.433-0.492,0.649-0.739c0.211,0.55,0.631,0.997,1.248,1.174c0.382,0.11,0.803,0.152,1.127-0.18
				c0.275-0.283,0.264-0.807,0.001-1.062c-0.329-0.32-0.803-0.32-1.123,0.017c-0.11,0.117-0.176,0.145-0.265-0.004
				c-0.184-0.302-0.262-0.632-0.144-0.962c0.009-0.018,0.013-0.034,0.019-0.051c0.408-0.973,1.678-1.196,2.403-0.42
				c0.096,0.104,0.134,0.142,0.218-0.027c0.193-0.393,0.156-0.768-0.046-1.183c1.022,0.007,1.977,0.072,2.567,1.057
				c0.257-0.461,0.298-1.125,0.067-1.473c-0.15-0.226-0.329-0.414-0.276-0.727c0.026-0.157-0.101-0.31-0.25-0.392
				c-0.155-0.085-0.156-0.13-0.015-0.247C127.863,64.181,128.106,63.963,128.313,63.718z"/>
			<path class="st0" d="M158.595,81.199c-0.066,0.614-0.101,1.23-0.138,1.847c-0.063,1.082-0.123,2.105-0.357,3.065
				c-0.116,0.471-0.135,0.913-0.149,1.268c-0.008,0.171-0.011,0.343-0.039,0.513c-0.114,0.72-0.216,1.44-0.316,2.161
				c-0.131,0.936-0.269,1.819-0.425,2.705c-0.181-0.458-0.367-0.914-0.552-1.37c-0.406-1-0.774-2.047-0.94-3.105
				c-0.549-3.494-0.982-7.008-2.828-9.974c0.294-0.553,0.529-0.997,0.774-1.458c-1.091-0.097-1.996-0.18-2.901-0.256
				c-1.346-0.113-2.692-0.285-4.039-0.31c-0.861-0.015-1.746,0.209-2.177,1.079c-0.419,0.848,0.006,1.578,0.495,2.264
				c0.159,0.223,0.326,0.441,0.51,0.644c0.664,0.734,1.338,1.461,2.008,2.19c-1.722-1.177-3.267-2.486-3.559-4.713
				c-1.46,0.168-2.58,0.984-2.887,2.102c-0.287,1.036,0.165,1.813,0.921,2.608c0.044-0.357,0.039-0.602,0.107-0.823
				c0.228-0.744,0.996-1.104,1.623-0.733c0.879,0.521,1.729,1.089,2.38,1.503c-1.061,0.211-2.342,0.467-3.622,0.722
				c1.129,0.954,2.139-0.142,3.266-0.362c-0.204,0.354-0.367,0.637-0.565,0.983c0.913-0.408,1.715-0.764,2.518-1.122
				c0.768,0.621,0.794,1.478,0.593,2.296c-0.238,0.969-0.547,1.948-1.006,2.831c-0.918,1.765-1.986,3.453-2.939,5.2
				c-0.492,0.904-0.989,1.833-1.279,2.81c-0.592,2-0.389,4.054-0.079,6.077c0.392,2.551,0.887,5.087,1.301,7.635
				c0.162,0.99,0.226,1.994,0.349,3.13c0.557-1.944,0.821-2.158,2.444-1.814c-0.769,0.642-1.457,1.194-1.781,2.047
				c-0.116,0.303-0.652,0.472-1.02,0.655c-1.07,0.534-1.744,1.396-2.173,2.47c-0.183,0.454-0.382,0.905-0.527,1.371
				c-0.615,1.991-1.633,3.568-4.265,3.78c0.625,0.583,0.989,1.16,1.495,1.337c0.675,0.235,1.462,0.158,2.278,0.221
				c0.326,1.168,1.049,2.184,2.397,2.656c0.077-0.759,0.014-1.492,0.237-2.129c1.037-2.952,3.183-4.799,5.991-5.939
				c-0.137,0.308-0.269,0.618-0.408,0.925c-0.033-0.022-0.067-0.045-0.101-0.067c-0.773,0.508-1.573,0.984-2.304,1.544
				c-0.262,0.201-0.432,0.592-0.516,0.927c-0.264,1.049-0.4,2.134-0.715,3.165c-0.335,1.097-0.94,2.026-2.266,2.121
				c0.072,0.682,0.61,1.141,1.262,1.332c-2.698,4.633-5.774,9.072-9.143,13.198c-0.296,0.363-0.618,0.714-0.92,1.075
				c-1.987,0.029-3.958,0.243-5.857,0.997c-1.356,0.538-2.093,1.429-2.266,2.969c-0.171,1.516-0.618,3.019-1.097,4.476
				c-0.225,0.682-0.498,1.352-0.787,2.035c-1.153,1.057-2.357,2.127-3.643,3.227c-2.413,2.062-4.981,4.008-7.431,5.814
				c-2.129-1.541-4.245-3.171-6.446-4.97c-1.451-1.187-2.886-2.45-4.305-3.743c-0.177-0.415-0.353-0.827-0.488-1.245
				c-0.6-1.838-1.269-3.677-1.601-5.571c-0.29-1.658-0.611-2.591-2.271-2.991c-1.958-0.473-3.973-0.901-5.974-0.979
				c-0.206-0.247-0.434-0.485-0.637-0.731c-2.398-2.929-4.594-5.901-6.522-8.835c-0.999-1.521-1.963-3.096-2.913-4.738
				c0.643-0.195,1.17-0.65,1.242-1.325c-1.326-0.097-1.932-1.025-2.267-2.121c-0.315-1.033-0.451-2.119-0.715-3.169
				c-0.085-0.335-0.255-0.727-0.517-0.927c-0.731-0.56-1.531-1.036-2.305-1.545c-0.029,0.02-0.059,0.04-0.09,0.06
				c-0.134-0.295-0.255-0.608-0.388-0.905c2.795,1.141,4.929,2.987,5.961,5.928c0.224,0.637,0.162,1.372,0.238,2.131
				c1.348-0.472,2.073-1.489,2.398-2.657c0.816-0.063,1.603,0.014,2.278-0.221c0.508-0.176,0.872-0.754,1.496-1.337
				c-2.633-0.212-3.651-1.79-4.267-3.782c-0.144-0.466-0.344-0.917-0.526-1.372c-0.429-1.075-1.104-1.936-2.174-2.47
				c-0.369-0.184-0.906-0.353-1.022-0.656c-0.324-0.853-1.012-1.405-1.783-2.048c1.625-0.343,1.89-0.13,2.446,1.816
				c0.124-1.137,0.189-2.142,0.349-3.131c0.415-2.551,0.911-5.087,1.302-7.64c0.311-2.024,0.513-4.08-0.079-6.08
				c-0.29-0.977-0.787-1.908-1.279-2.811c-0.954-1.748-2.022-3.438-2.941-5.203c-0.459-0.884-0.769-1.864-1.006-2.834
				c-0.201-0.816-0.173-1.672,0.59-2.291c0.797,0.355,1.597,0.711,2.507,1.116c-0.198-0.344-0.361-0.628-0.565-0.983
				c1.125,0.222,2.136,1.318,3.267,0.363c-1.281-0.256-2.564-0.512-3.624-0.723c0.651-0.413,1.502-0.983,2.381-1.503
				c0.628-0.373,1.397-0.012,1.624,0.733c0.068,0.222,0.064,0.466,0.107,0.825c0.756-0.796,1.208-1.574,0.923-2.611
				c-0.308-1.118-1.429-1.936-2.889-2.103c-0.29,2.208-1.811,3.514-3.516,4.684c0.661-0.718,1.325-1.435,1.98-2.159
				c0.184-0.203,0.35-0.421,0.51-0.644c0.49-0.685,0.916-1.417,0.495-2.265c-0.431-0.871-1.317-1.095-2.178-1.079
				c-1.348,0.025-2.695,0.196-4.041,0.309c-0.906,0.077-1.811,0.16-2.902,0.257c0.244,0.461,0.479,0.905,0.773,1.458
				c-1.846,2.968-2.28,6.484-2.829,9.979c-0.165,1.059-0.534,2.106-0.941,3.106c-0.177,0.439-0.355,0.878-0.53,1.318
				c-0.032-0.189-0.06-0.378-0.092-0.565c-0.132-0.752-0.263-1.503-0.369-2.259c-0.073-0.533-0.137-1.07-0.201-1.604
				c-0.093-0.782-0.186-1.564-0.309-2.338c-0.131-0.809-0.185-1.637-0.242-2.515c-0.059-0.91-0.121-1.849-0.274-2.81
				c-0.129-0.815-0.131-1.692-0.133-2.62c-0.001-0.361-0.002-0.722-0.011-1.082c-0.051-2.289-0.048-4.628-0.046-6.891v-0.409
				c1.18,0.533,2.4,1.083,3.683,1.542c2.028,0.724,3.951,1.282,5.878,1.704c2.063,0.453,4.13,0.888,6.204,1.291
				c1.03,0.199,2.063,0.337,3.063,0.472l0.412,0.055c1.689,0.23,3.381,0.454,5.075,0.654c0.667,0.078,1.334,0.145,2.001,0.212
				c0.826,0.083,1.649,0.165,2.467,0.271c0.689,0.088,1.383,0.136,2.075,0.182c0.899,0.06,1.748,0.117,2.558,0.273
				c0.685,0.132,1.353,0.145,1.943,0.156c0.249,0.005,0.497,0.008,0.744,0.024l1.957,0.122c1.976,0.126,4.018,0.257,6.054,0.3
				c2.627,0.057,5.224-0.071,7.646-0.214l1.088-0.063c1.311-0.073,2.664-0.149,4.008-0.281c1.003-0.099,2.008-0.189,3.013-0.278
				c1.509-0.136,3.017-0.27,4.521-0.437c2.047-0.226,3.893-0.435,5.755-0.715c3.224-0.48,5.889-0.937,8.388-1.433
				c3.652-0.727,6.572-1.538,9.184-2.552c0.998-0.387,1.962-0.823,2.897-1.251l0.007,4.547
				C158.826,76.602,158.843,78.901,158.595,81.199z M150.027,78.539c-0.247,0-0.497-0.006-0.743-0.034
				c-0.661-0.076-1.335-0.336-1.845,0.411c-0.103,0.15-0.578,0.144-0.845,0.074c-0.439-0.113-0.847-0.337-1.357-0.552
				c1.798-1.011,3.66-0.168,5.507,0.068C150.504,78.518,150.266,78.539,150.027,78.539z M151.094,142.054
				c-0.836-0.081-1.673-0.178-2.51-0.243c-3.018-0.232-6.036-0.584-9.056-0.661c0.251-0.321,0.504-0.639,0.751-0.964
				C143.947,140.198,147.56,140.719,151.094,142.054z M78.416,141.811c-0.838,0.065-1.673,0.162-2.509,0.243
				c3.545-1.338,7.169-1.859,10.849-1.867c0.247,0.322,0.504,0.642,0.756,0.963C84.478,141.223,81.448,141.577,78.416,141.811z
				 M76.271,78.474c1.847-0.235,3.71-1.079,5.509-0.068c-0.51,0.215-0.919,0.439-1.357,0.553c-0.268,0.07-0.742,0.076-0.846-0.074
				c-0.51-0.748-1.184-0.486-1.846-0.411c-0.245,0.027-0.495,0.034-0.743,0.034C76.749,78.508,76.51,78.487,76.271,78.474z
				 M73.886,67.841c0.254-0.027,0.506-0.077,0.76-0.087c2.723-0.112,5.133,0.799,7.383,2.253c0.018,0.012,0.033,0.026,0.052,0.039
				c-1.187-0.245-2.378-0.481-3.56-0.741c-1.61-0.353-3.231-0.827-4.922-1.411C73.697,67.876,73.792,67.851,73.886,67.841z
				 M85.594,69.875c0-0.473,1.368,0.557,2.393,1.207c-0.026-0.004-0.051-0.006-0.076-0.009l-0.415-0.057
				c-0.662-0.088-1.278-0.192-1.904-0.293C85.593,70.441,85.591,70.158,85.594,69.875z M92.684,67.407
				c1.209,2.104,3.369,3.192,5.029,4.815C95.778,70.892,93.268,70.176,92.684,67.407z M134.316,66.859
				c-0.584,2.769-3.094,3.485-5.029,4.814C130.948,70.052,133.108,68.963,134.316,66.859z M141.7,69.875
				c0.001,0.264,0,0.527,0.001,0.79c-0.744,0.125-1.524,0.251-2.333,0.378C140.385,70.39,141.7,69.41,141.7,69.875z M145.264,70.007
				c2.251-1.455,4.66-2.365,7.383-2.253c0.255,0.011,0.507,0.06,0.761,0.087c0.053,0.006,0.106,0.018,0.16,0.029
				c-2.164,0.768-4.586,1.418-7.556,2.009c-0.254,0.051-0.519,0.1-0.777,0.15C145.245,70.022,145.255,70.014,145.264,70.007z
				 M89.022,65.048c-0.196-1.499-0.136-2.723,0.707-3.815C89.508,62.428,89.286,63.624,89.022,65.048z M137.978,64.501
				c-0.264-1.424-0.485-2.62-0.707-3.815C138.115,61.778,138.174,63.002,137.978,64.501z M176.258,96.794
				c-0.256-2.106-0.363-4.232-0.689-6.326c-0.192-1.239-0.681-2.434-1.041-3.665c0.737,0.59,1.424,1.345,2.424,0.951
				c-0.485-0.651-1.026-1.207-1.361-1.864c-0.78-1.527-1.433-3.117-2.185-4.658c-0.743-1.523-1.969-2.539-3.604-3.046
				c-1.508-0.467-2.614,0.1-2.955,1.478c-0.44,1.779,0.304,3.165,1.866,3.404c0.383,0.059,0.79-0.033,1.186-0.055
				c0.014,0.035,0.027,0.071,0.041,0.107c-0.334,0.155-0.668,0.309-1.024,0.473c0.001-0.001-0.021,0.021-0.022,0.046
				c-0.034,0.516-0.063,1.031-0.098,1.545c-0.17,2.446-1.529,4.18-3.923,4.777c-1.194,0.298-2.446,0.396-3.677,0.519
				c-0.005,0-0.008,0.001-0.012,0.001c0.094-0.672,0.186-1.344,0.295-2.014c0.05-0.31,0.067-0.624,0.08-0.937
				c0.009-0.226,0.019-0.44,0.048-0.562c0.314-1.279,0.386-2.516,0.455-3.714c0.032-0.557,0.064-1.114,0.123-1.669
				c0.273-2.506,0.251-5.017,0.232-7.447l-0.007-6.485c0-0.573,0-1.532-0.897-2.136c-0.904-0.609-1.807-0.24-2.401,0.002
				l-0.344,0.15c-0.446,0.197-0.89,0.399-1.333,0.602c-0.972,0.445-1.891,0.864-2.841,1.232c-0.208,0.081-0.434,0.153-0.647,0.231
				c-2.436-1.091-4.902-1.476-7.51-0.924c0.373-0.577,0.945-0.854,2.778-1.292c1.021-0.243,2.056-0.3,3.104-0.17
				c1.05,0.131,2.081,0.337,3.103,0.639c-0.667-0.72-1.499-1.149-2.404-1.468c-1.817-0.638-3.67-0.545-5.532-0.308
				c-0.076,0.112-0.242,0.16-0.281,0.073c-0.064-0.144,0.136-0.101,0.21-0.158c1.061-0.816,2.299-1.208,3.571-1.537
				c1.045-0.27,2.107-0.165,3.255-0.19c-0.595-0.447-1.238-0.429-1.829-0.494c-4.347-0.477-8.429,1.372-10.875,5.443
				c-1.012,2.07-1.72,3.146-2.218,3.7c-0.501,0.078-0.996,0.156-1.527,0.235c-1.798,0.268-3.609,0.475-5.619,0.697
				c-0.139,0.015-0.28,0.025-0.418,0.04c2.972-1.12,5.26-3.057,6.378-6.131c0.854-2.352,1.571-4.8,0.884-7.362
				c-0.777-2.89-4.271-4.58-6.963-3.293c-0.7,0.335-1.253,1.046-1.77,1.671c-0.315,0.382-0.178,0.596,0.37,1.024
				c0.914-1.308,2.381-1.655,3.293-0.871c-0.694,0.105-1.431,0.216-2.134,0.322c0.504,0.774,0.86,1.494,1.376,2.072
				c0.767,0.859,1.627,1.64,2.486,2.413c1.269,1.142,1.696,3.523,0.845,5c-0.065,0.112-0.206,0.181-0.511,0.437
				c0.479-1.463,0.477-2.733-0.419-3.697c-0.642-0.693-1.571-1.12-2.525-1.59c0.806,1.98-1.321,2.913-1.363,4.541
				c-0.399-0.105-0.772-0.204-1.196-0.315c-0.165,1.981-1.57,2.926-2.874,3.952c-0.917,0.721-1.693,1.527-2.288,2.437
				c-0.221,0.02-0.441,0.039-0.662,0.06c-1.267,0.126-2.582,0.199-3.852,0.27l-1.103,0.063c-2.346,0.138-4.861,0.256-7.356,0.209
				c-1.958-0.041-3.962-0.17-5.899-0.294l-1.975-0.124c-0.295-0.018-0.595-0.024-0.893-0.028c-0.486-0.008-0.946-0.017-1.324-0.09
				c-0.347-0.067-0.685-0.103-1.025-0.145c-0.478-0.618-1.096-1.182-1.895-1.811c-1.304-1.026-2.709-1.971-2.874-3.952
				c-0.424,0.111-0.798,0.21-1.196,0.315c-0.041-1.628-2.168-2.561-1.363-4.541c-0.954,0.471-1.883,0.898-2.526,1.59
				c-0.894,0.964-0.897,2.234-0.417,3.697c-0.306-0.256-0.447-0.324-0.512-0.437c-0.852-1.477-0.425-3.858,0.846-5
				c0.858-0.773,1.718-1.554,2.485-2.413c0.516-0.578,0.872-1.298,1.376-2.072c-0.703-0.106-1.44-0.217-2.134-0.321
				c0.912-0.786,2.378-0.439,3.293,0.869c0.549-0.428,0.687-0.642,0.37-1.024c-0.517-0.624-1.07-1.335-1.77-1.671
				c-2.692-1.287-6.185,0.402-6.962,3.293c-0.688,2.561,0.028,5.009,0.884,7.362c0.885,2.44,2.505,4.168,4.62,5.338
				c-0.186-0.02-0.375-0.038-0.562-0.06c-1.642-0.192-3.282-0.411-4.922-0.632c-0.499-0.543-1.216-1.623-2.249-3.734
				c-2.446-4.071-6.526-5.92-10.874-5.443c-0.591,0.065-1.235,0.047-1.829,0.494c1.147,0.025,2.208-0.08,3.254,0.19
				c1.273,0.329,2.512,0.721,3.571,1.537c0.074,0.057,0.274,0.014,0.21,0.158c-0.038,0.087-0.205,0.039-0.28-0.073
				c-1.863-0.237-3.716-0.33-5.532,0.308c-0.905,0.319-1.738,0.748-2.404,1.468c1.022-0.302,2.053-0.508,3.103-0.639
				c1.048-0.13,2.082-0.073,3.103,0.17c1.835,0.438,2.407,0.715,2.779,1.292c-2.647-0.56-5.147-0.164-7.619,0.966
				c-0.052-0.019-0.1-0.032-0.152-0.05c-1.169-0.418-2.292-0.925-3.478-1.462c-0.597-0.27-1.195-0.54-1.799-0.799
				c-0.455-0.195-1.399-0.602-2.321,0.008c-0.917,0.605-0.915,1.599-0.914,2.076v2.442c-0.002,2.283-0.004,4.645,0.047,6.976
				c0.008,0.335,0.008,0.671,0.009,1.009c0.002,1.025,0.006,2.086,0.179,3.177c0.126,0.798,0.179,1.615,0.236,2.481
				c0.06,0.923,0.123,1.876,0.278,2.851c0.117,0.724,0.203,1.457,0.29,2.19c0.067,0.562,0.132,1.123,0.211,1.681
				c0.005,0.033,0.012,0.066,0.016,0.1c-0.009-0.001-0.018-0.004-0.027-0.004c-1.233-0.123-2.485-0.222-3.678-0.519
				c-2.396-0.597-3.755-2.332-3.925-4.779c-0.035-0.516-0.065-1.031-0.098-1.547c-0.001-0.025-0.025-0.048-0.024-0.046
				c-0.355-0.164-0.689-0.319-1.024-0.474c0.013-0.035,0.027-0.071,0.041-0.107c0.395,0.022,0.803,0.114,1.187,0.055
				c1.562-0.238,2.306-1.624,1.866-3.405c-0.341-1.378-1.449-1.947-2.956-1.479c-1.636,0.507-2.863,1.524-3.606,3.048
				c-0.752,1.542-1.406,3.132-2.185,4.66c-0.335,0.658-0.878,1.213-1.363,1.865c1.002,0.394,1.687-0.361,2.426-0.952
				c-0.361,1.233-0.849,2.428-1.042,3.668c-0.326,2.095-0.433,4.222-0.689,6.329c-0.244,2.01-0.652,3.978-2.092,5.56
				c1.396,0.997,4.369,0.015,4.715-2.508c0.237-1.721,0.318-3.477,0.313-5.216c-0.007-2.046,0.329-4.002,1.046-5.912
				c0.092-0.247,0.035-0.57-0.02-0.845c-0.402-2.016-0.303-3.992,0.386-5.898c-0.08,1.338-0.274,2.663-0.215,3.977
				c0.099,2.151,1.114,3.913,2.823,5.244c2.619,2.04,5.627,2.986,8.813,3.402c0.013,0.086,0.031,0.172,0.042,0.258l0.055,0.399
				c0.009,0.067,0.02,0.137,0.029,0.204c-0.598-0.078-1.193-0.156-1.8-0.235c-0.077,0.65-0.129,1.241-0.218,1.826
				c-0.084,0.558-0.206,1.11-0.322,1.719c1.206,0.549,2.167,0.055,2.739-1.331c0.101,0.388,0.195,0.777,0.289,1.166
				c-0.711,0.776-1.41,1.363-2.472,1.216c-0.178,1.614-0.349,3.166-0.527,4.785c0.708,0.46,1.667,0.347,2.193-0.57
				c0.462-0.805,0.768-1.742,0.925-2.658c0.112-0.654,0.079-1.334,0.052-2.079c0.098,0.416,0.196,0.833,0.3,1.248
				c0.578,2.283,1.228,4.546,1.918,6.763c0.297,1.712,0.608,3.434,0.913,5.203c0.08,0.012,0.361,0.05,0.836,0.116
				c-0.479,0.329-0.803,0.613-1.179,0.8c-1.236,0.61-2.001,1.589-2.442,2.854c-0.215,0.617-0.477,1.216-0.693,1.833
				c-0.604,1.728-1.765,2.791-3.657,2.98c0.385,1.284,1.573,1.994,3.401,1.397c0.343,1.354,1.113,2.36,2.595,2.909
				c-0.398-1.955,0.402-3.455,1.485-4.829c0.789-0.999,1.72-1.817,2.772-2.462c0.099,0.222,0.189,0.455,0.289,0.677
				c-0.499,0.322-0.992,0.651-1.449,1.025c-0.263,0.215-0.307,0.715-0.406,1.096c-0.285,1.098-0.481,2.224-0.839,3.297
				c-0.316,0.952-0.983,1.628-2.101,1.661c0.197,1.53,2.505,1.977,3.557,0.763c0.54-0.623,1.049-1.381,1.248-2.16
				c0.327-1.271,0.583-2.559,0.829-3.849c0.085,0.182,0.166,0.368,0.251,0.549c-0.048,0.552-0.099,1.103-0.116,1.655
				c-0.038,1.213-0.014,2.448,0.189,3.638c0.118,0.688,0.649,1.307,1.048,2.061c0.873-0.642,1.315-1.37,1.525-2.129
				c0.122,0.217,0.243,0.44,0.366,0.659c-0.243,0.355-0.478,0.708-0.69,1.066c-0.104,0.172-0.009,0.439,0.035,0.656
				c0.329,1.617,0.573,3.254,1.045,4.843c0.225,0.76,0.789,1.496,1.383,2.125c0.565,0.599,1.339,0.599,1.928,0.336
				c-0.516-1.779-1.024-3.512-1.516-5.249c0.281,0.464,0.557,0.945,0.842,1.399c0.188,0.52,0.393,1.036,0.649,1.533
				c0.326,0.63,0.844,1.241,1.443,1.717c0.022,0.018,0.053,0.027,0.076,0.044c0.836,1.219,1.715,2.441,2.627,3.661
				c-1.594-0.193-3.203-0.223-4.829-0.061c-3.794,0.376-7.484,1.862-11.535,0.913c0.413,1.747,1.157,3.106,2.456,4.097
				c0.047,0.035,0.094,0.066,0.142,0.1c-1.328,0.333-2.654,0.675-3.978,1.032c-3.715,1.004-7.485,1.659-11.356,1.582
				c-0.186-0.005-0.375,0.058-0.563,0.09c-0.05,0.098-0.097,0.196-0.146,0.294c0.52,0.39,1.023,1.078,1.564,1.111
				c1.323,0.083,2.669-0.093,3.996-0.252c1.457-0.173,2.903-0.446,4.354-0.676c0.019,0.113,0.039,0.225,0.059,0.339
				c-2.789,0.506-5.579,1.012-8.47,1.537c0.628,0.956,1.2,1.949,1.89,2.851c2.129,2.784,4.872,4.251,8.485,4.113
				c3.638-0.139,6.985-1.433,10.451-2.273c3.119-0.755,6.246-1.597,9.42-1.978c3.283-0.396,6.518-0.219,9.738,0.455
				c0.004,0.004,0.006,0.007,0.009,0.009c2.312,2.247,4.715,4.392,7.142,6.378c2.462,2.011,4.822,3.82,7.213,5.529
				c0.486,0.347,1.006,0.519,1.527,0.519c0.534,0,1.07-0.182,1.567-0.547c2.672-1.964,5.517-4.098,8.205-6.395
				c2.041-1.745,3.898-3.426,5.634-5.089c1.023-0.216,2.042-0.447,3.066-0.656c3.471-0.708,6.963-0.491,10.37,0.224
				c3.704,0.777,7.33,1.922,10.994,2.892c2.208,0.585,4.429,1.005,6.745,0.954c2.706-0.059,4.922-1.116,6.671-3.081
				c1.074-1.206,1.927-2.608,2.83-3.858c-2.962-0.537-5.719-1.036-8.476-1.535c0.037-0.11,0.073-0.219,0.11-0.33
				c0.245,0.034,0.491,0.072,0.736,0.1c2.403,0.287,4.806,0.57,7.209,0.86c1.147,0.138,1.357-0.676,1.652-1.36
				c-2.587-0.262-5.104-0.333-7.542-0.806c-2.869-0.557-5.708-1.273-8.541-2.002c0.06-0.044,0.123-0.084,0.183-0.13
				c1.298-0.991,2.043-2.35,2.455-4.097c-4.051,0.949-7.741-0.537-11.534-0.913c-1.613-0.16-3.208-0.13-4.789,0.059
				c0.894-1.201,1.765-2.423,2.612-3.662c0.021-0.015,0.047-0.024,0.067-0.039c0.6-0.475,1.117-1.087,1.443-1.717
				c0.252-0.49,0.457-0.998,0.642-1.512c0.287-0.454,0.557-0.918,0.838-1.374c-0.488,1.721-0.992,3.439-1.504,5.204
				c0.589,0.262,1.361,0.262,1.928-0.336c0.592-0.629,1.156-1.365,1.382-2.124c0.472-1.589,0.716-3.224,1.045-4.84
				c0.044-0.217,0.138-0.484,0.034-0.656c-0.209-0.353-0.438-0.698-0.676-1.046c0.121-0.221,0.235-0.448,0.355-0.669
				c0.211,0.756,0.652,1.479,1.521,2.119c0.4-0.754,0.93-1.373,1.048-2.06c0.204-1.19,0.226-2.424,0.189-3.636
				c-0.015-0.536-0.066-1.07-0.112-1.604c0.087-0.184,0.168-0.375,0.255-0.559c0.245,1.276,0.499,2.551,0.821,3.808
				c0.201,0.777,0.709,1.536,1.248,2.159c1.051,1.214,3.359,0.767,3.555-0.762c-1.117-0.034-1.784-0.71-2.1-1.661
				c-0.356-1.074-0.553-2.198-0.838-3.295c-0.099-0.381-0.143-0.881-0.407-1.096c-0.451-0.369-0.938-0.696-1.431-1.015
				c0.1-0.224,0.186-0.455,0.287-0.68c1.045,0.644,1.971,1.458,2.756,2.453c1.083,1.373,1.883,2.873,1.485,4.826
				c1.483-0.549,2.252-1.555,2.594-2.907c1.827,0.597,3.015-0.113,3.4-1.396c-1.891-0.189-3.052-1.252-3.656-2.979
				c-0.216-0.617-0.478-1.216-0.693-1.832c-0.44-1.265-1.204-2.243-2.438-2.854c-0.376-0.185-0.702-0.471-1.18-0.799
				c0.475-0.066,0.756-0.104,0.836-0.116c0.284-1.646,0.577-3.255,0.855-4.851c0.488-1.542,0.962-3.128,1.417-4.794
				c0.316-1.157,0.589-2.315,0.847-3.47c-0.026,0.708-0.053,1.36,0.054,1.986c0.157,0.916,0.462,1.852,0.924,2.657
				c0.526,0.917,1.485,1.03,2.192,0.57c-0.178-1.619-0.349-3.17-0.527-4.783c-1.061,0.146-1.759-0.441-2.472-1.218
				c0.087-0.405,0.182-0.812,0.265-1.215c0.569,1.43,1.542,1.937,2.764,1.382c-0.117-0.608-0.238-1.16-0.323-1.718
				c-0.088-0.585-0.142-1.175-0.217-1.825c-0.618,0.08-1.223,0.159-1.831,0.238c0.057-0.286,0.123-0.583,0.177-0.866
				c3.181-0.418,6.182-1.363,8.797-3.399c1.708-1.331,2.723-3.092,2.821-5.242c0.06-1.313-0.132-2.637-0.213-3.976
				c0.689,1.905,0.788,3.88,0.386,5.895c-0.055,0.275-0.112,0.598-0.02,0.845c0.717,1.909,1.052,3.864,1.045,5.908
				c-0.006,1.739,0.076,3.492,0.313,5.213c0.347,2.522,3.319,3.503,4.713,2.506C176.911,100.77,176.502,98.803,176.258,96.794z"/>
			<path class="st0" d="M73.46,126.995c-0.14,0.005-0.323-0.035-0.418,0.022c-0.812,0.5-1.701,0.731-2.758,0.577
				c-0.537,1.511-1.055,3.014-1.612,4.508c-0.178,0.474-0.425,0.939-0.709,1.378c-0.429,0.659-1.087,1.083-2.035,1.103
				c0.094,1.405,2.469,1.752,3.412,1.038c0.744-0.563,1.461-1.287,1.797-2.056c0.746-1.707,1.241-3.487,1.844-5.237
				c0.157-0.454,0.333-0.902,0.5-1.354L73.46,126.995z"/>
			<path class="st0" d="M73.625,126.974c-0.328,1.383-0.764,2.771-1.14,4.144c-0.446,1.635-0.964,3.256-1.466,4.934
				c0.665,0.333,1.672,0.237,2.237-0.552c0.604-0.844,1.058-1.798,1.34-2.752c0.398-1.345,0.598-2.732,0.84-4.108
				c0.099-0.56-0.684-2.807-1.098-3.647C74.135,125.281,73.625,126.974,73.625,126.974z"/>
			<path class="st0" d="M77.183,128.57c-0.582-0.024-1.032-0.041-1.545-0.063c-0.23,1.586-0.511,3.257-0.702,4.937
				c-0.131,1.148-0.015,2.293,0.753,3.307c0.517,0.684,0.931,0.689,1.466,0.013c0.865-1.091,0.914-2.337,0.78-3.573
				c-0.162-1.476-0.441-2.943-0.676-4.415C77.241,128.667,77.18,128.561,77.183,128.57z"/>
			<path class="st0" d="M153.54,126.995c0.142,0.005,0.323-0.035,0.418,0.022c0.812,0.5,1.701,0.731,2.758,0.577
				c0.537,1.511,1.055,3.014,1.612,4.508c0.178,0.474,0.425,0.939,0.709,1.378c0.429,0.659,1.088,1.083,2.035,1.103
				c-0.093,1.405-2.468,1.752-3.412,1.038c-0.744-0.563-1.461-1.287-1.797-2.056c-0.746-1.707-1.241-3.487-1.844-5.237
				c-0.156-0.454-0.333-0.902-0.5-1.354L153.54,126.995z"/>
			<path class="st0" d="M153.375,126.974c0.329,1.383,0.766,2.771,1.141,4.144c0.446,1.635,0.964,3.256,1.465,4.934
				c-0.664,0.333-1.672,0.237-2.237-0.552c-0.603-0.844-1.057-1.798-1.34-2.752c-0.398-1.345-0.598-2.732-0.84-4.108
				c-0.099-0.56,0.684-2.807,1.098-3.647C152.865,125.281,153.375,126.974,153.375,126.974z"/>
			<path class="st0" d="M149.818,128.57c0.582-0.024,1.031-0.041,1.544-0.063c0.23,1.586,0.511,3.257,0.702,4.937
				c0.131,1.148,0.015,2.293-0.751,3.307c-0.518,0.684-0.932,0.689-1.468,0.013c-0.865-1.091-0.914-2.337-0.78-3.573
				c0.162-1.476,0.441-2.943,0.676-4.415C149.759,128.667,149.821,128.561,149.818,128.57z"/>
			<path class="st0" d="M125.461,123.822h-23.922c-0.05,0-0.09,0.041-0.09,0.091v0.557c0,0.05,0.04,0.091,0.09,0.091h23.922
				c0.05,0,0.091-0.041,0.091-0.091v-0.557C125.552,123.863,125.51,123.822,125.461,123.822z"/>
			<path class="st0" d="M122.81,129.727h-18.569c-0.224,0-0.406-0.177-0.406-0.396c0,0-0.134-0.967-0.134-1.547
				c0-0.579,0.134-1.545,0.134-1.545c0-0.219,0.182-0.398,0.406-0.398h18.569c0.224,0,0.406,0.178,0.406,0.398
				c0,0,0.085,1.16,0.085,1.545c0,0.387-0.085,1.547-0.085,1.547C123.216,129.55,123.034,129.727,122.81,129.727z"/>
		</g>
	</g>
</g>
</svg>
