<?xml version="1.0" encoding="utf-8"?>
<!-- Generator: Adobe Illustrator 21.1.0, SVG Export Plug-In . SVG Version: 6.00 Build 0)  -->
<svg version="1.1" id="Слой_1" xmlns="http://www.w3.org/2000/svg" xmlns:xlink="http://www.w3.org/1999/xlink" x="0px" y="0px"
	 viewBox="0 0 105 105" style="enable-background:new 0 0 105 105;" xml:space="preserve">
<style type="text/css">
	.st0{fill:#1F1F1F;}
</style>
<g id="Слой_x0020_1">
	<g id="_1277672928">
		<g>
			<path class="st0" d="M33.707,25.04h3.759v3.759h-3.759V25.04z"/>
			<path class="st0" d="M41.976,25.04h29.317v3.758H41.976V25.04z"/>
		</g>
		<g>
			<g>
				<path class="st0" d="M33.707,38.343c1.253,0,2.505,0,3.759,0c0,1.253,0,2.505,0,3.759c-1.254,0-2.506,0-3.759,0
					C33.707,40.848,33.707,39.595,33.707,38.343z"/>
				<path class="st0" d="M41.976,38.343c9.772,0,19.544,0,29.317,0c0,1.253,0,2.505,0,3.758c-9.773,0-19.545,0-29.317,0
					C41.976,40.848,41.976,39.595,41.976,38.343z"/>
			</g>
			<g>
				<path class="st0" d="M33.707,51.646c1.253,0,2.505,0,3.759,0c0,1.253,0,2.505,0,3.759c-1.254,0-2.506,0-3.759,0
					C33.707,54.151,33.707,52.899,33.707,51.646z"/>
				<path class="st0" d="M41.976,51.646c9.772,0,19.544,0,29.317,0c0,1.253,0,2.505,0,3.758c-9.773,0-19.545,0-29.317,0
					C41.976,54.151,41.976,52.899,41.976,51.646z"/>
			</g>
		</g>
		<g>
			<path class="st0" d="M33.707,64.948h3.759v3.759h-3.759V64.948z"/>
			<path class="st0" d="M41.976,64.948h29.317v3.758H41.976V64.948z"/>
		</g>
		<path class="st0" d="M99.75,21h-17.5V1.75C82.25,0.783,81.466,0,80.5,0h-42c-0.465,0-0.909,0.185-1.237,0.513l-14,13.999
			c-0.328,0.328-0.513,0.774-0.513,1.237V21H5.25C2.351,21,0,23.35,0,26.25v56c0,2.899,2.351,5.25,5.25,5.25h35.231l-4.667,7H22.75
			V105H82.25V94.5H69.186l-4.667-7H99.75c2.899,0,5.25-2.351,5.25-5.25v-56c0-2.9-2.351-5.251-5.25-5.251V21z M99.75,24.5
			c0.966,0,1.75,0.783,1.75,1.75v50.75H82.25V24.5H99.75z M78.75,77.001H26.25V17.5H38.5c0.966,0,1.749-0.783,1.749-1.75V3.499h38.5
			V77.001z M28.725,14l8.025-8.025V14H28.725z M5.25,24.5h17.5v52.501H3.499V26.25C3.499,25.283,4.284,24.5,5.25,24.5z
			 M78.75,101.501H26.25V98H78.75V101.501z M64.979,94.5H40.021l4.666-7h15.627L64.979,94.5z M101.501,82.25
			c0,0.966-0.785,1.749-1.75,1.749H5.25c-0.966,0-1.75-0.783-1.75-1.749V80.5h98.001V82.25z"/>
	</g>
</g>
</svg>
