<?xml version="1.0" encoding="utf-8"?>
<!-- Generator: Adobe Illustrator 21.1.0, SVG Export Plug-In . SVG Version: 6.00 Build 0)  -->
<svg version="1.1" id="Слой_1" xmlns="http://www.w3.org/2000/svg" xmlns:xlink="http://www.w3.org/1999/xlink" x="0px" y="0px"
	 viewBox="0 0 122 105" style="enable-background:new 0 0 122 105;" xml:space="preserve">
<style type="text/css">
	.st0{fill:#1F1F1F;}
</style>
<g id="Слой_x0020_1">
	<g id="_1277667008">
		<path class="st0" d="M89.62,22.405c0.952,0,1.714-0.762,1.714-1.714c0-0.952-0.762-1.715-1.714-1.715h-3.239
			c-0.952,0-1.714,0.763-1.714,1.715c0,0.952,0.762,1.714,1.714,1.714H89.62z"/>
		<path class="st0" d="M116.476,0.023H5.524C2.476,0.119,0,2.5,0,5.548V68.12v7.619v13.229v0.008v10.477
			c0,3.048,2.476,5.429,5.524,5.523h110.953c3.048,0,5.429-2.476,5.524-5.523V5.548c-0.095-3.048-2.57-5.429-5.524-5.524V0.023z
			 M3.333,76.307c0.062-0.178,0.096-0.37,0.096-0.569V22.405h64.619V22.5h29.096h6.142h15.286v77.048c0,1.143-0.952,2.095-2.19,2.19
			H5.524c-1.142,0-2.094-0.952-2.19-2.19v-2.666v-7.81V76.307z M78.953,18.976H68.048H3.333V5.548c0-1.143,0.952-2.095,2.19-2.19
			h110.953c1.143,0,2.095,0.952,2.19,2.19v13.524h-15.381v-0.096H78.953z"/>
		<path class="st0" d="M10.287,9.548c-0.742,0-1.334,0.762-1.334,1.714c0,0.952,0.592,1.714,1.334,1.714h4.448
			c0.74,0,1.334-0.762,1.334-1.714c0-0.952-0.593-1.714-1.334-1.714H10.287z"/>
		<path class="st0" d="M22.74,9.548c-0.742,0-1.335,0.762-1.335,1.714c0,0.952,0.593,1.714,1.335,1.714h4.447
			c0.742,0,1.335-0.762,1.335-1.714c0-0.952-0.593-1.714-1.335-1.714H22.74z"/>
		<path class="st0" d="M35.266,9.548c-0.742,0-1.334,0.762-1.334,1.714c0,0.952,0.592,1.714,1.334,1.714h4.447
			c0.742,0,1.335-0.762,1.335-1.714c0-0.952-0.593-1.714-1.335-1.714H35.266z"/>
		<g>
			<path class="st0" d="M65.378,78.488l-0.02-0.008c-0.011,0.047-0.009,0.093-0.033,0.141L65.378,78.488z"/>
			<path class="st0" d="M85.342,54.604V54.54c-0.698-0.673-2.239,0.06-3.121,0.136c0.301-0.51,2.685-2.435,2.262-3.267
				c-0.83-0.323-2.621,0.788-3.474,1.039c0.118-0.22,1.676-1.511,2.029-1.959c0.456-0.58,1.052-2.523,0.419-3.196L77.91,52.43
				c0.706-1.023,2.527-2.904,3.452-4.006c0.62-0.74,1.116-1.569,1.148-2.568c0.023-0.692-0.514-2.177-1.15-2.524
				c-0.171,0.199-1.41,2.82-1.819,3.445c-0.551,0.835-1.578,2.338-2.326,2.97l-0.264-0.154l-1.886,2.811
				c-0.177-0.03-0.114-0.008-0.325-0.216c-0.771,0.673-1.584,1.658-2.433,2.419c-0.669,0.599-2.181,1.898-1.86,2.908
				c0.236,0.745,2.248,1.639,0.752,3.083c-0.858,0.827-2.835,0.701-3.389-0.359c0.419-0.31,1.066-0.274,1.334-0.961
				c0.172-0.444,0.185-1.538-0.332-1.757c-0.361,0.499-0.348,1.033-1.256,0.987c-0.407-0.02-1.361-0.573-1.372-0.809
				c0.473-0.173,0.663,0.099,1.33-0.354c0.245-0.167,0.841-0.618,0.647-0.959c-0.065-0.026-2.007,0.789-2.617-0.85
				c-0.66-1.778,1.575-3.778,1.928-3.791c0.268-0.011,0.297,0.34,0.666,0.173c0.276-0.124,0.135-0.297,0.566-0.436
				c2.385-0.76,1.88,1.17,2.145,1.61c0.462-0.19,0.521-0.796,0.468-1.246c-0.064-0.543-0.682-0.743-0.777-0.912
				c0.664-0.041,1.183,1.077,2.421,1.059c0.945-0.012,1.881-1.32,1.603-1.76c-0.383,0.073-0.552,1.26-1.936,0.856
				c-0.391-0.114-0.614-0.32-0.962-0.464c-0.349-0.145-0.797-0.167-1.123-0.297c0.444-0.891,2.233,0.149,2.365,0.162
				c0.612-0.307,0.878-1.874,0.223-2.412c-0.286-0.234-0.88-0.43-1.253-0.419c-0.296,0.01-0.964-0.261-1.1-0.534
				c0.051-0.063,1.602-0.134,2.634-1.279c0.917-1.016-0.233-2.348,0.221-3.114c0.259-0.043,1.607,0.484,1.776,0.688
				c0.586,0.702,0.205,1.051-0.203,1.667c-0.399,0.602-0.502,1.275-0.086,1.912c0.86,1.318-0.139,1.26-0.211,1.677
				c0.486,0.351,1.343-0.243,1.61-0.676c0.506-0.821-0.193-1.14-0.43-1.467l-0.083-0.011l0.015-0.128
				c0.01,0.047,0.035,0.093,0.068,0.139l1.522,0.198l0.232,0.418c0.432-0.13,0.535-0.962,0.368-1.334
				c-0.284-0.625-0.987-0.16-1.376-0.435c-0.23-0.565,0.9-0.939,0.816-1.624c-0.09-0.73-0.694-1.007-1.35-1.104
				c-1.652-0.244-0.824-2.06-3.214-1.585c-3.266,0.648,0.351,3.625-0.795,4.828c-0.389,0.409-1.13,0.719-1.692,0.692
				c-0.051-0.798,0.773-1.56,0.593-2.324c-0.213-0.914-1.126-1.054-1.909-0.877l-0.109-1.2c0.271-0.115,0.277,0.332,0.368-0.444
				c0.06-0.516,0.101-0.415-0.255-0.29c-0.12-0.184,0.299-0.262-0.488-0.262c-0.563-0.001-0.501-0.065-0.364,0.289l-0.349-0.063
				c-0.043,0.092,0.025,0.698,0.036,0.842l0.364-0.025l-0.136,1.15c-0.031,0.031-1.844-0.436-1.785,1.052
				c0.028,0.697,0.886,1.881,0.702,2.317c-0.656,0.085-2.283-0.661-2.769-1.122c-1.2-1.135-1.553-0.749-0.887-2.27
				c0.368-0.843,0.969-2.185,0.796-3.095c-0.142-0.752-1.834-1.459-2.56-1.295l-0.135,0.366l-0.452-0.538l0.149-0.008l-0.175-1.333
				l0.566,0.235v-1.318l-0.556,0.294l0.111-0.51l-1.044,0.058l0.133,0.431l-0.715-0.288l-0.024,1.209l0.788-0.072
				c-0.258,0.551-0.723,0.46-0.187,1.318l-0.415,0.487l-0.149-0.37c-0.969-0.18-2.283,0.411-2.552,1.386
				c-0.253,0.916,0.424,2.079,0.841,2.904c0.681,1.35,0.631,1.461-0.566,2.392c-0.362,0.282-2.178,1.411-2.554,1.246
				c-0.251-0.557,1.417-3.391-0.951-3.452l-0.251,0.308l-0.135-0.013l-0.092-1.224l0.479,0.055c0.05-0.104-0.043-0.873-0.056-1.044
				l-0.428,0.118l0.128-0.383l-1.067-0.02l0.039,0.419l-0.439-0.036l0.122,0.905l0.398-0.034l-0.339,1.488l-0.101,0.015
				l-0.195-0.389c-0.68-0.008-1.369,0.518-1.27,1.246c0.079,0.59,0.61,1.514,0.567,1.967c-0.539,0.065-1.525-0.436-1.795-0.905
				c-0.953-1.655,1.841-2.142,0.434-3.852c-0.07-0.084-1.534-1.192-1.551-1.195c-1.376-0.272-1.326,1.767-3.337,2.078
				c-2.591,0.4,0.091,2.814-0.034,3.126c-0.36,0.295-1.154-0.487-1.419,0.36c-0.114,0.366,0.213,1.391,0.583,1.353l-0.083-0.698
				c0.12,0.053,1.441-0.076,1.803-0.106c0.026-0.051,0.046-0.102,0.052-0.156l0.012,0.15c-0.014,0.001-0.044,0.004-0.064,0.005
				c-0.197,0.395-0.867,0.749-0.552,1.49c0.323,0.763,1.481,0.957,1.59,0.411l-0.451-0.09c-0.611-1.026,1.74-2.14,0.349-3.497
				c-1.655-1.613,1.318-2.518,1.465-2.464c0.379,0.657-0.976,1.888,0.007,3.285c0.63,0.898,1.952,0.903,2.942,1.155l-0.8,0.597
				c-2.461,0.174-2.104,2.432-1.153,2.883c0.606-0.299,0.281-0.673,1.571-0.528c0.42,0.047,1.452,0.187,1.688,0.539
				c-1.335-0.282-1.411-0.282-2.627,0.312c-1.867,0.912-1.543-0.128-2.387-0.135c0.027,0.706,1.31,1.513,2.059,1.488
				c0.914-0.031,1.51-1.182,2.339-1.239c-0.204,0.267-0.706,0.349-0.931,0.794c-0.128,0.253-0.301,1.341,0.212,1.212
				c0.261-0.232,0.18-1.72,2.15-1.406c0.284,0.045,0.449,0.185,0.701,0.226c0.462,0.079,0.439-0.181,0.747-0.033
				c0.201,0.097,0.82,0.702,0.974,0.892c0.608,0.746,0.946,1.809,0.881,2.773c-0.103,1.538-1.85,1.156-2.242,1.275
				c-0.233,0.674,1.23,0.901,1.472,1.103c-0.232,0.344-0.864,0.584-1.279,0.586c-0.82,0.005-0.817-0.496-1.212-0.631
				c-0.455,0.312-0.447,1.064-0.16,1.503c0.461,0.705,0.86,0.535,1.228,0.809c-0.249,1.188-2.446,1.369-3.177,0.62
				c-1.545-1.587,0.225-2.132,0.46-3.152c0.405-1.771-2.05-2.832-3.086-3.961c-0.212-0.233-0.946-1.311-1.028-1.344L47.5,52.745
				c-2.048-1.372-1.713-2.144-2.112-2.811l-0.425,0.443c-0.327-0.135-2.082-2.465-2.42-2.92c-0.313-0.419-1.96-3.329-1.981-3.344
				c-1.118-0.101-1.331,2.694-0.79,3.691c0.636,1.175,1.429,2.048,2.13,3.107l-3.452-3.056c-0.773,0.847-0.287,2.159,0.284,2.934
				c0.447,0.604,1.65,1.521,1.907,2.018c-0.88-0.302-2.601-1.674-3.419-0.798c0.044,0.654,0.624,1.327,1.032,1.813
				c0.234,0.28,1.514,1.24,1.535,1.277c-0.236,0.169-2.678-0.586-3.122,0.142c-0.193,1.123,2.562,2.049,3.083,2.456l-2.779,0.334
				l0.017,0.129c-0.13,0.982,1.932,1.576,2.519,1.872l0.059-0.029l0.037,0.084c-0.025-0.017-0.057-0.035-0.096-0.055l-1.97,0.968
				c-0.217,1.391,1.738,1.419,2.145,1.629l0.024,0.083l-0.708,0.198l-0.068-0.114l-0.217,0.773c0.068,0.098,0.056-0.019,0.038,0.166
				c-0.217,0.031-0.073,0.027-0.188-0.03l-0.43,0.505l0.123-0.009l0.141,0.676l-1.225,0.198c-0.251,0.43,0.217,0.981,0.526,1.294
				c0.649,0.654,0.943,0.438,1.259,0.692l0.186,0.483l1.346,0.561l-0.207,0.67c0.107,0.145,0.449,0.123,0.564,0.206
				c0.146,0.216,1.095,2.91,1.195,3.298c0.148,0.564,0.435,1.071,0.644,1.612c0.426,1.105-0.601,0.529,0.618,1.457
				c0.023,0.288-0.097,0.357,0.017,0.593c0.162,0.34,0.233,0.072,0.146,0.463c-0.158,0.698,0.345,0.603,0.554,0.784
				c0.36,0.798,0.204,1.109-0.407,1.489c-0.92,0.573,0.221,1.081,0.368,1.267c0.024,0.073-0.064,0.512-0.013,0.669l0.779,0.262
				c0.177,0.437-0.316,0.245,0.355,0.77c0.113,0.088,0.662,0.5,0.708,0.557c0.134,0.868-0.148,0.415,0.608,1.027
				c0.269,0.219,0.798,0.634,1.143,0.533c0.516-0.15,0.417-0.826,0.457-1.283c0.079-0.944-0.502-0.561-0.572-1.205
				c0.742-1.105,2.716-1.457,3.886-1.848c1.168-0.39,4.001-0.272,4.916-0.817l-0.76-1.275l0.095-0.056
				c0.507,0.007,2.135-0.345,1.9-1.134c-0.385,0.011-0.647,0.548-1.316,0.019c-1.115-0.881,0.373-3.122,2.103-1.67
				c0.66,0.556,1.348,1.629,0.628,2.414c-0.655,0.712-1.675,0.616-1.468,1.983c-1.368,0.201-2.73,2.355-3.645,2.081
				c-0.746-0.223-0.269-0.99-0.2-1.321c-0.609,0.113-1.089,0.595-1.309,1.151c-0.407,1.032,0.3,1.218,0.524,1.727
				c-0.455,0.604-1.003,0.81-0.625,1.872c0.109,0.306,0.296,0.59,0.515,0.824c0.423,0.452,0.39,0.763,0.628,0.798l0.264-1.734
				l0.192,0.03c0.392,0.644-0.086,0.963,1.083,1.684c1.076,0.664,1.128,0.187,1.922-0.172c0.24,0.124,0.539,0.756,1.412,1.077
				c1.023,0.378,1.341-0.033,2.094-0.197l1.297,1.271h0.2l1.18-1.214c0.781,0.14,0.924,0.608,1.971,0.026
				c0.794-0.438,1.023-1.145,1.232-1.282c0.714,0.195,0.886,1.126,2.184,0.541c0.725-0.328,0.942-1.284,1.028-2.004
				c0.714,0.417,0.315,0.3,0.524,0.937c0.099,0.301,0.462,0.765,0.798,0.636c0.033-0.27-0.291-0.232,0.023-0.962
				c0.114-0.268,0.295-0.625,0.354-0.904c0.203-0.964-0.397-1.153-0.723-1.753c0.206-0.545,0.842-0.666,0.309-1.593
				c-0.277-0.482-0.819-0.927-1.414-0.81c1.07,1.979-1.813,0.219-2.341-0.023c-0.84-0.385-2.751-0.92-3.236-1.677l0.033-0.084
				l1.652,0.66c0.167-0.716-1.12-1.29-1.468-1.725c-0.565-0.704-0.158-1.815,0.509-2.309c0.66-0.487,2.033-0.538,2.457,0.253
				c0.213,0.397,0.126,0.917-0.191,1.233c-0.58,0.582-0.875,0.075-1.212,0.126c-0.225,0.758,1.253,0.957,1.649,1.102l-0.313,1.386
				c0.451,0.101,3.712,0.518,4.306,0.659c0.688,0.166,1.316,0.278,2.004,0.418c0.512,0.102,1.11,0.524,1.628,0.756
				c0.77,0.346,0.994,0.537,1.824,0.158c0.525-0.24,1.519-0.346,1.831-0.547c0.258-0.168,1.42-0.83,1.468-0.961
				c0.16-0.443-0.204-0.428,0.295-0.914c0.276-0.27,0.371-0.318,0.436-0.749l0.384,0.005l0.468-0.86l-0.584-0.772
				c-0.231-2.461-2.47-2.19-2.593-3.173l0.699,0.245l-0.051-1.488l-0.554,0.287l0.193-0.546l-1.65,0.078l0.201,0.561l-0.582-0.308
				l0.088,1.625l0.375-0.208c0.091,0.425-1.153,0.642-1.583,1.201c-0.379,0.492-0.583,1.451-1.067,1.688
				c-0.053,0.75-0.342,0.493-0.346,0.852c-0.003,0.242,0.28,0.566,0.367,0.824l0.548-0.017l0.289,0.687
				c-1.412,0.932-1.83,0.538-3.357,0.167c-0.664-0.162-2.952-0.753-2.036-1.915l0.636,0.987l0.123-0.685l1.072,0.86l-0.548-1.789
				l0.175-0.055c0.259,0.02,0.641,0.628,1.215,0.567c0.332-0.036,1.058-0.398,0.94-0.792c-0.178-0.113-0.999,0.315-0.859-1.025
				c0.075-0.721,0.253-0.95,0-1.721c-0.358-1.086-1.567-1.361-2.599-1.376l0.246-0.476c-0.713,0.212-2.151,0.534-2.543-0.441
				c-0.127-0.313-0.158-3.096,0.001-3.302l0.065,0.12l1.336-0.733l1.189,0.654l0.072-0.141c0.117,0.682-0.101,1.657,0.077,2.307
				c0.084,0.308,1.045,1.041,1.219,1.115c0.05-0.021,0.657-0.607,0.766-0.719c1.105-1.134-0.362-2.72,0.162-3.426
				c0.13,0.053,0.501,2.233,0.567,2.568c0.243,1.214,0.492,1.179,1.586,1.515c1.972-1.19-0.225-3.186-0.34-4.711
				c1.172,1.311,0.809,4.133,3.272,3.803c1.746-2.065-1.668-3.475-1.9-4.885c0.888,0.204,2.651,4.769,4.549,3.252
				c0.557-2.09-1.824-2.321-2.541-3.493c1.487,0.691,2.696,2.496,4.51,1.651l0.141-0.05l-0.649-1.86
				c-0.045,0.004-0.088,0.004-0.133,0.011l0.122-0.043l0.011,0.032c0.824-0.073,1.523,0.209,2.087-0.676
				c0.398-0.624-1.012-1.387-1.225-1.606c0.809-0.161,2.081-0.54,2.178-1.516l-1.754-0.861c0.573-0.364,2.105-0.676,2.215-1.675
				l0.025-0.118l-2.637-0.529c0.283-0.257,1.119-0.608,1.592-0.996C84.854,55.512,84.929,55.195,85.342,54.604z M54.536,70.642
				c-0.595,1.021-2.479,0.45-2.726,0.523l0.359,0.416c-0.711,0.435-1.912,0.349-2.153,1.722c-0.126,0.713,0.204,1.136,0.185,1.695
				c-0.033,0.91-0.745,0.435-0.988,0.834c0.077,0.293,0.736,0.641,1.033,0.676c0.61,0.071,0.95-0.501,1.136-0.503
				c0.541,0.603-0.278,1.488-0.259,1.747l0.072,0.09l1.201-0.984l-0.025,0.693l0.551-0.762c0.556,0.948-3.148,1.914-3.775,2.059
				c-1.243,0.287-1.585,0.339-1.833-0.842c-0.439-2.108-2.414,0.938-2.193-1.718c0.028-0.352-0.167-0.335-0.342-0.503
				c-0.229-0.217-0.038-0.333-0.257-0.611c-0.163-0.206-0.365-0.198-0.354-0.467c0.013-0.309,0.186-0.315-0.171-0.567
				c-0.381-0.268-0.449-0.644-0.653-1.079c-0.368-0.79-0.712-1.604-1.059-2.403c-0.178-0.407-0.365-0.778-0.556-1.176
				c-0.425-0.882-0.128-0.819-0.256-1.324l-0.41-0.21l0.173-0.063l-0.306-0.943l-0.115,0.038l0.076-0.16l0.04,0.122l1.032-0.338
				l-0.192,2.04c1.77,0.167,1.738,0.447,2.806-0.99c0.316-0.426,1.53-1.989,1.69-2.349l0.068,0.001
				c-0.676,1.296-3.088,3.401-1.739,4.989c0.001,0,1.258-0.249,1.282-0.258c0.591-0.249,1.33-2.438,1.808-2.917
				c-0.393,2.008-1.551,1.245-0.107,3.817c0.604-0.194,0.41-0.268,1.218-0.399c0.458-0.076,0.507-0.544,0.625-0.939
				c0.094-0.313,0.593-2.538,0.597-2.543c0.055,0.11-0.355,1.62-0.317,2.148c0.036,0.501,0.789,1.173,1.175,1.388
				c0.179-0.019,1.087-0.903,1.16-1.151c0.19-0.66,0.03-1.457,0.126-2.162l0.327,0.233l1.046-0.982l0.996,0.62
				C54.579,67.574,54.666,70.417,54.536,70.642z M61.59,49.463c0.069,0.758,1.235,0.87,1.64,0.987l0.007-0.014l0.109,0.058
				c-0.023-0.016-0.067-0.03-0.116-0.044l-2.133,3.99l0.078,0.159l-0.178,0.026l0.099-0.186l-1.99-4.043l-0.16,0.047l0.104-0.16
				l0.056,0.113l1.302-0.384l-3.051-1.201l0.073-0.177l1.136-0.618l-0.991-0.047l1.281-1.106c-0.109-0.062-2.12,0.259-2.424,0.195
				c0.01-0.011,1.931-0.773,2.239-0.938c1.515-0.811,0.402-0.723,2.259-0.663c0.413,0.013,1.023-0.208,1.337,0.019
				c1.741,1.262,2.675,1.068,3.313,1.445l-0.033,0.162l-2.502-0.527l1.462,1.453l-1.006,0.091l-0.044,0.129l1.307,0.551
				C63.56,49.831,63.114,49.776,61.59,49.463z"/>
		</g>
	</g>
</g>
</svg>
