<?xml version="1.0" encoding="utf-8"?>
<!-- Generator: Adobe Illustrator 21.1.0, SVG Export Plug-In . SVG Version: 6.00 Build 0)  -->
<svg version="1.1" id="Слой_1" xmlns="http://www.w3.org/2000/svg" xmlns:xlink="http://www.w3.org/1999/xlink" x="0px" y="0px"
	 viewBox="0 0 94 105" style="enable-background:new 0 0 94 105;" xml:space="preserve">
<style type="text/css">
	.st0{fill:#1F1F1F;}
</style>
<g id="Слой_x0020_1">
	<path id="Shape" class="st0" d="M93.168,95.92c-8.519,5.331-23.357,7.642-33.414,8.448c-16.469,1.322-45.108,0.206-58.934-8.448
		c-0.535-0.334-0.848-0.933-0.817-1.564c0.03-0.631,0.399-1.195,0.964-1.478c1.553-0.772,6.046-3.24,8.188-4.465
		c11.692-6.817,9.248-0.09,22.135-12.215V66.051c-3.338-3.162-5.265-5.907-5.48-10.752c-3.623-1.832-6.063-5.384-6.476-9.423
		c-0.366-1.853-1.162-7.09,0.86-9.584c-2.855-2.984-2.866-7.919-2.866-13.436c0.034-4.48,2.844-8.468,7.052-10.008
		c0.452-4.156,3.517-12.678,20.869-12.678c9.998-0.045,19.989,0.543,29.914,1.762c0.814,0.115,1.438,0.782,1.497,1.603
		c0.347,4.752,0.347,9.525,0,14.278c-1.017,9.156-3.196,14.382-4.994,17.265c4.025,0.586,3.78,6.805,3,10.798
		c-0.419,4.038-2.859,7.585-6.477,9.424c-0.213,4.82-2.113,7.562-5.479,10.753v10.149c2.479,2.426,5.172,4.627,8.042,6.575
		c1.447,0.858,3.024,1.475,4.668,1.827c5.061,0.895,7.853,3.061,16.8,7.853c0.747,0.397,1.719,0.697,1.777,1.891
		C94.027,94.985,93.709,95.587,93.168,95.92L93.168,95.92z M10.899,91.438C9.1,92.466,7.275,93.47,5.44,94.462
		c6.925,2.911,14.232,4.809,21.697,5.639c-3.054-3.604-5.071-7.969-5.835-12.629C18.282,88.497,16.892,87.948,10.899,91.438z
		 M22.766,45.291c0.014,0.076,0.024,0.151,0.03,0.228c0.256,2.235,1.36,4.288,3.083,5.735c0.267-5.669-0.753-6.303-1.309-12.329
		c-0.528-0.304-1.14-0.43-1.745-0.36c-0.526,0.683-0.654,3.721-0.051,6.723L22.766,45.291z M73.259,5.209
		c-9.299-1.053-18.652-1.57-28.01-1.547c-15.75,0-17.451,7.33-17.451,10.471c-0.004,0.796-0.543,1.491-1.314,1.69
		c-0.23,0.054-5.667,1.538-5.667,7.034c0,6.834,0.201,10.591,3.52,12.058c-0.011-0.359-0.046-2.052-0.024-2.307
		c1.147-12.387,5.298-14.987,8.577-14.987c7.232,0,7.41,1.746,14.102,1.746c6.662,0,6.91-1.746,14.102-1.746
		c4.537,0,7.448,4.796,8.458,14.006c2.018-4.489,3.245-9.292,3.626-14.198C73.493,13.364,73.519,9.28,73.259,5.209L73.259,5.209z
		 M71.184,45.51c0.006-0.074,0.015-0.149,0.03-0.222c0.634-3.169,0.449-6.401-0.085-6.762c-0.585-0.025-1.168,0.091-1.7,0.337
		c-0.523,5.83-1.588,6.68-1.319,12.39C69.833,49.803,70.932,47.748,71.184,45.51L71.184,45.51z M64.637,51.825
		c-0.391-8.123,1.521-8.201,1.552-18.936c-0.523-5.704-2.125-11.777-5.094-11.777c-6.665,0-6.91,1.745-14.102,1.745
		c-7.229,0-7.408-1.745-14.102-1.745c-2.476,0-4.427,4.537-5.094,11.723c0.019,10.722,1.949,10.755,1.553,18.997
		c-0.494,10.336,2.654,8.047,9.09,17.487c2.01,2.947,2.932,4.144,5.586,4.144h5.933c4.764,0,4.655-4.808,10.711-10.315
		C64.671,59.53,64.865,56.637,64.637,51.825z M62.7,80.928v3.006c0,0.964-0.782,1.745-1.746,1.745c-0.963,0-1.745-0.781-1.745-1.745
		V70.159c-2.572,3.655-4.211,6.796-9.248,6.796c-9.619,0-9.868,0.769-15.183-6.796v13.776c0,0.964-0.781,1.745-1.745,1.745
		s-1.745-0.781-1.745-1.745v-3.006c-2.048,1.927-4.295,3.631-6.704,5.085c0.64,3.983,2.829,12.523,9.963,14.879
		c8.278,0.656,16.594,0.656,24.873,0c7.155-2.351,9.341-10.894,9.982-14.882C66.995,84.558,64.748,82.855,62.7,80.928L62.7,80.928z
		 M83.077,91.428c-5.961-3.473-7.386-2.938-10.39-3.96c-0.764,4.66-2.781,9.026-5.835,12.629c7.466-0.83,14.773-2.729,21.699-5.638
		c-1.836-0.993-3.664-1.999-5.473-3.032V91.428z"/>
</g>
</svg>
