<?xml version="1.0" encoding="utf-8"?>
<!-- Generator: Adobe Illustrator 21.1.0, SVG Export Plug-In . SVG Version: 6.00 Build 0)  -->
<svg version="1.1" id="Слой_1" xmlns="http://www.w3.org/2000/svg" xmlns:xlink="http://www.w3.org/1999/xlink" x="0px" y="0px"
	 viewBox="0 0 257 110" style="enable-background:new 0 0 257 110;" xml:space="preserve">
<g id="Слой_x0020_1">
	<g id="_1257056736">
		<path d="M205.362,100.183v-3.227h48.411c1.781,0,3.227-1.445,3.227-3.227V16.271c0-1.781-1.446-3.227-3.227-3.227h-48.411V9.817
			c0-5.338-4.344-9.683-9.683-9.683H22.591C10.138,0.134,0,10.268,0,22.727v64.548c0,12.457,10.138,22.591,22.591,22.591h173.088
			C201.018,109.866,205.362,105.522,205.362,100.183L205.362,100.183z M250.546,19.5v71.002h-45.184V19.5H250.546z M22.591,103.411
			c-8.898,0-16.137-7.24-16.137-16.137V22.727c0-8.898,7.24-16.137,16.137-16.137h173.088c1.778,0,3.228,1.449,3.228,3.227v90.366
			c0,1.778-1.45,3.228-3.228,3.228H22.591L22.591,103.411z"/>
		<polygon points="218.272,25.954 218.272,45.318 211.816,45.318 211.816,25.954 		"/>
		<polygon points="218.272,64.682 218.272,84.046 211.816,84.046 211.816,64.682 		"/>
		<path d="M38.114,62.627c1.627,9.043,8.801,15.011,19.11,15.011c13.081,0,20.737-9.102,20.737-22.667
			c0-13.503-7.777-22.607-21.039-22.607c-10.188,0-16.82,6.089-18.628,15.011h6.811c1.448-6.269,6.029-9.283,12.118-9.283
			c7.234,0,12.599,5.184,13.563,13.624H50.894v5.788h19.954c-0.663,8.982-6.209,14.408-13.684,14.408
			c-6.27,0-10.912-2.954-12.299-9.284H38.114z M125.285,71.067h-5.547V33.148h-6.873v37.858H92.851V33.148h-6.873v43.707h33.157
			v9.042h6.149V71.067z M166.821,76.854V33.148h-34.604v43.707h6.873V38.996h20.859v37.858H166.821z"/>
	</g>
</g>
</svg>
